<svg xmlns="http://www.w3.org/2000/svg" width="212.293" height="112.766" viewBox="0 0 212.293 112.766"><defs><style>.a{fill:#ffa900;}.b{fill:#080e3a;}.c{fill:#ffd485;}.d{fill:none;stroke:#ffd485;stroke-miterlimit:10;stroke-width:1.192px;}.e{fill:#f9dcea;}</style></defs><g transform="translate(0 0.599)"><g transform="translate(107.05 6.64)"><path class="a" d="M5230.548,1171.079l10.8-18.657,5.548,3.211-8.939,15.446,9.868,17.052-9.868,17.053,9.868,17.052-9.868,17.054,8.939,15.449-5.548,3.21-10.8-18.659,9.868-17.054-9.868-17.052,9.868-17.053Z" transform="translate(-5167.374 -1152.422)"/><path class="a" d="M5209.362,1171.079l10.8-18.657,5.548,3.211-8.939,15.446,9.868,17.052-9.868,17.053,9.868,17.052-9.868,17.054,8.939,15.449-5.548,3.21-10.8-18.659,9.868-17.054-9.868-17.052,9.868-17.053Z" transform="translate(-5167.246 -1152.422)"/><path class="a" d="M5188.175,1171.079l10.8-18.657,5.548,3.211-8.939,15.446,9.868,17.052-9.868,17.053,9.868,17.052-9.868,17.054,8.939,15.449-5.548,3.21-10.8-18.659,9.868-17.054-9.868-17.052,9.868-17.053Z" transform="translate(-5167.117 -1152.422)"/><path class="a" d="M5166.989,1171.079l10.8-18.657,5.548,3.211-8.939,15.446,9.868,17.052-9.868,17.053,9.868,17.052-9.868,17.054,8.939,15.449-5.548,3.21-10.8-18.659,9.868-17.054-9.868-17.052,9.868-17.053Z" transform="translate(-5166.989 -1152.422)"/></g><path class="b" d="M5059.451,1215.718s-3.958-49.789,27.033-49.962,36.587,14.214,36.587,14.214,8-27.242,25.526-13.91,19.264,52.1,6.435,58.733-19.837,1.972-25.033-3.726c0,0-8.4,21.926-30.566,25.717S5064.011,1231.662,5059.451,1215.718Z" transform="translate(-5059.287 -1145.843)"/><ellipse class="c" cx="10.755" cy="8.776" rx="10.755" ry="8.776" transform="translate(53.676 60.599) rotate(-82.96)"/><path class="b" d="M5239.534,1169.7c.266-.749-4-10.188-.043-12.655s10.705,2.715,10.705,2.715l5.239-4.394c3.928-3.3,8.231-6.808,10.135-2.878s9.669,26.581,6.22,28.111-8.052.787-11.668-1.963-8.291,2.366-10.187,4.7a4.223,4.223,0,0,1-7.413-1.568C5241.312,1177.833,5239.534,1169.7,5239.534,1169.7Z" transform="translate(-5060.368 -1145.773)"/><g transform="translate(179.058)"><path class="d" d="M5260.791,1156.506l-.756-5.137s2.246-1.287.8-4.335-5.7.034-4.251,1.691a10.152,10.152,0,0,0,2.384,2.164" transform="translate(-5239.538 -1145.742)"/><path class="d" d="M5253.205,1159.854l-.757-5.136s2.246-1.287.8-4.336-5.7.035-4.252,1.692a10.151,10.151,0,0,0,2.384,2.164" transform="translate(-5239.492 -1145.762)"/><path class="d" d="M5243.943,1158.359l-.757-5.136s2.247-1.287.8-4.336-5.7.035-4.252,1.692a10.134,10.134,0,0,0,2.384,2.164" transform="translate(-5239.436 -1145.754)"/></g><g transform="translate(187.425 31.478)"><path class="d" d="M5265.041,1177.562l1.292,5.027s2.569.318,2.413,3.69-5.268,2.174-4.575.086a10.137,10.137,0,0,1,1.361-2.918" transform="translate(-5247.953 -1177.413)"/><path class="d" d="M5256.75,1177.412l1.292,5.027s2.569.318,2.413,3.69-5.268,2.174-4.575.087a10.132,10.132,0,0,1,1.361-2.918" transform="translate(-5247.902 -1177.412)"/><path class="d" d="M5248.789,1182.375l1.292,5.028s2.569.318,2.413,3.688-5.268,2.175-4.575.087a10.141,10.141,0,0,1,1.361-2.918" transform="translate(-5247.854 -1177.442)"/></g><rect class="b" width="13.885" height="93.23" transform="translate(180.989 19.962) rotate(78.612)"/><rect class="e" width="0.567" height="168.827" transform="translate(191.629 22.636) rotate(78.612)"/><rect class="e" width="0.567" height="168.827" transform="translate(192.524 27.079) rotate(78.612)"/></g></svg>