<svg xmlns="http://www.w3.org/2000/svg" width="231.146" height="220.147" viewBox="0 0 231.146 220.147"><defs><style>.a{fill:#e6061c;}.b{fill:#fffdfe;}.c{fill:#e0ac91;}.d{fill:#004f9b;}.e{fill:#f7c0a0;}.f{fill:#9895c9;}.g{opacity:0.3;mix-blend-mode:overlay;isolation:isolate;}</style></defs><g transform="translate(-4536.027 -2793.025)"><path class="a" d="M4569.567,2970.757a38.232,38.232,0,0,1,24.255-31.824l50.513-19.523,22.744-.5a129.795,129.795,0,0,1,43.964,8.7l29.293,11.321a38.232,38.232,0,0,1,24.256,31.824l2.582,25.587H4566.985Z"/><path class="b" d="M4696.019,2937.06c0-.051,0-.1,0-.152a16.653,16.653,0,0,0-14.425-16.848,128.182,128.182,0,0,0-14.519-1.148l-22.744.5-21.81,8.43a51.4,51.4,0,0,0-.127,6.144,85.523,85.523,0,0,0,31.053,62.36h5.819C4680,2983.663,4695.318,2961.3,4696.019,2937.06Z"/><path class="c" d="M4675.532,2874.674l5.534,51.18a26.622,26.622,0,0,1-52.935,5.723l-6.152-56.9Z"/><path class="d" d="M4612.882,2827.942a28.266,28.266,0,0,0-26.134-.871c-4.933,2.37-9.209,9.587-9.447,16.045-.559,15.147,3.912,22.647,11.279,25.744,5.945,2.5,8.425-2.034,13.4,4.69a76.8,76.8,0,0,1,6.757,10.3c2.559,4.956,7.548,7.15,12.043,5.086h0q1.25-14.843,2.5-29.685c.726-8.632,1.221-18.276-3.266-25.012A20.106,20.106,0,0,0,4612.882,2827.942Z"/><path class="e" d="M4636.6,2843.509c1.051-.193,2.087-.464,3.127-.717,16.015-3.889,31.76,8.4,33.347,26.479,1.17,13.321-.232,27.047-6.6,39.64-12.2,24.125-34.615,32.792-45.713,35.06-22.456,4.59-44.1-61.9-31.286-101.9Z"/><path class="d" d="M4568.576,2819.849c12.114-1.589,21.782-6.363,29.067-14.24,5.318-5.75,11.742-10.063,18.926-11.6a44.617,44.617,0,0,1,20.321.387c23.378,5.916,40.026,29.688,40.026,57.154v3.994l-4.455-1.908a103.167,103.167,0,0,0-60.063-6.707l-5.982,1.13c-13.711,2.592-27.755-1.236-38.984-10.626C4562.009,2832.9,4562.627,2823.41,4568.576,2819.849Z"/><path class="d" d="M4679.028,2806.319a32.323,32.323,0,0,0-32.308-1.176c-6.1,3.2-11.384,12.959-11.679,21.688-.691,20.474,4.837,30.612,13.944,34.8,7.349,3.379,10.415-2.749,16.568,6.339a105.315,105.315,0,0,1,8.353,13.919c3.163,6.7,9.331,9.665,14.888,6.874h0q1.544-20.062,3.087-40.124c.9-11.668,1.51-24.705-4.038-33.809A25.72,25.72,0,0,0,4679.028,2806.319Z"/><rect class="b" width="21.072" height="5.255" transform="matrix(0.954, -0.299, 0.299, 0.954, 4647.479, 2870.89)"/><path class="e" d="M4658.5,2874.588c-1.069,7.144,5.441,15.1,12.5,13.552,5.521-1.215,8.785-7.44,8.445-13.082a12.822,12.822,0,0,0-.933-4.244c-2.319-5.46-9.972-7.79-14.94-4.55A12.062,12.062,0,0,0,4658.5,2874.588Z"/><path class="f" d="M4581.506,2878.778a14.87,14.87,0,1,0,14.869-14.869A14.869,14.869,0,0,0,4581.506,2878.778Z"/><path class="b" d="M4578.878,2878.779a17.5,17.5,0,1,1,17.5,17.5A17.518,17.518,0,0,1,4578.878,2878.779Zm5.255,0a12.242,12.242,0,1,0,12.242-12.243A12.256,12.256,0,0,0,4584.133,2878.779Z"/><g class="g"><path class="b" d="M4592.823,2890.833a4.369,4.369,0,0,0,2.081-.548,9.029,9.029,0,0,0,2.421-2.168l5.633-6.531c1.379-1.6,2.448-2.264,3.278-2.042,1.053.29,1.4,2.132,1,3.585-.168.618-.4,1.223-.632,1.827a10.773,10.773,0,0,0-1,4.5l2.622-.143a8.736,8.736,0,0,1,.833-3.422,21.819,21.819,0,0,0,.714-2.079c.75-2.755-.11-6.054-2.843-6.806-2.829-.772-5.107,1.864-5.966,2.858l-5.632,6.532a6.8,6.8,0,0,1-1.686,1.576,1.392,1.392,0,0,1-1.3.1c-.628-.417-.378-1.882.149-3.149a64.851,64.851,0,0,1,7.3-13.042c.616-.855,1.9-2.632,1.134-4.477a3.616,3.616,0,0,0-4.589-1.727,7.9,7.9,0,0,0-3.159,2.517l-4.764,5.489a3.275,3.275,0,0,1-1.369,1.136.816.816,0,0,1-.726-.257,2.1,2.1,0,0,1-.657-1.648,8.263,8.263,0,0,1,1.769-4.345l-1.953-1.76a10.942,10.942,0,0,0-2.428,5.832,4.72,4.72,0,0,0,1.515,3.879,3.411,3.411,0,0,0,3.038.867,5.37,5.37,0,0,0,2.8-1.982l4.764-5.489a5.823,5.823,0,0,1,2.068-1.768c.49-.176,1.142-.042,1.267.262.2.49-.553,1.538-.836,1.932a67.437,67.437,0,0,0-7.6,13.571c-1.2,2.888-.9,5.2.824,6.349A3.463,3.463,0,0,0,4592.823,2890.833Z"/></g><path class="f" d="M4619.535,2878.778a14.87,14.87,0,1,0,14.87-14.869A14.87,14.87,0,0,0,4619.535,2878.778Z"/><path class="b" d="M4616.908,2878.779a17.5,17.5,0,1,1,17.5,17.5A17.517,17.517,0,0,1,4616.908,2878.779Zm5.255,0a12.242,12.242,0,1,0,12.242-12.243A12.255,12.255,0,0,0,4622.163,2878.779Z"/><g class="g"><path class="b" d="M4639.549,2893.231c.23-3.746,2.009-7.243,3.731-10.625a40.7,40.7,0,0,0,2.608-5.821,3.38,3.38,0,0,0-1.2-3.764,3.472,3.472,0,0,0-4.057-.15,29.171,29.171,0,0,0-6.3,6.409c-.557.7-1.1,1.384-1.656,2.032l-.177.209a7.361,7.361,0,0,1-2.049,1.906,1.518,1.518,0,0,1-1.714-.077c-.326-.393-.269-1.221.169-2.461a43.8,43.8,0,0,1,3.638-7.772c.849-1.432,2.431-4.1.632-6.374a4.12,4.12,0,0,0-4.164-1.347c-1.539.349-6.258,1.813-7.72,3.9l2.15,1.511c.67-.954,3.913-2.336,6.149-2.843a1.527,1.527,0,0,1,1.522.412c.567.717.1,1.835-.829,3.4a46.761,46.761,0,0,0-3.857,8.24c-.5,1.4-1.006,3.453.287,5.011a4.048,4.048,0,0,0,4.924.745,9.525,9.525,0,0,0,2.866-2.552l.174-.205c.567-.668,1.133-1.375,1.707-2.091a27.3,27.3,0,0,1,5.689-5.856.863.863,0,0,1,1.024.044.753.753,0,0,1,.285.87,39.325,39.325,0,0,1-2.448,5.433c-1.758,3.453-3.751,7.366-4.012,11.656Z"/></g><rect class="b" width="8.342" height="5.255" transform="translate(4611.227 2875.161)"/><path class="d" d="M4666.377,2909.1h-26.006a6.579,6.579,0,0,0-5.264,2.631l-4.535,6.043a14.909,14.909,0,0,1-11.926,5.962h-.467a14.91,14.91,0,0,1-14.383-10.979h0a6.581,6.581,0,0,0-6.348-4.846h-6.111c6.542,21.974,17.876,38.421,29.427,36.059C4631.833,2941.71,4654.154,2933.079,4666.377,2909.1Z"/><path class="d" d="M4617.287,2900.429h-16.915a11.621,11.621,0,0,0-11.62,11.621h16.914a11.621,11.621,0,0,0,11.621-11.621Z"/><path class="d" d="M4614.342,2900.429h21.325a11.621,11.621,0,0,1,11.62,11.621h-21.324a11.621,11.621,0,0,1-11.621-11.621Z"/><path class="d" d="M4659.567,2902.963l-4.737,11.344,8.677-.147c1.041-1.666,2.039-3.407,2.97-5.249a62.731,62.731,0,0,0,5.234-14.746A14.39,14.39,0,0,0,4659.567,2902.963Z"/><path class="c" d="M4560.685,2996.681h0a7.254,7.254,0,0,0,8.6,3.7l24.57-7.453a5.759,5.759,0,0,0,3.482-8.082h0a5.76,5.76,0,0,0-6.174-3.1l-25.269,4.551A7.254,7.254,0,0,0,4560.685,2996.681Z"/><path class="e" d="M4574.9,2975.508h0a6.659,6.659,0,0,0-6.565,5.544l-3.945,23.234a5.286,5.286,0,0,0,5.212,6.171h0a5.285,5.285,0,0,0,5.073-3.8l6.615-22.62A6.658,6.658,0,0,0,4574.9,2975.508Z"/><path class="e" d="M4554.768,2972.793h0a6.909,6.909,0,0,0-6.813,5.765l-4.755,28.3a5.414,5.414,0,0,0,5.34,6.312h0a5.414,5.414,0,0,0,5.218-3.968l7.668-27.656A6.909,6.909,0,0,0,4554.768,2972.793Z"/><path class="e" d="M4565.287,2972.793h0a6.909,6.909,0,0,0-6.813,5.765l-4.756,28.3a5.415,5.415,0,0,0,5.34,6.312h0a5.416,5.416,0,0,0,5.219-3.968l7.668-27.656A6.909,6.909,0,0,0,4565.287,2972.793Z"/><path class="e" d="M4546,2975.847h0a6.271,6.271,0,0,0-6.182,5.221l-3.716,21.881a4.978,4.978,0,0,0,4.908,5.812h0a4.98,4.98,0,0,0,4.778-3.581l6.23-21.3A6.271,6.271,0,0,0,4546,2975.847Z"/><path class="c" d="M4709.225,2996.681h0a7.253,7.253,0,0,1-8.6,3.7l-24.57-7.453a5.758,5.758,0,0,1-3.482-8.082h0a5.759,5.759,0,0,1,6.174-3.1l25.269,4.551A7.255,7.255,0,0,1,4709.225,2996.681Z"/><path class="e" d="M4695.009,2975.508h0a6.658,6.658,0,0,1,6.564,5.544l3.946,23.234a5.286,5.286,0,0,1-5.212,6.171h0a5.285,5.285,0,0,1-5.073-3.8l-6.616-22.62A6.658,6.658,0,0,1,4695.009,2975.508Z"/><path class="e" d="M4715.141,2972.793h0a6.91,6.91,0,0,1,6.814,5.765l4.755,28.3a5.415,5.415,0,0,1-5.34,6.312h0a5.415,5.415,0,0,1-5.218-3.968l-7.668-27.656A6.91,6.91,0,0,1,4715.141,2972.793Z"/><path class="e" d="M4704.623,2972.793h0a6.909,6.909,0,0,1,6.813,5.765l4.756,28.3a5.416,5.416,0,0,1-5.341,6.312h0a5.415,5.415,0,0,1-5.218-3.968l-7.668-27.656A6.91,6.91,0,0,1,4704.623,2972.793Z"/><path class="e" d="M4723.913,2975.847h0a6.271,6.271,0,0,1,6.182,5.221l3.716,21.881a4.979,4.979,0,0,1-4.908,5.812h0a4.98,4.98,0,0,1-4.779-3.581l-6.229-21.3A6.271,6.271,0,0,1,4723.913,2975.847Z"/></g></svg>