<svg xmlns="http://www.w3.org/2000/svg" width="139.213" height="139.214" viewBox="0 0 139.213 139.214"><defs><style>.a{fill:#009bdb;}</style></defs><g transform="translate(-4809.084 -4143.883)"><path class="a" d="M4829.476,4283.1H4927.9A20.416,20.416,0,0,0,4948.3,4262.7v-98.428a20.416,20.416,0,0,0-20.392-20.393h-98.429a20.416,20.416,0,0,0-20.392,20.393V4262.7A20.416,20.416,0,0,0,4829.476,4283.1Zm-12.235-118.821a12.249,12.249,0,0,1,12.235-12.236H4927.9a12.25,12.25,0,0,1,12.235,12.236V4262.7a12.25,12.25,0,0,1-12.235,12.236h-98.429a12.249,12.249,0,0,1-12.235-12.236Z"/><path class="a" d="M4878.69,4250.2a36.707,36.707,0,1,0-36.706-36.707A36.749,36.749,0,0,0,4878.69,4250.2Zm0-65.257a28.55,28.55,0,1,1-28.549,28.55A28.582,28.582,0,0,1,4878.69,4184.94Z"/><path class="a" d="M4919.476,4184.94a12.235,12.235,0,1,0-12.236-12.235A12.249,12.249,0,0,0,4919.476,4184.94Zm0-16.314a4.079,4.079,0,1,1-4.079,4.079A4.084,4.084,0,0,1,4919.476,4168.626Z"/></g></svg>