<svg xmlns="http://www.w3.org/2000/svg" width="244.383" height="98.129" viewBox="0 0 244.383 98.129"><defs><style>.a{fill:#290063;}</style></defs><g transform="translate(-65 -6478.266)"><g transform="translate(65 6478.266)"><path class="a" d="M-1312.41,265.455q15.906-1.98,21.519,6.6,4.266,4.9,4.267,12.64V285.8q0,16.186-17.624,23.714a50.384,50.384,0,0,1-10.574,2.43l-9.554,1.189v18.737l-17.995,2.24V269.185Zm-11.966,16.7v15.583l8.441-1.051q8.719-1.086,10.018-3.288a10.052,10.052,0,0,0,1.484-5.194q0-8.533-10.945-7.171Z" transform="translate(1342.37 -244.408)"/><path class="a" d="M-993.3,322l17.438-2.171v24.395q0,6.911,4.823,7.933a9.532,9.532,0,0,0,1.67-.022l1.113-.139q4.915-.612,6.493-6.559a6.836,6.836,0,0,0,.186-1.693V318.05l17.624-2.194V363.44l-17.624,2.194v-6.493q-6.308,8.392-14.284,9.384l-1.3.162q-11.456,1.426-15.4-9.585a29.2,29.2,0,0,1-.742-6.215Z" transform="translate(1051.014 -286.785)"/><path class="a" d="M-673.113,259.835V194.906l18.551-2.31v64.929Z" transform="translate(783.773 -183.907)"/><path class="a" d="M-507.355,264.644a24.094,24.094,0,0,1,8.9.561q12.985,4.922,12.986,19.717v.557a26.822,26.822,0,0,1-3.153,12.822q-6.817,11.238-17.809,12.606l-2.412.3a15.554,15.554,0,0,1-11.223-3.055V337.3l-18.552,2.31V308.978l.047-39.241,18.6-2.315v3.247l.185-.023a21.375,21.375,0,0,1,12.429-6m2.226,21.428a10.976,10.976,0,0,0-.928-4.151q-1.67-3.688-6.678-3.064a10.5,10.5,0,0,1-1.855.417q-5.937,1.852-5.937,9.087.185,6.98,1.3,7.815,0,2.366,5.937,2.229l1.113-.139a13.929,13.929,0,0,0,3.34-.972q3.71-2.92,3.71-9.737Z" transform="translate(671.513 -243.888)"/><path class="a" d="M-181.986,224.9q19.525-2.431,24.859,17.126a39.841,39.841,0,0,1,.927,9.392v.881l-34.134,4.25v.186a7.9,7.9,0,0,0,4.452,4.779,10.4,10.4,0,0,0,5.194.791l.649-.081q3.246-.4,6.215-4.484l16.7-2.079v.185q-9.23,17.382-23.375,19.142-13.172,1.64-20.221-5.3a21.991,21.991,0,0,1-7.049-16.166,27.285,27.285,0,0,1,7.42-18.9,29.693,29.693,0,0,1,18.366-9.73m-8.533,20.727,17.067-2.125v-.139q0-1.948-2.783-3.874a10.617,10.617,0,0,0-5.194-.652q-7.56.941-9.09,6.79" transform="translate(395.374 -210.648)"/><path class="a" d="M-975.448,140.041v22.577l13.085-1.629v7.355l-21.38,2.662V141.073Z" transform="translate(1043.041 -140.041)"/><path class="a" d="M-845.832,185.218a11.107,11.107,0,0,1-4.1-.259q-5.987-2.27-5.987-10.159v-.256a12.365,12.365,0,0,1,1.454-5.911q3.143-5.18,8.21-5.811l1.112-.139a7.173,7.173,0,0,1,5.174,1.408v-1.967l8.552-1.065-.021,21.81-8.574,1.067v-1.5l-.086.011a9.854,9.854,0,0,1-5.73,2.766m-1.026-10.947a8.132,8.132,0,0,0,.427,2.983q.77,1.7,3.079,1.413a4.87,4.87,0,0,1,.855-.192q2.736-.875,2.737-5.258-.086-3.217-.6-3.6,0-1.09-2.737-1.028l-.513.064a6.4,6.4,0,0,0-1.539.448q-1.711,1.347-1.71,4.489Z" transform="translate(936.355 -157.585)"/><path class="a" d="M-671.527,701.441-689,703.616a1.761,1.761,0,0,0-1.506,1.693v.1A1.3,1.3,0,0,0-689,706.723l17.468-2.175a1.761,1.761,0,0,0,1.506-1.693v-.1a1.3,1.3,0,0,0-1.506-1.318" transform="translate(798.285 -608.606)"/><path class="a" d="M-729.25,664.144l-28.8,3.586a1.817,1.817,0,0,0-1.553,1.747,1.346,1.346,0,0,0,1.553,1.36l28.8-3.586A1.817,1.817,0,0,0-727.7,665.5a1.346,1.346,0,0,0-1.553-1.36" transform="translate(855.961 -577.475)"/><path class="a" d="M-651.774,629.2l-13.885,1.729a1.585,1.585,0,0,0-1.356,1.524v.4a1.175,1.175,0,0,0,1.356,1.187l13.885-1.729a1.585,1.585,0,0,0,1.355-1.524v-.4a1.174,1.174,0,0,0-1.355-1.187" transform="translate(778.682 -548.314)"/><path class="a" d="M-388.86,601.27a6.242,6.242,0,0,0-3.062-1.954,10.476,10.476,0,0,0-4.372-.261l-8.064,1.057-.15,15.935,8.4-1.074a11.332,11.332,0,0,0,4.934-1.758,8.421,8.421,0,0,0,3.081-3.6,9.01,9.01,0,0,0,.646-4.922,6.466,6.466,0,0,0-1.416-3.418m-4.586,7.862a4.029,4.029,0,0,1-3.006,1.694l-2.465.315-.249-7.569,2.795-.318a3.6,3.6,0,0,1,2.526.429,2.679,2.679,0,0,1,1.109,2,4.865,4.865,0,0,1-.709,3.45" transform="translate(559.581 -523.065)"/><path class="a" d="M-299.345,604.326l5.288-.676,1.133-16.086-5.288.676Z" transform="translate(471.806 -513.567)"/><path class="a" d="M-248.35,589.534a5.338,5.338,0,0,1-1.518.422,3.64,3.64,0,0,1-2.639-.517,2.9,2.9,0,0,1-1.2-2.112,5.459,5.459,0,0,1,.233-2.546,4.073,4.073,0,0,1,1.352-1.892,4.624,4.624,0,0,1,2.309-.91,4.769,4.769,0,0,1,2.044.137,4.454,4.454,0,0,1,1.761,1.13l3.412-3.42q-2.633-2.783-7.518-2.159a11.211,11.211,0,0,0-5.09,1.869,8.929,8.929,0,0,0-3.138,3.783,9.341,9.341,0,0,0-.656,5.026,6.783,6.783,0,0,0,1.464,3.525,6.73,6.73,0,0,0,3.14,2.116,9.655,9.655,0,0,0,4.337.345,12.3,12.3,0,0,0,3.423-.927,9.682,9.682,0,0,0,2.7-1.746l.48-6.939-4.594.587Z" transform="translate(438.208 -505.212)"/><path class="a" d="M-160.116,570.594l-1.133,16.086,5.288-.676,1.133-16.086Z" transform="translate(356.543 -498.839)"/><path class="a" d="M-106.16,558.541l-14.113,1.85-.305,4.206,4.231-.587-.828,11.88,5.288-.676.828-11.88,4.594-.587Z" transform="translate(322.597 -489.344)"/><path class="a" d="M-29.542,553.658l.828-11.88-5.289.676-1.088,15.456-5.5-14.614-5.2.664-7.99,16.963,5.58-.713,1.219-2.934,5.983-.764.864,2.668,5.266-.673,12.1-1.546.305-4.207Zm-15.751-.47,1.8-4.306,1.274,3.914Z" transform="translate(266.844 -475.352)"/></g></g></svg>