<svg xmlns="http://www.w3.org/2000/svg" width="139.213" height="139.214" viewBox="0 0 139.213 139.214"><defs><style>.a{fill:#009bdb;}</style></defs><g transform="translate(-4622.215 -4143.747)"><path class="a" d="M4642.607,4282.961h45.408v-49.486H4671.7v-16.314h16.314v-20.393a20.416,20.416,0,0,1,20.392-20.393H4728.8v16.315h-16.314a8.166,8.166,0,0,0-8.157,8.157v16.314h23.735l-2.719,16.314h-21.016v49.486h36.707a20.416,20.416,0,0,0,20.392-20.393V4164.14a20.416,20.416,0,0,0-20.392-20.393h-98.429a20.416,20.416,0,0,0-20.392,20.393v98.428A20.416,20.416,0,0,0,4642.607,4282.961Zm-12.235-118.821a12.25,12.25,0,0,1,12.235-12.236h98.429a12.25,12.25,0,0,1,12.235,12.236v98.428a12.25,12.25,0,0,1-12.235,12.236h-28.55v-33.172h19.769l5.438-32.628h-25.207v-8.157h24.471v-32.629h-28.55a28.582,28.582,0,0,0-28.549,28.55V4209h-16.314v32.628h16.314V4274.8h-37.251a12.25,12.25,0,0,1-12.235-12.236Z"/></g></svg>