<svg xmlns="http://www.w3.org/2000/svg" width="243.166" height="383.032" viewBox="0 0 243.166 383.032"><defs><style>.a{fill:#f7c0a0;}.b{fill:#f58030;}.c{fill:#004f9b;}.d{fill:#00aaef;}.e{fill:#ffcb30;}.f{fill:#fea431;}.g{fill:#fff;}.h{fill:#bf595d;}.i{fill:#08257d;}.j{fill:#1d4f9e;}</style></defs><g transform="translate(-4187.836 -4360.636)"><path class="a" d="M4338.811,4657.221l23.506-5.921,23.191,11.349v6.375h-52.282a3.009,3.009,0,0,1-1.966-5.287Z"/><path class="b" d="M4352.33,4568.538l-41.848,49.475a23.1,23.1,0,0,1-34.944.392h0a12.858,12.858,0,0,1,.865-17.93l62.632-46.444Z"/><path class="a" d="M4343.551,4561.241l6.431,6.474,7.929-5.947-11.1-8.92Z"/><rect class="c" width="32.771" height="64.827" rx="2.834" transform="translate(4379.814 4569.633) rotate(180)"/><rect class="d" width="56.789" height="24.734" rx="0.824" transform="translate(4375.794 4508.825) rotate(90)"/><rect class="c" width="13.245" height="1.394" transform="translate(4369.969 4518.404) rotate(180)"/><rect class="c" width="17.95" height="1.394" transform="translate(4372.322 4524.417) rotate(180)"/><path class="a" d="M4339.264,4551.589l1.455-10.975a6.355,6.355,0,0,1,3.656-4.945l14.074-6.444a2.605,2.605,0,0,1,3.6,1.706h0a2.606,2.606,0,0,1-.851,2.664l-10.342,8.315c2.9,9.619-.192,15.3-7.309,19.331l-1.168-1.071A9.876,9.876,0,0,1,4339.264,4551.589Z"/><path class="a" d="M4376.789,4540.961h7.138v-.846a6.412,6.412,0,0,0-6.412-6.413h-.726a3.63,3.63,0,0,0-3.63,3.63h0A3.629,3.629,0,0,0,4376.789,4540.961Z"/><path class="a" d="M4376.789,4548.221h7.138v-7.26h-7.138a3.63,3.63,0,0,0-3.63,3.63h0A3.63,3.63,0,0,0,4376.789,4548.221Z"/><path class="a" d="M4376.789,4555.48h7.138v-7.259h-7.138a3.63,3.63,0,0,0-3.63,3.63h0A3.629,3.629,0,0,0,4376.789,4555.48Z"/><path class="a" d="M4378.511,4561.241h-1a6.412,6.412,0,0,0,6.412-6.413h-5.416a3.206,3.206,0,0,0-3.206,3.206h0A3.206,3.206,0,0,0,4378.511,4561.241Z"/><path class="c" d="M4220.953,4539.387l46.173,75.938,15.182,11.94"/><path class="e" d="M4281.545,4486.676l3.355,3.986a74.88,74.88,0,0,1,15.2,67.21c-12.186,46.4-20.89,76.049-21.393,107.263l-90.866,20.756v-64.107c0-45.991.674-78.169,23.407-113.615,18-28.071,44.176-31.685,47.847-30.5Z"/><path class="f" d="M4266.032,4518.8l10.867,69.185,77.47,64.938-24.677,16.051c-31.049-23.371-68.493-37.219-87.123-65.054l-18.135-76.964a21.21,21.21,0,0,1,19.078-26.017h0A21.211,21.211,0,0,1,4266.032,4518.8Z"/><circle class="g" cx="3.512" cy="3.512" r="3.512" transform="translate(4287.882 4550.064)"/><path class="g" d="M4298.418,4533.593a3.512,3.512,0,1,1-3.512-3.512A3.511,3.511,0,0,1,4298.418,4533.593Z"/><path class="c" d="M4332.132,4443.314c18.694-.916,32.493-12.731,29.624-18.9-2.213-4.759-18.153,5.979-19.092-5.327Z"/><path class="a" d="M4346.432,4423.785l-4.86,8.138a97.316,97.316,0,0,0-13.093,38.471h0a4.068,4.068,0,0,1-4.825,3.514l-4.118-.808c-1.714,1.486-2.21,4.173-2.236,7.324a1.579,1.579,0,0,1-1.57,1.573c-9.435.016-14.123-2.517-19.161-9.607-.8,8.838,6.971,12.95,13.286,15.48a2.229,2.229,0,0,1,1.047,3.29l-5.046,7.717a8.7,8.7,0,0,1-12.9,1.908,48.879,48.879,0,0,0-10.6-6.681l-.739,8.236a5.577,5.577,0,0,1-9.083,3.813,81.2,81.2,0,0,0-15.874-9.869,11.306,11.306,0,0,1-5.489-14.621l5.143-12.079,2.954-57.619Z"/><path class="c" d="M4297.775,4414.485c5.417,8.865-1.954,25.845-12.435,27.934a15.309,15.309,0,0,1-4.885.116c-11.293-1.41-18.83-12.409-16.567-23.563l2.738-13.49Z"/><path class="c" d="M4340.824,4433.2c13.3-3.554,24.626-20.3,23.148-34.089s-15.76-33-25.609-36.937-14.283.493-13.3,4.433,3.94,9.85,2.955,15.267c-7.88-8.865-40.384-16.745-57.129-8.865s-19.208,26.1-19.7,35.952,5.119,60.627,5.119,60.627,10.406-10.746,10.641-21.32c.328-14.775,6.716-26.161,16.745-28.472,24.476-5.64,37.978,19.832,57.128,13.4"/><path class="c" d="M4261.8,4416.033a35.64,35.64,0,0,0-1.5-7.53,4.618,4.618,0,0,1-4.779-.044,13.6,13.6,0,0,1-3.657-3.421l-.037-.045a2.473,2.473,0,0,0-4.371,1.733,15.83,15.83,0,0,0,1.061,4.612,18.225,18.225,0,0,0,1.813,3.409c1.956,2.922,5.156,5.518,8.637,5.027a3.293,3.293,0,0,0,2.649-1.694A4.174,4.174,0,0,0,4261.8,4416.033Z"/><path class="c" d="M4341.056,4434.06l-.462-1.727c4.923-1.316,9.876-4.644,13.947-9.372l1.357,1.167C4351.592,4429.126,4346.32,4432.653,4341.056,4434.06Z"/><path class="g" d="M4310.289,4442.1a1.41,1.41,0,0,1-.673-.171l-21.713-11.768-23.923,2.445a1.416,1.416,0,0,1-.288-2.817l24.792-2.534,22.481,12.185a1.416,1.416,0,0,1-.676,2.66Z"/><path class="c" d="M4332.533,4386.452c-7.96-14.64-19.35-23.018-25.634-22.98-3.529.021,4.725,18.042,0,19.419Z"/><path class="g" d="M4319.263,4461.172a12.907,12.907,0,1,1,12.907-12.907A12.922,12.922,0,0,1,4319.263,4461.172Zm0-22.983a10.076,10.076,0,1,0,10.076,10.076A10.089,10.089,0,0,0,4319.263,4438.189Z"/><path class="c" d="M4318.827,4445.459a4.262,4.262,0,0,1,4.049,5.612l-8.185-2.381A4.266,4.266,0,0,1,4318.827,4445.459Z"/><path class="a" d="M4280.9,4430.091h0a10.875,10.875,0,0,0-14.793,7.4h0a10.875,10.875,0,0,0,3.96,11.265l4.45,3.394,6.975-20.741A1.061,1.061,0,0,0,4280.9,4430.091Z"/><path class="h" d="M4270.762,4450.177l-1.128-.86a11.577,11.577,0,0,1-4.218-12l1.374.341a10.162,10.162,0,0,0,3.7,10.533l1.127.859Z"/><path class="h" d="M4272.333,4441.975a.706.706,0,0,1-.631-.387,4.587,4.587,0,0,1-.406-1.6,4.156,4.156,0,0,1,.2-2.234,2.566,2.566,0,0,1,4.831,1.664.708.708,0,1,1-1.376-.333,1.15,1.15,0,0,0-2.166-.745,2.949,2.949,0,0,0-.083,1.486,3.377,3.377,0,0,0,.262,1.117.708.708,0,0,1-.631,1.029Z"/><path class="i" d="M4328.341,4397.387l-1.617-.764c2.763-5.851,1.74-10.835-.647-16.516l1.648-.692C4329.951,4384.712,4331.568,4390.557,4328.341,4397.387Z"/><path class="i" d="M4303.576,4409.912l-1.424-1.079a11.48,11.48,0,0,0,2.463-8.765l1.76-.311A13.25,13.25,0,0,1,4303.576,4409.912Z"/><path class="i" d="M4266.379,4423.327l-.1-5.377a16.946,16.946,0,0,1,8.485-15l.891,1.549a15.166,15.166,0,0,0-7.589,13.413l.1,5.376Z"/><path class="h" d="M4282.352,4494.813a.7.7,0,0,1-.5-.208c-3.729-3.75-10.1-12.232-10.37-12.591a.708.708,0,0,1,1.133-.85c.065.087,6.581,8.762,10.241,12.442a.708.708,0,0,1-.5,1.207Z"/><path class="j" d="M4278.7,4665.135l116.123,4.369a24.328,24.328,0,0,1,23.413,24.31h0a24.324,24.324,0,0,1-19.681,23.879c-39.652,7.719-127.672,24.237-154.682,24.237h0a56.039,56.039,0,0,1-56.039-56.039h0Z"/><path class="c" d="M4330.177,4727.187h0a16.482,16.482,0,0,1,16.481-16.481h16.4l49.814-7.511a15.768,15.768,0,0,1,17.36,20.421l-.7,2.16a25.793,25.793,0,0,1-24.554,17.892h-58.319A16.481,16.481,0,0,1,4330.177,4727.187Z"/></g></svg>