<svg xmlns="http://www.w3.org/2000/svg" width="301.183" height="26.538" viewBox="0 0 301.183 26.538"><defs><style>.a{fill:#ffa900;}.b{fill:#e6061c;}.c{fill:#6fbd8c;}.d{fill:#00387e;}.e{fill:#ffe755;}.f{fill:#634b99;}</style></defs><g transform="translate(-4516.275 -4561.925)"><path class="a" d="M4540.106,4588.463a2.7,2.7,0,0,1-1.914-.793l-21.125-21.124a2.707,2.707,0,0,1,3.828-3.829l19.211,19.212,19.211-19.212a2.707,2.707,0,1,1,3.828,3.829l-21.125,21.124A2.7,2.7,0,0,1,4540.106,4588.463Z"/><path class="b" d="M4589.992,4588.463a2.7,2.7,0,0,1-1.914-.793l-21.125-21.124a2.707,2.707,0,1,1,3.828-3.829l19.211,19.212,19.211-19.212a2.707,2.707,0,0,1,3.828,3.829l-21.125,21.124A2.7,2.7,0,0,1,4589.992,4588.463Z"/><path class="c" d="M4639.877,4588.463a2.7,2.7,0,0,1-1.914-.793l-21.124-21.124a2.707,2.707,0,0,1,3.828-3.829l19.21,19.212,19.211-19.212a2.707,2.707,0,1,1,3.828,3.829l-21.125,21.124A2.7,2.7,0,0,1,4639.877,4588.463Z"/><path class="d" d="M4689.763,4588.463a2.7,2.7,0,0,1-1.914-.793l-21.125-21.124a2.707,2.707,0,1,1,3.828-3.829l19.211,19.212,19.211-19.212a2.707,2.707,0,0,1,3.828,3.829l-21.125,21.124A2.7,2.7,0,0,1,4689.763,4588.463Z"/><path class="e" d="M4741.695,4588.463a2.7,2.7,0,0,1-1.914-.793l-21.125-21.124a2.707,2.707,0,0,1,3.828-3.829l19.211,19.212,19.211-19.212a2.707,2.707,0,1,1,3.828,3.829l-21.125,21.124A2.7,2.7,0,0,1,4741.695,4588.463Z"/><path class="f" d="M4793.627,4588.463a2.7,2.7,0,0,1-1.915-.793l-21.125-21.124a2.707,2.707,0,0,1,3.828-3.829l19.212,19.212,19.21-19.212a2.707,2.707,0,1,1,3.828,3.829l-21.124,21.124A2.7,2.7,0,0,1,4793.627,4588.463Z"/></g></svg>