<svg xmlns="http://www.w3.org/2000/svg" xmlns:xlink="http://www.w3.org/1999/xlink" width="815.142" height="574.683" viewBox="0 0 815.142 574.683"><defs><style>.a{fill:#182262;}.b{fill:#8fd4f6;}.c{fill:#ffcb30;}.aa,.ab,.ac,.ae,.ai,.ak,.d,.f,.h,.i,.k,.m,.o,.q,.u,.v,.w,.y{fill:none;stroke-miterlimit:10;}.d{stroke:#f78630;}.ak,.d,.k{stroke-width:3.016px;}.e{fill:#ffb131;}.f{stroke:#fff;}.aa,.ab,.ac,.f,.h,.o,.q,.w{stroke-width:1.508px;}.g{fill:#008fc3;}.h{stroke:#00528e;}.i{stroke:#1a1718;}.ai,.i,.y{stroke-width:0.754px;}.j{fill:#fbefe6;}.k,.m{stroke:#e4b797;}.l{fill:#fff;}.m{stroke-width:2.262px;}.n{fill:#111745;}.o{stroke:#008fc3;}.p{fill:#00528e;}.q,.y{stroke:#8ed3f5;}.r{fill:#f27f74;}.s{fill:#ef6254;}.t{fill:#e6061c;}.ac,.u,.w{stroke:#182262;}.ae,.u{stroke-width:1.542px;}.v{stroke:#e61f4c;stroke-width:1.749px;}.x{fill:#e20c71;}.z{fill:#e3f3fc;}.aa{stroke:#a11333;}.ab{stroke:#ef6253;}.ab,.ac{stroke-linecap:round;}.ad{clip-path:url(#a);}.ae{stroke:#111745;}.af{clip-path:url(#b);}.ag{fill:#fffdfa;}.ah{fill:#ee9eaf;}.ai,.ak{stroke:#fbefe6;}.aj{fill:#8ed3f5;}</style><clipPath id="a"><path class="a" d="M9543.979,4674.195l10.522-18.926c39.784,19.289,77.4,50.466,100.365,88.093,23.937-10.77,62.364-21.694,92.528-26.006l6.431-4.241a49.129,49.129,0,0,1,53.921-.123l9.285,6.064V4773.2H9644a8.829,8.829,0,0,1-6.33-2.674Z"/></clipPath><clipPath id="b"><rect class="b" width="185.36" height="91.239" transform="translate(9706.097 4773.199)"/></clipPath></defs><g transform="translate(-9448.282 -4350.192)"><path class="c" d="M10238.714,4647.729h-121.765l15.452-132.667h90.86Z"/><line class="d" x2="117.001" transform="translate(10120.19 4627.386)"/><path class="c" d="M10198.706,4627.38h-39.94l7.553-112.319h24.835Z"/><path class="e" d="M10215.466,4647.729l34.264,275.317h-7.157l-39.377-275.317Z"/><path class="e" d="M10183.829,4647.729h-7.158l4.6,275.317h5.112l4.6-275.317Z"/><path class="c" d="M9645.148,4686.522a36.18,36.18,0,0,1-4.259-32.416,88.9,88.9,0,0,0,4.915-29.322,86.5,86.5,0,0,0-16.588-51.5,45.652,45.652,0,0,1-8.872-28.248q.019-.76.019-1.524c0-30.909-21.411-55.965-47.824-55.965s-47.823,25.056-47.823,55.965c0,.51,0,1.018.018,1.524a45.64,45.64,0,0,1-8.872,28.248,86.5,86.5,0,0,0-16.587,51.5,88.9,88.9,0,0,0,4.915,29.322,36.18,36.18,0,0,1-4.26,32.416,101.6,101.6,0,0,0-17.645,57.678c0,53.629,40.408,97.1,90.254,97.1s90.255-43.474,90.255-97.1A101.6,101.6,0,0,0,9645.148,4686.522Z"/><path class="e" d="M9572.539,4546.826l-5.309,292.367,5.309,4.222,5.31-4.222Z"/><path class="e" d="M9572.539,4695.12l46.721-60.162-45.658,65.967Z"/><path class="e" d="M9572.539,4761.615l-51.5-54.885,50.437,60.162Z"/><rect class="c" width="110.429" height="16.888" transform="translate(9517.324 4823.097)"/><path class="c" d="M9606.518,4923.368h-67.956l-13.809-83.383h95.572Z"/><line class="f" x2="4.772" y2="37.703" transform="translate(9536.719 4846.69)"/><line class="f" x2="0.754" y2="7.541" transform="translate(9542.244 4890.425)"/><path class="g" d="M10183.34,4774.555l-34.915-166.033a77.379,77.379,0,0,0-75.723-61.455H9905.963a23.729,23.729,0,0,0-23.729,23.728v203.76Z"/><path class="g" d="M9581.129,4774.555l34.915-166.033a77.378,77.378,0,0,1,75.723-61.455h166.739a23.728,23.728,0,0,1,23.729,23.728v203.76Z"/><circle class="h" cx="7.412" cy="7.412" r="7.412" transform="translate(9699.004 4598.074) rotate(-45)"/><circle class="h" cx="7.412" cy="7.412" r="7.412" transform="matrix(0.973, -0.23, 0.23, 0.973, 9761.207, 4592.563)"/><circle class="h" cx="7.412" cy="7.412" r="7.412" transform="translate(9700.569 4648.36) rotate(-13.283)"/><circle class="h" cx="7.412" cy="7.412" r="7.412" transform="translate(9759.642 4653.871) rotate(-45)"/><circle class="h" cx="7.412" cy="7.412" r="7.412" transform="translate(9822.258 4591.945) rotate(-9.217)"/><circle class="h" cx="7.412" cy="7.412" r="7.412" transform="translate(10046.066 4603.584) rotate(-76.718)"/><circle class="h" cx="7.412" cy="7.412" r="7.412" transform="translate(9985.842 4604.203) rotate(-80.783)"/><circle class="h" cx="7.412" cy="7.412" r="7.412" transform="translate(10044.501 4653.871) rotate(-45)"/><circle class="h" cx="7.412" cy="7.412" r="7.412" transform="matrix(0.924, -0.383, 0.383, 0.924, 9984.661, 4649.859)"/><circle class="h" cx="7.412" cy="7.412" r="7.412" transform="translate(9923.226 4598.074) rotate(-45)"/><rect class="i" width="64.997" height="17.631" transform="translate(10049.396 4835.585)"/><path class="e" d="M9756.5,4389l-11.993,26.04-.927,2.01a2.472,2.472,0,1,1-4.492-2.067l1.328-2.879,11.6-25.172Z"/><path class="e" d="M9774.387,4418.259a2.468,2.468,0,0,1-3.274-1.213l-.928-2.01-12-26.04,4.493-2.068,11.592,25.167,1.327,2.884A2.475,2.475,0,0,1,9774.387,4418.259Z"/><path class="c" d="M9774.229,4357.01h0a1.15,1.15,0,0,1,.563,1.524l-6.007,13.038-2.087-.962,6.007-13.038A1.149,1.149,0,0,1,9774.229,4357.01Z"/><path class="j" d="M0,0H20.227a0,0,0,0,1,0,0V.689A8.571,8.571,0,0,1,11.656,9.26H8.57A8.57,8.57,0,0,1,0,.69V0A0,0,0,0,1,0,0Z" transform="translate(9778.269 4372.414) rotate(-155.266)"/><path class="c" d="M9740.461,4357.01h0a1.147,1.147,0,0,0-.562,1.524l6.006,13.038,2.087-.962-6.006-13.038A1.15,1.15,0,0,0,9740.461,4357.01Z"/><path class="j" d="M8.569,0h3.087a8.571,8.571,0,0,1,8.571,8.571V9.26a0,0,0,0,1,0,0H0a0,0,0,0,1,0,0V8.569A8.569,8.569,0,0,1,8.569,0Z" transform="translate(9732.547 4364.003) rotate(-24.735)"/><circle class="c" cx="24.481" cy="24.481" r="24.481" transform="translate(9727.895 4372.341) rotate(-13.282)"/><circle class="j" cx="18.729" cy="18.729" r="18.729" transform="translate(9734.814 4376.618) rotate(-13.283)"/><path class="e" d="M9739.662,4360.634a.708.708,0,0,1-.3-1.351l3.313-1.526,1.416-4.558a4.4,4.4,0,0,1,4.17-3.006h9.081a.708.708,0,1,1,0,1.415h-9.081a2.978,2.978,0,0,0-2.823,2.027l-1.6,5.144-3.886,1.79A.706.706,0,0,1,9739.662,4360.634Z"/><path class="e" d="M9775.029,4360.634a.707.707,0,0,1-.3-.065l-3.886-1.79-1.6-5.16a2.973,2.973,0,0,0-2.818-2.011h-9.082a.708.708,0,0,1,0-1.415h9.082a4.391,4.391,0,0,1,4.165,2.989l1.421,4.575,3.313,1.526a.708.708,0,0,1-.3,1.351Z"/><path class="e" d="M9757.346,4380.882l-.926,3.146.556,5.274h.74l.555-5.274Z"/><path class="e" d="M9741.542,4390.542l8.04.966,7.282-.58v-.772l-7.282-.579Z"/><circle class="e" cx="1.638" cy="1.638" r="1.638" transform="translate(9755.707 4388.905)"/><rect class="c" width="14.38" height="60.199" transform="translate(9619.772 4358.287)"/><line class="k" x1="14.38" transform="translate(9619.772 4368.96)"/><rect class="c" width="14.38" height="60.199" transform="translate(9634.152 4358.287)"/><line class="c" x1="14.38" transform="translate(9634.152 4368.96)"/><rect class="c" width="14.38" height="47.333" transform="translate(9648.532 4371.152)"/><line class="c" x1="14.38" transform="translate(9648.532 4399.5)"/><line class="c" x1="14.38" transform="translate(9648.532 4387.435)"/><rect class="c" width="14.38" height="51.437" transform="translate(9714.349 4404.105) rotate(90)"/><line class="c" x1="43.735" transform="translate(9670.613 4407.685)"/><line class="c" x1="23.726" transform="translate(9685.344 4410.311)"/><line class="c" x1="43.735" transform="translate(9663.828 4412.937)"/><line class="c" x1="43.735" transform="translate(9666.844 4415.563)"/><rect class="e" width="225.761" height="10.85" transform="translate(9600.398 4418.485)"/><rect class="e" width="93.519" height="10.85" transform="translate(9703.055 4501.683)"/><path class="e" d="M9736.827,4468.5h26.309l8.546,33.188h-26.309Z"/><path class="e" d="M9762.8,4468.5h-26.309l-8.546,33.188h26.309Z"/><path class="e" d="M9734.756,4496.4l5.828-22.631h15.407l-5.828,22.631Z"/><path class="e" d="M9754.045,4475.282l-5.051,19.614H9736.7l5.051-19.614h12.292m3.891-3.016h-18.521l-6.605,25.646h18.522l6.6-25.646Z"/><path class="e" d="M9638.063,4377.6a3.279,3.279,0,1,0,3.278-3.278A3.278,3.278,0,0,0,9638.063,4377.6Z"/><path class="e" d="M9623.683,4377.6a3.279,3.279,0,1,0,3.279-3.278A3.279,3.279,0,0,0,9623.683,4377.6Z"/><path class="l" d="M0,0H46.5a5,5,0,0,1,5,5V5a5,5,0,0,1-5,5H0a0,0,0,0,1,0,0V0A0,0,0,0,1,0,0Z" transform="translate(9707.894 4913.055)"/><path class="l" d="M9706.393,4892.3h-8.876a25.747,25.747,0,0,0-25.747,25.747h0a5,5,0,0,0,5,5h50.416v-9.954A20.788,20.788,0,0,0,9706.393,4892.3Z"/><path class="m" d="M9716.849,4923.046v-9.954a20.793,20.793,0,0,0-12.7-19.155"/><path class="l" d="M0,0H46.5a5,5,0,0,1,5,5V5a5,5,0,0,1-5,5H0a0,0,0,0,1,0,0V0A0,0,0,0,1,0,0Z" transform="translate(9778.137 4913.055)"/><path class="l" d="M9776.637,4892.3h-8.876a25.747,25.747,0,0,0-25.747,25.747h0a5,5,0,0,0,5,5h50.416v-9.954A20.788,20.788,0,0,0,9776.637,4892.3Z"/><path class="m" d="M9767.761,4892.3a25.747,25.747,0,0,0-25.747,25.747"/><path class="m" d="M9787.093,4923.046v-9.954a20.793,20.793,0,0,0-12.7-19.155"/><path class="n" d="M10164.188,4827.634l19.381,96.966h-20.27s-11.542-66.394-59.918-96.966Z"/><path class="n" d="M9600.281,4827.634,9580.9,4924.6h20.269s11.541-66.394,59.918-96.966Z"/><path class="b" d="M10163.231,4698.714a7.164,7.164,0,0,0-6.88-9.153h-98.161a7.164,7.164,0,0,0-6.88,9.153,119.2,119.2,0,0,1-.08,66.741,7.157,7.157,0,0,0,6.894,9.1h98.293a7.157,7.157,0,0,0,6.895-9.1A119.2,119.2,0,0,1,10163.231,4698.714Z"/><path class="o" d="M10146.173,4698.714c.916-4.584-1.467-9.153-4.782-9.153h-68.239c-3.315,0-5.7,4.569-4.782,9.153a169.711,169.711,0,0,1-.056,66.741c-.9,4.566,1.492,9.1,4.792,9.1h68.33c3.3,0,5.694-4.534,4.793-9.1A169.711,169.711,0,0,1,10146.173,4698.714Z"/><path class="o" d="M10120.222,4698.714c.306-4.584-.488-9.153-1.592-9.153h-22.718c-1.1,0-1.9,4.569-1.592,9.153a505.33,505.33,0,0,1-.02,66.741c-.3,4.566.5,9.1,1.6,9.1h22.747c1.1,0,1.9-4.534,1.6-9.1A505.5,505.5,0,0,1,10120.222,4698.714Z"/><path class="p" d="M0,0H635.986a0,0,0,0,1,0,0V33.786a21.842,21.842,0,0,1-21.842,21.842H21.842A21.842,21.842,0,0,1,0,33.786V0A0,0,0,0,1,0,0Z" transform="translate(9564.241 4773.175)"/><path class="g" d="M0,0H549.785a0,0,0,0,1,0,0V0a51.006,51.006,0,0,1-51.006,51.006H51.006A51.006,51.006,0,0,1,0,0V0A0,0,0,0,1,0,0Z" transform="translate(9607.342 4828.804)"/><rect class="p" width="95.395" height="118.046" rx="47.697" transform="translate(10124.896 4711.58)"/><path class="q" d="M10124.895,4781.93a47.7,47.7,0,0,0,47.7,47.7"/><path class="g" d="M10172.592,4741.729h0a23.333,23.333,0,0,0-23.333,23.334v11.081a23.334,23.334,0,0,0,23.333,23.334h0a23.333,23.333,0,0,0,23.334-23.334v-11.081A23.333,23.333,0,0,0,10172.592,4741.729Z"/><path class="q" d="M10172.592,4752.281h0a14.807,14.807,0,0,0-14.806,14.807v7.031a14.806,14.806,0,0,0,14.806,14.807h0a14.807,14.807,0,0,0,14.808-14.807v-7.031A14.808,14.808,0,0,0,10172.592,4752.281Z"/><rect class="r" width="20.796" height="23.509" transform="translate(9655.771 4604.031)"/><path class="r" d="M9545.459,4648.939l12.658,10.73-11.151,17.6-10.247-10.545Z"/><path class="s" d="M9961.756,4696.374l22.882,30.516,50.032-25.991.678-15.035a3.621,3.621,0,0,1,2.045-3.1l20.354-9.793-2.908,8.92-8.533,29.476-67.483,45.766-26.762-34.212Z"/><path class="t" d="M9806.159,4709.65c-5.936-16.617,3.165-48.664,28.09-54.2s40.751-2.769,57.764,7.122c3.165-19.8,28.334-40.576,58.083-31.366s36.87,43.235,36.87,43.235l-128.187,64.885-51.434-17.012Z"/><path class="n" d="M9655.168,4746.668V4618.229H9677.3c13.632,35.252,14.458,96.442,15.49,154.254l-28.509-12.059A14.934,14.934,0,0,1,9655.168,4746.668Z"/><line class="u" x2="22.137" transform="translate(9655.168 4623.923)"/><path class="l" d="M9655.2,4613.766h0a74.772,74.772,0,0,0-9.49-24.448l-19.449-31.972a19.516,19.516,0,0,1-1.012-18.4l1.68-3.6,67.09,50.535s-5.228,20.04-16.555,27.881Z"/><line class="v" y1="5.605" x2="8.142" transform="translate(9634.97 4566.055)"/><line class="v" y1="5.605" x2="8.142" transform="translate(9641.337 4576.96)"/><line class="v" y1="5.605" x2="8.142" transform="translate(9647.705 4587.867)"/><path class="a" d="M9626.931,4535.35l3.552-3.044,65.454,47.829-1.916,5.75Z"/><path class="l" d="M9541.407,4672.385h0a82.13,82.13,0,0,0-28.408,4.784L9474.286,4691a21.438,21.438,0,0,1-20.015-2.993l-3.5-2.607,69.255-60.966s20.4,10.071,26.323,24Z"/><line class="v" x1="2.378" y1="9.578" transform="translate(9496.181 4672.75)"/><line class="v" x1="1.974" y1="9.463" transform="translate(9507.03 4669.133)"/><line class="v" x1="1.777" y1="9.381" transform="translate(9516.977 4665.968)"/><path class="a" d="M9450.77,4685.4l-2.487-4.5,65.98-59.808,5.762,3.338Z"/><circle class="w" cx="8.614" cy="8.614" r="8.614" transform="translate(9505.672 4652.184) rotate(-60.446)"/><circle class="x" cx="17.575" cy="17.575" r="17.575" transform="matrix(0.383, -0.924, 0.924, 0.383, 9950.97, 4679.506)"/><circle class="t" cx="20.639" cy="20.639" r="20.639" transform="translate(9946.691 4678.816)"/><path class="s" d="M9941.74,4659.3c5.393,1.541,18.62-5.128,31.592-11.53l13.6,24.865-12.566,10.063-9.947,13.9Z"/><path class="r" d="M10068.4,4706.975l17.229-27.193a3.581,3.581,0,0,0-.7-4.641l-3.467-2.96-21.245,29.984Z"/><path class="l" d="M10039.588,4694.673l42.084-54.04a2.911,2.911,0,0,1,3.51-.857l16.748,7.682a2.911,2.911,0,0,1,1.092,4.424l-43.14,55.9a2.91,2.91,0,0,1-3.816.709l-15.693-9.547A2.91,2.91,0,0,1,10039.588,4694.673Z"/><path class="y" d="M10052.381,4687.13l4.978,3.269-1.746,2.354-4.98-3.5Z"/><path class="a" d="M10052.664,4681.784l29.56-37.177a2.282,2.282,0,0,1,2.737-.653l8.6,3.944a2.282,2.282,0,0,1,.842,3.487l-30.083,38.146a2.282,2.282,0,0,1-2.978.536l-8.077-4.914A2.28,2.28,0,0,1,10052.664,4681.784Z"/><path class="a" d="M10101.93,4647.458l-1.168-.535a2.962,2.962,0,0,1-.478.959l-44.691,57.917a3,3,0,0,1-2.077,1.145l2.55,1.551a2.91,2.91,0,0,0,3.816-.709l43.14-55.9A2.911,2.911,0,0,0,10101.93,4647.458Z"/><path class="t" d="M10019.508,4614.516l.371-1.3a18.95,18.95,0,0,0-8.229-21.306l-5.513-3.42a54.99,54.99,0,0,0-71.719,12.112h0a25.321,25.321,0,0,0,3.731,35.608l14.51,11.76,57.354-22.936A16.085,16.085,0,0,0,10019.508,4614.516Z"/><path class="r" d="M9816.115,4720.416h0v52.816c2.708,0,5.342-.022,7.938-.057l2.721-53.081C9824.142,4720.3,9818.774,4720.416,9816.115,4720.416Z"/><path class="l" d="M9958.3,4664.562a16.671,16.671,0,0,0-17.985-5.863c-21.081,6.309-42.395,22.369-58.16,36.525a98.691,98.691,0,0,1-58.1,24.87,179.616,179.616,0,0,1-3.969,53.081c50.618-.666,84.688-7.687,113.3-15.607a32.334,32.334,0,0,0,39,1.8h0a13.2,13.2,0,0,0,5.694-11.893c-.711-9.239-6.024-29.659-5.635-40.065.14-3.764,1.508-10.248.307-13.887C9969.267,4682.96,9964.573,4672.737,9958.3,4664.562Z"/><path class="z" d="M9933.39,4757.568c.375.312.757.612,1.142.905-9.6-7.925-13.132-9.56-20.16-9.433-12.605.228-20.352,8.345-30.979,10.934-12.381,3.016-22.344.231-27.5-.043-11.384-.6-19.194,1.173-33.312.018-.559,3.283-1.766,10.027-2.5,13.226C9870.7,4772.509,9904.773,4765.488,9933.39,4757.568Z"/><line class="q" x1="6.074" y1="5.701" transform="translate(9927.316 4751.867)"/><path class="x" d="M10013.753,4618.043c6.16,8.38.014,23.693,0,29.928s2.271,15.18,6.2,15.559c-8.254,3.907-19-15.144-19-15.144l1.323-32.989Z"/><path class="r" d="M10012.065,4634.273q-.434,1.277-.974,2.513l6.116,17.015a1.531,1.531,0,0,1-.77,1.686l-4.739,2.537-4.5,14.318c-1.97,6.015-8.058,10.209-13.75,7.444h0a53.135,53.135,0,0,1-27.148-30.861l-3.724-11.078c9.021-16.8,22-22.1,36.691-21.711A13.838,13.838,0,0,1,10012.065,4634.273Z"/><path class="l" d="M10001.905,4668.125h0a7.4,7.4,0,0,1-7.4-7.4v-1.208h14.795v1.208A7.4,7.4,0,0,1,10001.905,4668.125Z"/><path class="t" d="M9951.114,4652.788c22.492,0,27.343-14.017,27.343-29.894s-40.309,13.317-40.309,13.317l1.5,12.175Z"/><path class="aa" d="M9951.114,4652.788c22.492,0,27.343-14.017,27.343-29.894"/><path class="r" d="M10054.05,4698.259c-.467-3.344-2.506-7.363-6.393-12.176a1.465,1.465,0,0,1,.393-2.18l8.108-4.785a6.6,6.6,0,0,0,3.221-5.1,1.59,1.59,0,0,0-2.244-1.587l-14.9,7.786a4.4,4.4,0,0,0-2.573,3.924l.947,20.56c-21.245,11.909-42.848,26.042-58.039,39.019a2.017,2.017,0,0,1-3.138-.688l-21.573-46.248-26.539,23.891c13.624,17.322,26.122,36.588,43.172,52.409a6.063,6.063,0,0,0,7.969.2c20.8-14.333,40.048-28.6,54.543-42.65a155.128,155.128,0,0,1,26.291-20.5l5.1-3.16Z"/><path class="r" d="M10052.168,4695.354l14.407-2.109a13.137,13.137,0,0,0,3.315-2.11l15.651-16.043-20.366,32.478-13.919,1.349Z"/><path class="t" d="M9952.932,4636.736c11.172-10,18.229-8.232,32.047-2.94.347.132.69.255,1.034.368,12.421,4.082,25.134-5.584,25.134-18.658v-7.583h-58.215Z"/><path class="aa" d="M10010.1,4621.836c1.9-5.226,2.832-10.085,1.044-13.913"/><circle class="r" cx="9.385" cy="9.385" r="9.385" transform="translate(9965.456 4630.399)"/><path class="ab" d="M9972.522,4643.194a3.453,3.453,0,0,1,1.709-5.915,2.6,2.6,0,0,1,3.069,1.779"/><path class="ac" d="M9999.117,4640.511c1.406-2.109,5.624-1.758,8.085,0"/><path class="a" d="M9543.979,4674.195l10.522-18.926c39.784,19.289,77.4,50.466,100.365,88.093,23.937-10.77,62.364-21.694,92.528-26.006l6.431-4.241a49.129,49.129,0,0,1,53.921-.123l9.285,6.064V4773.2H9644a8.829,8.829,0,0,1-6.33-2.674Z"/><g class="ad"><path class="n" d="M9543.979,4669.133c25.95,21.455,87.5,91.971,87.5,91.971s4.792,9.5,19.606,9.5,39.892-6.86,65.818-7.614,86.869,3.016,100.133,5.279,1.206,42.525,1.206,42.525l-166.461-31.215-161.562-52.029Z"/></g><line class="ae" y1="18.926" x2="10.522" transform="translate(9549.239 4659.67)"/><path class="ae" d="M9555.515,4669.133c16.468,7.836,87.335,87.137,96.389,92.228,10.679,6.005,55.574-29.154,157.858-13.606"/><line class="ae" y1="57.603" transform="translate(9809.71 4715.596)"/><path class="ae" d="M9654.866,4743.362a316.88,316.88,0,0,1,38.964-13.993"/><path class="aa" d="M9892.013,4662.569c3.165-19.8,28.334-40.576,58.083-31.366"/><path class="aa" d="M9942.768,4610.542h0A22.252,22.252,0,0,1,9964.6,4598.7l4.093.389"/><path class="aa" d="M9819.2,4711.511c-2.411-10.549-.3-21.4,6.631-25.921"/><path class="aa" d="M9851.226,4690.714h0a22.358,22.358,0,0,0,21.322-4.693l10.845-9.639"/><rect class="p" width="95.394" height="118.046" rx="47.697" transform="translate(9529.367 4711.58)"/><path class="q" d="M9577.064,4829.627a47.7,47.7,0,0,0,47.7-47.7"/><rect class="g" width="46.668" height="57.75" rx="23.334" transform="translate(9553.73 4741.729)"/><rect class="q" width="29.613" height="36.645" rx="14.807" transform="translate(9562.258 4752.281)"/><rect class="l" width="3.323" height="10.85" transform="translate(9706.097 4861.726)"/><rect class="l" width="3.323" height="10.85" transform="translate(9717.474 4861.726)"/><rect class="l" width="3.323" height="10.85" transform="translate(9728.852 4861.726)"/><rect class="l" width="3.323" height="10.85" transform="translate(9740.229 4861.726)"/><rect class="l" width="3.323" height="10.85" transform="translate(9751.605 4861.726)"/><rect class="l" width="3.323" height="10.85" transform="translate(9762.983 4861.726)"/><rect class="l" width="3.323" height="10.85" transform="translate(9774.36 4861.726)"/><rect class="l" width="3.323" height="10.85" transform="translate(9785.737 4861.726)"/><rect class="l" width="3.323" height="10.85" transform="translate(9797.115 4861.726)"/><rect class="l" width="3.323" height="10.85" transform="translate(9808.492 4861.726)"/><rect class="l" width="3.323" height="10.85" transform="translate(9819.869 4861.726)"/><rect class="l" width="3.323" height="10.85" transform="translate(9831.247 4861.726)"/><rect class="l" width="3.323" height="10.85" transform="translate(9842.624 4861.726)"/><rect class="l" width="3.323" height="10.85" transform="translate(9854.002 4861.726)"/><rect class="l" width="3.323" height="10.85" transform="translate(9865.379 4861.726)"/><rect class="l" width="3.323" height="10.85" transform="translate(9876.756 4861.726)"/><rect class="l" width="3.323" height="10.85" transform="translate(9888.134 4861.726)"/><rect class="b" width="185.36" height="91.239" transform="translate(9706.097 4773.199)"/><g class="af"><line class="h" y1="84.4" x2="61.707" transform="translate(9663.559 4771.74)"/><line class="h" y1="84.4" x2="61.708" transform="translate(9693.377 4771.74)"/><line class="h" y1="84.4" x2="61.708" transform="translate(9723.195 4771.74)"/><line class="h" y1="84.4" x2="61.708" transform="translate(9753.014 4771.74)"/><line class="h" y1="84.4" x2="61.708" transform="translate(9782.832 4771.74)"/><line class="h" y1="84.4" x2="61.707" transform="translate(9812.65 4771.74)"/><line class="h" y1="84.4" x2="61.708" transform="translate(9842.468 4771.74)"/><line class="h" y1="84.4" x2="61.708" transform="translate(9872.286 4771.74)"/></g><line class="h" x1="185.36" transform="translate(9706.097 4856)"/><rect class="b" width="131.553" height="12.443" transform="translate(9971.828 4831.888)"/><path class="ag" d="M10097.873,4810H9977.548l-5.72,21.884h131.554Z"/><rect class="ag" width="7.384" height="79.037" transform="translate(9982.152 4844.331)"/><rect class="g" width="7.384" height="79.037" transform="translate(9989.536 4844.331)"/><rect class="ag" width="7.384" height="79.037" transform="translate(10029.441 4844.331)"/><rect class="g" width="7.384" height="79.037" transform="translate(10036.826 4844.331)"/><rect class="ag" width="7.384" height="79.037" transform="translate(10076.731 4844.331)"/><rect class="g" width="7.384" height="79.037" transform="translate(10084.115 4844.331)"/><path class="p" d="M10078.146,4806.334h-82.581a10.24,10.24,0,0,0-10.24,10.24h0a10.24,10.24,0,0,0,10.24,10.24h82.581a10.24,10.24,0,0,0,10.239-10.24h0A10.239,10.239,0,0,0,10078.146,4806.334Z"/><path class="b" d="M8.456,0h86.15a8.456,8.456,0,0,1,8.456,8.456V10.24a10.24,10.24,0,0,1-10.24,10.24H10.24A10.24,10.24,0,0,1,0,10.24V8.456A8.456,8.456,0,0,1,8.456,0Z" transform="translate(9985.325 4804.601)"/><ellipse class="j" cx="17.07" cy="7.494" rx="17.07" ry="7.494" transform="translate(9994.426 4807.913) rotate(-4.841)"/><path class="ah" d="M10029,4811.145c.233,4.134-7.2,8.082-16.594,8.819s-17.205-2.016-17.438-6.15,7.2-8.082,16.595-8.819S10028.766,4807.011,10029,4811.145Z"/><ellipse class="j" cx="17.069" cy="7.494" rx="17.069" ry="7.494" transform="translate(9994.238 4804.627) rotate(-4.84)"/><path class="ah" d="M10028.738,4806.566c.235,4.134-7.191,8.089-16.588,8.834s-17.206-2-17.442-6.134,6.737-8.96,16.134-9.706S10028.5,4802.433,10028.738,4806.566Z"/><ellipse class="j" cx="17.07" cy="7.494" rx="17.07" ry="7.494" transform="translate(10043.647 4807.913) rotate(-4.841)"/><path class="ah" d="M10078.221,4811.145c.233,4.134-7.2,8.082-16.594,8.819s-17.205-2.016-17.437-6.15,7.2-8.082,16.594-8.819S10077.989,4807.011,10078.221,4811.145Z"/><path class="j" d="M10078.117,4809.3c.234,4.134-7.192,8.089-16.589,8.834s-17.206-2-17.441-6.134,7.191-8.089,16.588-8.834S10077.881,4805.171,10078.117,4809.3Z"/><path class="ah" d="M10077.961,4806.566c.235,4.134-7.192,8.089-16.589,8.834s-17.206-2-17.441-6.134,6.737-8.96,16.135-9.706S10077.725,4802.433,10077.961,4806.566Z"/><path class="j" d="M10053.841,4817.355c-.9,4.041-9.127,5.817-18.371,3.967s-16-6.625-15.1-10.665,9.128-5.817,18.371-3.967S10054.744,4813.315,10053.841,4817.355Z"/><ellipse class="ah" cx="7.494" cy="17.069" rx="7.494" ry="17.069" transform="matrix(0.192, -0.981, 0.981, 0.192, 10019.233, 4816.657)"/><ellipse class="j" cx="7.494" cy="17.069" rx="7.494" ry="17.069" transform="translate(10019.636 4814.89) rotate(-78.988)"/><path class="ah" d="M10055.157,4811.467c-.9,4.04-9.128,5.816-18.371,3.967s-16-6.625-15.1-10.666,8.929-6.779,18.172-4.929S10056.059,4807.426,10055.157,4811.467Z"/><path class="j" d="M10040.178,4803.229c-.513,4.108-8.531,6.659-17.909,5.7s-16.563-5.07-16.05-9.178,8.532-6.66,17.91-5.7S10040.692,4799.121,10040.178,4803.229Z"/><path class="ah" d="M10040.358,4801.793c-.518,4.108-8.536,6.652-17.913,5.682s-16.56-5.085-16.043-9.193,8.537-6.652,17.913-5.683S10040.874,4797.685,10040.358,4801.793Z"/><ellipse class="j" cx="7.494" cy="17.07" rx="7.494" ry="17.07" transform="translate(10005.894 4804.033) rotate(-84.454)"/><path class="ah" d="M10040.927,4797.242c-.514,4.108-8.532,6.659-17.91,5.7s-16.562-5.07-16.049-9.178,8.242-7.6,17.619-6.638S10041.44,4793.133,10040.927,4797.242Z"/><ellipse class="j" cx="7.494" cy="17.069" rx="7.494" ry="17.069" transform="translate(10030.465 4807.298) rotate(-84.454)"/><ellipse class="ah" cx="7.494" cy="17.069" rx="7.494" ry="17.069" transform="translate(10030.642 4805.83) rotate(-84.398)"/><ellipse class="j" cx="7.494" cy="17.069" rx="7.494" ry="17.069" transform="translate(10030.873 4804.033) rotate(-84.454)"/><path class="ah" d="M10065.907,4797.242c-.515,4.108-8.532,6.659-17.91,5.7s-16.563-5.07-16.049-9.178,8.242-7.6,17.62-6.638S10066.421,4793.133,10065.907,4797.242Z"/><path class="ai" d="M10011.388,4799.394a18.216,18.216,0,0,1,9.683-12.4"/><path class="ai" d="M10018.608,4802.044a18.943,18.943,0,0,1,9.026-13.961"/><path class="ai" d="M10026.052,4803.006c1.367-4.574,2.871-9.375,6.356-12.639"/><path class="ai" d="M10036.444,4789.1a11.183,11.183,0,0,1,6.177,4.067,33.322,33.322,0,0,1,3.834,6.474q.771,1.56,1.543,3.121"/><path class="ai" d="M10046.124,4787.2a19.191,19.191,0,0,1,9.662,15.759"/><path class="ai" d="M10056.043,4788.426a8.09,8.09,0,0,1,3.638,3.886,22.169,22.169,0,0,1,2.488,8.541"/><path class="l" d="M9939.913,4734.913l28.245-19.854-10.172-23.271-36.383,28.658Z"/><rect class="aj" width="40.305" height="9.803" transform="matrix(0.818, -0.575, 0.575, 0.818, 9936.234, 4734.898)"/><path class="q" d="M9939.913,4734.913l-8.879-12.991a9.418,9.418,0,0,0-10.636-3.661h0"/><line class="q" x1="10.172" y1="23.27" transform="translate(9957.986 4691.788)"/><path class="ag" d="M10077.32,4559.518h-27.9a23.369,23.369,0,0,0-23.373,23.373v9.413a23.377,23.377,0,0,0,23.373,23.382h15.439l12.658,16.375v-16.375H10079v-.072a23.376,23.376,0,0,0,21.692-23.31v-9.413A23.375,23.375,0,0,0,10077.32,4559.518Z"/><path class="a" d="M10042.9,4586.435a4.007,4.007,0,1,0,4.008-4.008A4.007,4.007,0,0,0,10042.9,4586.435Z"/><path class="a" d="M10059.935,4586.435a4.008,4.008,0,1,0,4.009-4.008A4.009,4.009,0,0,0,10059.935,4586.435Z"/><path class="a" d="M10076.969,4586.435a4.008,4.008,0,1,0,4.008-4.008A4.007,4.007,0,0,0,10076.969,4586.435Z"/><line class="k" x2="701.676" transform="translate(9531.942 4923.368)"/><line class="k" x1="18.869" transform="translate(9504.758 4923.368)"/><line class="k" x1="18.869" transform="translate(10244.556 4923.368)"/><path class="k" d="M9953.384,4391.962l47.54-38.985,47.54,38.985"/><circle class="j" cx="6.265" cy="6.265" r="6.265" transform="translate(9994.659 4350.192)"/><rect class="j" width="152" height="130.834" transform="translate(9923.861 4390.564)"/><rect class="c" width="116.913" height="138.079" transform="translate(10068.901 4397.525) rotate(90)"/><path class="e" d="M9947.022,4498.927c2.155-11.625,16.529-61.827,30.9-61.827s16.53,20.081,24.436,20.081,12.218-33.624,25.154-33.624,27.311,75.37,27.311,75.37Z"/><circle class="c" cx="11.097" cy="11.097" r="11.097" transform="translate(10006.664 4475.148) rotate(-45)"/><line class="ak" y1="25.365" transform="translate(10022.358 4473.563)"/><path class="e" d="M9959.825,4421.911a4.539,4.539,0,0,1,1.543-4.547,5.754,5.754,0,0,1,5.249-1.484c1.432.334,2.747,1.226,4.217,1.213s2.754-.924,4.063-1.6a10.532,10.532,0,0,1,8.71-.648,7.288,7.288,0,0,1,4.58,7.062Z"/></g></svg>