<svg xmlns="http://www.w3.org/2000/svg" xmlns:xlink="http://www.w3.org/1999/xlink" width="588.88" height="506.322" viewBox="0 0 588.88 506.322"><defs><style>.a,.aa,.ab,.ad,.ae,.af,.ag,.ah,.aj,.al,.am,.an,.ap,.aq,.ar,.d,.g,.l,.m,.o,.r,.s,.t,.u{fill:none;}.b,.x{fill:#d73548;}.c{fill:#c9ecfc;}.d{stroke:#60abc2;}.aa,.ab,.ad,.ae,.af,.ag,.ah,.aj,.al,.am,.an,.ap,.aq,.ar,.d,.l,.o,.r,.s,.t,.u{stroke-miterlimit:10;}.ar,.d,.o,.t{stroke-width:0.993px;}.e{fill:#ffcb30;}.f{fill:#ef7a34;}.g,.m,.r,.s{stroke:#1a1718;}.g,.m{stroke-linejoin:round;stroke-width:5.956px;}.h{fill:#00528e;}.i{fill:#004f9b;}.j{fill:#008fc3;}.k{fill:#111745;}.ap,.l,.o,.t,.u{stroke:#d9d9db;}.l,.u{stroke-width:3.971px;}.aa,.ad,.ae,.af,.ag,.m,.o{stroke-linecap:round;}.n{fill:#d9d9db;}.p{fill:#cecdcf;}.q{fill:#731532;}.aa,.ab,.aj,.al,.am,.an,.ap,.aq,.r{stroke-width:0.496px;}.s{stroke-width:7.445px;}.u{stroke-linecap:square;}.v{clip-path:url(#a);}.w{fill:#f27f74;}.x{opacity:0.4;mix-blend-mode:multiply;isolation:isolate;}.y{fill:#f8f6f9;}.z{fill:#e7e8e1;}.aa{stroke:#222a39;}.ab{stroke:#c85973;}.ac{fill:#c85973;}.ad,.ae,.af,.ag,.ah,.aq{stroke:#0a123c;}.ad,.ae,.af,.ag,.ah{stroke-width:0.478px;}.ae{stroke-dasharray:0.512 1.536;}.af{stroke-dasharray:0.504 1.513;}.ag{stroke-dasharray:0.478 1.433;}.ai{clip-path:url(#b);}.aj{stroke:#654b99;}.ak{clip-path:url(#c);}.al{stroke:#d73548;}.am{stroke:#382c6f;}.an{stroke:#731532;}.ao{clip-path:url(#e);}.ar{stroke:#fdae1e;}</style><clipPath id="a"><path class="a" d="M699.656,3469.57l-32.082-69.216-55.686,5.063c0,31.542,40.938,43.914,57.736,69.236a9.862,9.862,0,0,1,1.044,8.647c-9.592,28.073-9.64,56.722-12.039,77.709l20.062,5.944L701,3485.773A23.631,23.631,0,0,0,699.656,3469.57Z" transform="translate(-611.888 -3400.354)"/></clipPath><clipPath id="b"><path class="b" d="M611.387,3420.982c7.24-43.483,31.042-79.147,49.615-98.908q1.856-1.975,3.637-3.736a21.867,21.867,0,0,1,17.071-6.218,139.672,139.672,0,0,1,18.935,2.778,23.846,23.846,0,0,1,16.87,32.695c-10.811,25.247-23.637,55.875-27.182,68.637C674.51,3428.557,648.395,3435.941,611.387,3420.982Z" transform="translate(-611.387 -3312.056)"/></clipPath><clipPath id="c"><path class="b" d="M708.389,3326.418l12.954,50.277,47.958,45.232-8.945,13.1-54.038-37.987L673.5,3343.1Z" transform="translate(-673.499 -3326.418)"/></clipPath><clipPath id="e"><path class="a" d="M717.436,3503.68l2.268,2.116a39.47,39.47,0,0,0,16.146,9.115l4.634,1.316a5.642,5.642,0,0,1,4.085,5.842l-.041.564h-46.66a51.561,51.561,0,0,1,1.819-20.658Z" transform="translate(-697.519 -3501.976)"/></clipPath></defs><path class="c" d="M503.383,3519.4c-26.979-4.311-55.312-23.912-69.279-47.393-10.643-17.895-12.51-39.329-7.5-59.536,2.831-11.4,14.846-27.951,22.919-36.488,13.414-14.184,32.4-13.73,43.491-29.8,9.349-13.54,7.171-31.541,9.245-47.865A87.4,87.4,0,0,1,613.7,3225.511c15.933,4.7,30.662,13.964,47.205,15.475,43.77,4,74.436-45.339,117.356-54.813a69.676,69.676,0,0,1,63.214,18.544c23.734,23.858,29.613,64.526,59.541,79.916,11.492,5.908,24.834,6.953,37.009,11.285,21.148,7.525,37.874,24.916,47.789,45.055s13.547,42.869,14.069,65.31c.54,23.191-2.254,46.919-12.252,67.85s-27.943,38.821-50.314,44.953Z" transform="translate(-423.954 -3175.203)"/><g transform="translate(1.314 24.59)"><g transform="translate(54.059 125.04)"><rect class="c" width="64.354" height="177.589" transform="translate(0 19.659)"/><rect class="c" width="54.895" height="177.589" transform="translate(64.355 19.659)"/><line class="d" x1="54.895" transform="translate(64.355 77.565)"/><line class="d" x1="54.895" transform="translate(64.355 117.509)"/><g transform="translate(9.764 33.242)"><path class="d" d="M495.152,3340.189v-4.03H480.86v4.03" transform="translate(-480.86 -3336.159)"/><path class="d" d="M509.589,3340.189v-4.03H493.346v4.03" transform="translate(-479.054 -3336.159)"/><path class="d" d="M521.828,3340.189v-4.03H507.537v4.03" transform="translate(-477.002 -3336.159)"/><path class="d" d="M495.152,3348.989v-4.03H480.86v4.03" transform="translate(-480.86 -3334.886)"/><path class="d" d="M509.589,3348.989v-4.03H493.346v4.03" transform="translate(-479.054 -3334.886)"/><path class="d" d="M521.828,3348.989v-4.03H507.537v4.03" transform="translate(-477.002 -3334.886)"/><path class="d" d="M509.589,3357.79v-4.029H493.346v4.029" transform="translate(-479.054 -3333.614)"/><path class="d" d="M495.152,3357.79v-4.029H480.86v4.029" transform="translate(-480.86 -3333.614)"/><path class="d" d="M521.828,3357.79v-4.029H507.537v4.029" transform="translate(-477.002 -3333.614)"/><path class="d" d="M495.152,3366.59v-4.029H480.86v4.029" transform="translate(-480.86 -3332.341)"/><path class="d" d="M509.589,3366.59v-4.029H493.346v4.029" transform="translate(-479.054 -3332.341)"/><path class="d" d="M521.828,3366.59v-4.029H507.537v4.029" transform="translate(-477.002 -3332.341)"/><path class="d" d="M495.152,3375.39v-4.029H480.86v4.029" transform="translate(-480.86 -3331.068)"/><path class="d" d="M521.828,3375.39v-4.029H507.537v4.029" transform="translate(-477.002 -3331.068)"/><path class="d" d="M509.589,3375.39v-4.029H493.346v4.029" transform="translate(-479.054 -3331.068)"/><path class="d" d="M495.152,3384.191v-4.029H480.86v4.029" transform="translate(-480.86 -3329.795)"/><path class="d" d="M521.828,3384.191v-4.029H507.537v4.029" transform="translate(-477.002 -3329.795)"/><path class="d" d="M509.589,3384.191v-4.029H493.346v4.029" transform="translate(-479.054 -3329.795)"/><path class="d" d="M495.152,3392.991v-4.03H480.86v4.03" transform="translate(-480.86 -3328.521)"/><path class="d" d="M509.589,3392.991v-4.03H493.346v4.03" transform="translate(-479.054 -3328.521)"/><path class="d" d="M521.828,3392.991v-4.03H507.537v4.03" transform="translate(-477.002 -3328.521)"/><path class="d" d="M495.152,3401.792v-4.029H480.86v4.029" transform="translate(-480.86 -3327.248)"/><path class="d" d="M509.589,3401.792v-4.029H493.346v4.029" transform="translate(-479.054 -3327.248)"/><path class="d" d="M521.828,3401.792v-4.029H507.537v4.029" transform="translate(-477.002 -3327.248)"/><path class="d" d="M509.589,3410.592v-4.03H493.346v4.03" transform="translate(-479.054 -3325.975)"/><path class="d" d="M495.152,3410.592v-4.03H480.86v4.03" transform="translate(-480.86 -3325.975)"/><path class="d" d="M521.828,3410.592v-4.03H507.537v4.03" transform="translate(-477.002 -3325.975)"/><path class="d" d="M495.152,3419.393v-4.03H480.86v4.03" transform="translate(-480.86 -3324.702)"/><path class="d" d="M521.828,3419.393v-4.03H507.537v4.03" transform="translate(-477.002 -3324.702)"/><path class="d" d="M509.589,3419.393v-4.03H493.346v4.03" transform="translate(-479.054 -3324.702)"/><path class="d" d="M521.828,3428.193v-4.029H507.537v4.029" transform="translate(-477.002 -3323.429)"/><path class="d" d="M495.152,3428.193v-4.029H480.86v4.029" transform="translate(-480.86 -3323.429)"/><path class="d" d="M509.589,3428.193v-4.029H493.346v4.029" transform="translate(-479.054 -3323.429)"/><path class="d" d="M509.589,3436.994v-4.03H493.346v4.03" transform="translate(-479.054 -3322.156)"/><path class="d" d="M495.152,3436.994v-4.03H480.86v4.03" transform="translate(-480.86 -3322.156)"/><path class="d" d="M521.828,3436.994v-4.03H507.537v4.03" transform="translate(-477.002 -3322.156)"/><path class="d" d="M495.152,3445.794v-4.03H480.86v4.03" transform="translate(-480.86 -3320.884)"/><path class="d" d="M521.828,3445.794v-4.03H507.537v4.03" transform="translate(-477.002 -3320.884)"/><path class="d" d="M509.589,3445.794v-4.03H493.346v4.03" transform="translate(-479.054 -3320.884)"/><path class="d" d="M509.589,3454.594v-4.029H493.346v4.029" transform="translate(-479.054 -3319.611)"/><path class="d" d="M495.152,3454.594v-4.029H480.86v4.029" transform="translate(-480.86 -3319.611)"/><path class="d" d="M521.828,3454.594v-4.029H507.537v4.029" transform="translate(-477.002 -3319.611)"/><path class="d" d="M509.589,3463.4v-4.029H493.346v4.029" transform="translate(-479.054 -3318.338)"/><path class="d" d="M495.152,3463.4v-4.029H480.86v4.029" transform="translate(-480.86 -3318.338)"/><path class="d" d="M521.828,3463.4v-4.029H507.537v4.029" transform="translate(-477.002 -3318.338)"/><path class="d" d="M495.152,3472.2v-4.029H480.86v4.029" transform="translate(-480.86 -3317.065)"/><path class="d" d="M521.828,3472.2v-4.029H507.537v4.029" transform="translate(-477.002 -3317.065)"/><path class="d" d="M509.589,3472.2v-4.029H493.346v4.029" transform="translate(-479.054 -3317.065)"/></g><rect class="c" width="15.871" height="10.593" transform="translate(48.484 9.066)"/><rect class="c" width="35.569" height="10.593" transform="translate(64.355 9.066)"/><line class="d" y1="19.659" transform="translate(19.775)"/><line class="d" x2="16.621" transform="translate(11.464)"/><line class="d" x2="16.621" transform="translate(11.464 9.066)"/></g><g transform="translate(212.823 20.672)"><path class="c" d="M623.545,3517.554V3215.938h19.776l46.024,39.892v261.724Z" transform="translate(-609.221 -3215.938)"/><rect class="c" width="14.324" height="231.982"/><g transform="translate(22.117 18.672)"><line class="d" x2="10.783"/><line class="d" x2="24.132" transform="translate(0 8.588)"/><line class="d" x2="31.809" transform="translate(0 17.177)"/><line class="d" x2="41.012" transform="translate(0 25.766)"/><line class="d" x2="50.215" transform="translate(0 34.354)"/><line class="d" x2="50.215" transform="translate(0 42.943)"/><line class="d" x2="50.215" transform="translate(0 51.531)"/><line class="d" x2="50.215" transform="translate(0 60.12)"/><line class="d" x2="50.215" transform="translate(0 68.709)"/><line class="d" x2="50.215" transform="translate(0 77.297)"/><line class="d" x2="50.215" transform="translate(0 85.886)"/><line class="d" x2="50.215" transform="translate(0 94.474)"/><line class="d" x2="50.215" transform="translate(0 103.063)"/><line class="d" x2="50.215" transform="translate(0 111.652)"/><line class="d" x2="50.215" transform="translate(0 120.24)"/><line class="d" x2="50.215" transform="translate(0 128.829)"/><line class="d" x2="50.215" transform="translate(0 137.417)"/><line class="d" x2="50.215" transform="translate(0 146.006)"/><line class="d" x2="50.215" transform="translate(0 154.594)"/><line class="d" x2="50.215" transform="translate(0 163.183)"/><line class="d" x2="50.215" transform="translate(0 171.772)"/></g><path class="d" d="M623.545,3223.881h19.776l46.024,39.892" transform="translate(-609.221 -3214.79)"/><line class="d" x1="14.324" transform="translate(0 9.091)"/></g><g transform="translate(280.324 278.718)"><ellipse class="c" cx="12.706" cy="12.706" rx="12.706" ry="12.706" transform="translate(0 5.895) rotate(-13.413)"/><line class="d" y2="14.214" transform="translate(15.307 28.659)"/></g><g transform="translate(317.962 278.883)"><ellipse class="c" cx="12.706" cy="12.706" rx="12.706" ry="12.706" transform="translate(0 5.466) rotate(-12.421)"/><line class="d" y2="14.214" transform="translate(15.142 28.494)"/></g><g transform="translate(152.252 177.409)"><rect class="c" width="75.736" height="123.451" transform="translate(75.736 144.879) rotate(180)"/><rect class="c" width="39.087" height="123.451" transform="translate(114.824 144.879) rotate(180)"/><line class="d" x2="39.087" transform="translate(75.736 32.196)"/><line class="d" x2="75.736" transform="translate(0 32.196)"/><g transform="translate(13.014 42.533)"><rect class="c" width="12.814" height="12.814" transform="translate(45.494 12.814) rotate(180)"/><path class="d" d="M610.848,3390.027v2.917h-9.9v9.9h-2.917v-12.813Z" transform="translate(-565.354 -3390.027)"/><path class="d" d="M582.3,3390.027v2.917h-9.9v9.9h-2.917v-12.813Z" transform="translate(-569.484 -3390.027)"/><rect class="d" width="12.814" height="12.814" transform="translate(12.814 12.814) rotate(180)"/></g><g transform="translate(13.014 68.376)"><rect class="c" width="12.814" height="12.814" transform="translate(45.494 12.814) rotate(180)"/><path class="d" d="M610.848,3412.6v2.917h-9.9v9.9h-2.917V3412.6Z" transform="translate(-565.354 -3412.604)"/><path class="d" d="M582.3,3412.6v2.917h-9.9v9.9h-2.917V3412.6Z" transform="translate(-569.484 -3412.604)"/><rect class="d" width="12.814" height="12.814" transform="translate(12.814 12.814) rotate(180)"/></g><g transform="translate(13.014 94.218)"><rect class="c" width="12.814" height="12.814" transform="translate(45.494 12.814) rotate(180)"/><path class="d" d="M610.848,3435.181v2.916h-9.9v9.9h-2.917v-12.813Z" transform="translate(-565.354 -3435.181)"/><path class="d" d="M582.3,3435.181v2.916h-9.9v9.9h-2.917v-12.813Z" transform="translate(-569.484 -3435.181)"/><rect class="d" width="12.814" height="12.814" transform="translate(12.814 12.814) rotate(180)"/></g><g transform="translate(13.014 120.061)"><rect class="c" width="12.814" height="12.814" transform="translate(45.494 12.814) rotate(180)"/><path class="d" d="M610.848,3457.758v2.917h-9.9v9.9h-2.917v-12.814Z" transform="translate(-565.354 -3457.758)"/><path class="d" d="M582.3,3457.758v2.917h-9.9v9.9h-2.917v-12.814Z" transform="translate(-569.484 -3457.758)"/><rect class="d" width="12.814" height="12.814" transform="translate(12.814 12.814) rotate(180)"/></g><g transform="translate(83.705 17.875)"><line class="d" y1="122.861" transform="translate(10.337)"/><line class="d" y2="122.861"/><line class="d" x2="10.337" transform="translate(0 116.831)"/><line class="d" x2="10.337" transform="translate(0 110.801)"/><line class="d" x2="10.337" transform="translate(0 104.771)"/><line class="d" x2="10.337" transform="translate(0 98.741)"/><line class="d" x2="10.337" transform="translate(0 92.711)"/><line class="d" x2="10.337" transform="translate(0 86.681)"/><line class="d" x2="10.337" transform="translate(0 80.651)"/><line class="d" x2="10.337" transform="translate(0 74.621)"/><line class="d" x2="10.337" transform="translate(0 68.591)"/><line class="d" x2="10.337" transform="translate(0 62.561)"/><line class="d" x2="10.337" transform="translate(0 56.531)"/><line class="d" x2="10.337" transform="translate(0 50.501)"/><line class="d" x2="10.337" transform="translate(0 44.471)"/><line class="d" x2="10.337" transform="translate(0 38.441)"/><line class="d" x2="10.337" transform="translate(0 32.411)"/><line class="d" x2="10.337" transform="translate(0 26.381)"/><line class="d" x2="10.337" transform="translate(0 20.351)"/><line class="d" x2="10.337" transform="translate(0 14.321)"/><line class="d" x2="10.337" transform="translate(0 8.291)"/></g><g transform="translate(52.101)"><line class="d" y1="21.428" transform="translate(11.36)"/><path class="d" d="M607.077,3363.052h15.828a3.446,3.446,0,0,0,3.447-3.445h0a3.447,3.447,0,0,0-3.447-3.447H607.077a3.446,3.446,0,0,0-3.445,3.447h0A3.445,3.445,0,0,0,607.077,3363.052Z" transform="translate(-603.632 -3352.393)"/><line class="d" x1="21.536" transform="translate(0.592 14.537)"/></g></g><g transform="translate(341.067)"><g transform="translate(0 89.714)"><rect class="c" width="46.943" height="232.573"/><line class="c" x1="28.309" transform="translate(5.699 12.858)"/><line class="c" x1="28.309" transform="translate(5.699 20.435)"/><line class="c" x1="28.309" transform="translate(5.699 35.589)"/><line class="c" x1="28.309" transform="translate(5.699 43.167)"/><line class="c" x1="28.309" transform="translate(5.699 58.321)"/><line class="c" x1="28.309" transform="translate(5.699 65.897)"/><line class="c" x1="28.309" transform="translate(5.699 81.052)"/><line class="c" x1="28.309" transform="translate(5.699 88.629)"/><line class="c" x1="28.309" transform="translate(5.699 103.783)"/><line class="c" x1="28.309" transform="translate(5.699 126.514)"/><line class="c" x1="28.309" transform="translate(5.699 134.091)"/><line class="c" x1="28.309" transform="translate(5.699 149.245)"/><line class="c" x1="28.309" transform="translate(5.699 156.822)"/><line class="c" x1="28.309" transform="translate(5.699 171.976)"/><line class="c" x1="28.309" transform="translate(5.699 179.553)"/><line class="c" x1="28.309" transform="translate(5.699 194.707)"/><line class="c" x1="28.309" transform="translate(5.699 202.284)"/><line class="c" x1="28.309" transform="translate(5.699 217.438)"/><line class="c" x1="28.309" transform="translate(5.699 225.015)"/></g><rect class="c" width="31.649" height="33.874" transform="translate(15.295 55.84)"/><line class="d" x1="31.649" transform="translate(15.295 83.191)"/><rect class="c" width="19.158" height="20.091" transform="translate(27.785 35.749)"/><path class="c" d="M774.721,3208.646l-15.712-10.768v35.749h15.712Z" transform="translate(-717.871 -3197.879)"/><line class="d" x1="15.712" y1="10.768" transform="translate(41.137 7.107)"/><rect class="c" width="25.636" height="20.091" transform="translate(46.943 35.749)"/><rect class="c" width="42.003" height="33.874" transform="translate(46.943 55.84)"/><line class="d" x1="42.003" transform="translate(46.943 83.191)"/><rect class="c" width="59.112" height="232.573" transform="translate(46.943 89.714)"/><line class="d" x1="59.112" transform="translate(46.943 119.558)"/><line class="d" y2="232.573" transform="translate(39.837 89.714)"/><g transform="translate(53.619 283.472)"><rect class="d" width="28.652" height="38.816"/><rect class="d" width="35.585" height="22.191" transform="translate(25.421 3.231) rotate(90)"/><line class="d" x2="22.191" transform="translate(3.23 14.537)"/><line class="d" x2="22.191" transform="translate(3.23 26.812)"/><line class="d" y2="35.585" transform="translate(14.326 3.231)"/></g><g transform="translate(21.349 62.078)"><line class="c" x1="16.912"/><line class="c" x1="16.912" transform="translate(0 7.577)"/><line class="c" x1="16.912" transform="translate(0 15.154)"/></g><g transform="translate(31.401 41.366)"><line class="c" x1="11.926"/><line class="c" x1="11.926" transform="translate(0 7.577)"/></g><g transform="translate(52.642 41.366)"><line class="c" x2="16.2"/><line class="c" x2="16.2" transform="translate(0 7.577)"/></g><g transform="translate(53.955 97.875)"><line class="c" x1="44.304"/><line class="c" x1="44.304" transform="translate(0 7.577)"/><line class="c" x1="44.304" transform="translate(0 15.154)"/></g><g transform="translate(68.614 125.304)"><g transform="translate(17.363)"><line class="c" x1="12.282"/><line class="c" x1="12.282" transform="translate(0 7.577)"/></g><line class="c" x1="12.282"/><line class="c" x1="12.282" transform="translate(0 7.577)"/><g transform="translate(0 14.482)"><g transform="translate(17.363)"><line class="c" x1="12.282"/><line class="c" x1="12.282" transform="translate(0 7.577)"/></g><line class="c" x1="12.282"/><line class="c" x1="12.282" transform="translate(0 7.577)"/></g></g><line class="d" x1="59.112" transform="translate(46.943 185.349)"/><line class="d" x1="59.112" transform="translate(46.943 249.183)"/><line class="d" x1="59.112" transform="translate(46.943 275.935)"/><g transform="translate(53.122 62.078)"><line class="c" x1="12.282" transform="translate(17.363)"/><line class="c" x1="12.282" transform="translate(17.363 7.577)"/><line class="c" x1="12.282"/><line class="c" x1="12.282" transform="translate(17.363 15.154)"/><line class="c" x1="12.282" transform="translate(0 15.154)"/><line class="c" x1="12.282" transform="translate(0 7.577)"/></g><g transform="translate(53.955 161.358)"><line class="c" x1="44.304"/><line class="c" x1="44.304" transform="translate(0 7.577)"/><line class="c" x1="44.304" transform="translate(0 15.154)"/></g><g transform="translate(68.614 191.095)"><g transform="translate(17.363)"><line class="c" x1="12.282"/><line class="c" x1="12.282" transform="translate(0 7.577)"/></g><line class="c" x1="12.282"/><line class="c" x1="12.282" transform="translate(0 7.577)"/><g transform="translate(0 14.482)"><g transform="translate(17.363)"><line class="c" x1="12.282"/><line class="c" x1="12.282" transform="translate(0 7.577)"/></g><line class="c" x1="12.282"/><line class="c" x1="12.282" transform="translate(0 7.577)"/></g></g><g transform="translate(68.614 254.925)"><g transform="translate(17.363)"><line class="c" x1="12.282"/><line class="c" x1="12.282" transform="translate(0 7.577)"/></g><line class="c" x1="12.282"/><line class="c" x1="12.282" transform="translate(0 7.577)"/><g transform="translate(0 14.482)"><g transform="translate(17.363)"><line class="c" x1="12.282"/></g><line class="c" x1="12.282"/></g></g><g transform="translate(53.955 227.15)"><line class="c" x1="44.304"/><line class="c" x1="44.304" transform="translate(0 7.577)"/><line class="c" x1="44.304" transform="translate(0 15.154)"/></g></g><g transform="translate(430.014 106.579)"><rect class="c" width="59.112" height="174.734" transform="translate(0 40.974)"/><rect class="c" width="59.112" height="174.734" transform="translate(59.112 40.974)"/><rect class="c" width="33.06" height="20.028" transform="translate(59.112 20.946)"/><rect class="c" width="33.06" height="20.028" transform="translate(26.052 20.946)"/><line class="d" x1="33.06" transform="translate(26.052 28.744)"/><g transform="translate(7.828 52.604)"><rect class="d" width="7.753" height="153.793"/><g transform="translate(0 15.263)"><line class="d" x1="7.753"/><line class="d" x1="7.753" transform="translate(0 15.409)"/><line class="d" x1="7.753" transform="translate(0 30.817)"/><line class="d" x1="7.753" transform="translate(0 46.226)"/><line class="d" x1="7.753" transform="translate(0 61.634)"/><line class="d" x1="7.753" transform="translate(0 77.042)"/><line class="d" x1="7.753" transform="translate(0 92.451)"/><line class="d" x1="7.753" transform="translate(0 107.859)"/><line class="d" x1="7.753" transform="translate(0 123.268)"/></g><g transform="translate(17.852)"><rect class="d" width="7.753" height="153.793"/><g transform="translate(0 15.263)"><line class="d" x1="7.753"/><line class="d" x1="7.753" transform="translate(0 15.409)"/><line class="d" x1="7.753" transform="translate(0 30.817)"/><line class="d" x1="7.753" transform="translate(0 46.226)"/><line class="d" x1="7.753" transform="translate(0 61.634)"/><line class="d" x1="7.753" transform="translate(0 77.042)"/><line class="d" x1="7.753" transform="translate(0 92.451)"/><line class="d" x1="7.753" transform="translate(0 107.859)"/><line class="d" x1="7.753" transform="translate(0 123.268)"/></g></g><g transform="translate(35.704)"><rect class="d" width="7.753" height="153.793"/><g transform="translate(0 15.263)"><line class="d" x1="7.753"/><line class="d" x1="7.753" transform="translate(0 15.409)"/><line class="d" x1="7.753" transform="translate(0 30.817)"/><line class="d" x1="7.753" transform="translate(0 46.226)"/><line class="d" x1="7.753" transform="translate(0 61.634)"/><line class="d" x1="7.753" transform="translate(0 77.042)"/><line class="d" x1="7.753" transform="translate(0 92.451)"/><line class="d" x1="7.753" transform="translate(0 107.859)"/><line class="d" x1="7.753" transform="translate(0 123.268)"/></g></g></g><g transform="translate(66.94 52.604)"><rect class="d" width="7.753" height="153.793"/><g transform="translate(0 15.263)"><line class="d" x1="7.753"/><line class="d" x1="7.753" transform="translate(0 15.409)"/><line class="d" x1="7.753" transform="translate(0 30.817)"/><line class="d" x1="7.753" transform="translate(0 46.226)"/><line class="d" x1="7.753" transform="translate(0 61.634)"/><line class="d" x1="7.753" transform="translate(0 77.042)"/><line class="d" x1="7.753" transform="translate(0 92.451)"/><line class="d" x1="7.753" transform="translate(0 107.859)"/><line class="d" x1="7.753" transform="translate(0 123.268)"/></g><g transform="translate(17.852)"><rect class="d" width="7.753" height="153.793"/><g transform="translate(0 15.263)"><line class="d" x1="7.753"/><line class="d" x1="7.753" transform="translate(0 15.409)"/><line class="d" x1="7.753" transform="translate(0 30.817)"/><line class="d" x1="7.753" transform="translate(0 46.226)"/><line class="d" x1="7.753" transform="translate(0 61.634)"/><line class="d" x1="7.753" transform="translate(0 77.042)"/><line class="d" x1="7.753" transform="translate(0 92.451)"/><line class="d" x1="7.753" transform="translate(0 107.859)"/><line class="d" x1="7.753" transform="translate(0 123.268)"/></g></g><g transform="translate(35.704)"><rect class="d" width="7.753" height="153.793"/><g transform="translate(0 15.263)"><line class="d" x1="7.753"/><line class="d" x1="7.753" transform="translate(0 15.409)"/><line class="d" x1="7.753" transform="translate(0 30.817)"/><line class="d" x1="7.753" transform="translate(0 46.226)"/><line class="d" x1="7.753" transform="translate(0 61.634)"/><line class="d" x1="7.753" transform="translate(0 77.042)"/><line class="d" x1="7.753" transform="translate(0 92.451)"/><line class="d" x1="7.753" transform="translate(0 107.859)"/><line class="d" x1="7.753" transform="translate(0 123.268)"/></g></g></g><g transform="translate(49.208)"><line class="d" y1="21.428" transform="translate(11.36)"/><path class="d" d="M863.04,3301.174H847.21a3.446,3.446,0,0,1-3.445-3.445h0a3.446,3.446,0,0,1,3.445-3.447H863.04a3.446,3.446,0,0,1,3.445,3.447h0A3.446,3.446,0,0,1,863.04,3301.174Z" transform="translate(-843.765 -3290.513)"/><line class="d" x2="21.536" transform="translate(0.592 14.537)"/></g><rect class="d" width="12.491" height="12.231" transform="translate(71.929 28.744)"/></g><rect class="c" width="32.881" height="151.917" transform="translate(308.665 170.371)"/><line class="d" x2="584.439" transform="translate(0 323.054)"/></g><g transform="translate(107.589 96.04)"><g transform="translate(13.176)"><path class="e" d="M665.9,3433.227l-27.633,1.15a6.94,6.94,0,0,0-6.47,8.515h0a6.94,6.94,0,0,0,7.8,5.28l28.295-4.294Z" transform="translate(-514.682 -3235.286)"/><path class="f" d="M639.976,3445.942a6.932,6.932,0,0,1-7.92-7.764,6.875,6.875,0,0,0-.259,4h0a6.94,6.94,0,0,0,7.8,5.28l28.295-4.294-.264-1.417Z" transform="translate(-514.681 -3234.57)"/><line class="g" x2="23.864" transform="translate(198.231 300.665)"/><g transform="translate(5.593 1.245)"><path class="h" d="M689.075,3306.728l-96.912-45.061a2.989,2.989,0,0,0-3.971,1.45l-49.381,106.2L641.143,3416.9l49.383-106.2A2.99,2.99,0,0,0,689.075,3306.728Z" transform="translate(-533.698 -3261.387)"/><rect class="i" width="97.906" height="120.11" transform="matrix(0.907, 0.422, -0.422, 0.907, 62.532, 2.17)"/><rect class="j" width="36.28" height="97.906" transform="matrix(0.422, -0.907, 0.907, 0.422, 47.235, 35.067)"/><rect class="h" width="36.28" height="9.057" transform="translate(66.262 43.914) rotate(-65.063)"/><rect class="h" width="36.28" height="9.057" transform="translate(108.774 63.681) rotate(-65.063)"/><path class="k" d="M0,0H112.854a0,0,0,0,1,0,0V5.387a6.739,6.739,0,0,1-6.739,6.739H6.739A6.739,6.739,0,0,1,0,5.387V0A0,0,0,0,1,0,0Z" transform="translate(5.113 107.931) rotate(24.937)"/></g><path class="j" d="M680.714,3400.4l47.165,37.3a18.435,18.435,0,0,1,6.771,17.348l-10.034,63.194-19.238-1.578c-.465-14.32-2.817-30.056-.024-60.344-10.76-4.571-33.937-15.4-43.245-25.594L646.4,3403.948Z" transform="translate(-512.542 -3240.034)"/><g transform="translate(133.86 163.444)"><path class="h" d="M664.818,3426.73l-13.864-23.641-4.552.47,15.707,26.782c9.308,10.194,32.485,21.024,43.245,25.594C694.594,3451.365,674.126,3436.924,664.818,3426.73Z" transform="translate(-646.402 -3403.089)"/><path class="h" d="M707.671,3506.553a8.069,8.069,0,0,1-7.364-7.131c-1.343-11.941-4.594-24.565-2.233-50.164-2.793,30.287-.441,46.024.024,60.344l19.238,1.578.6-3.784Z" transform="translate(-639.122 -3396.411)"/></g><path class="h" d="M673.692,3424.053q10.343,16.525,30.112,28.851l-46.689-19Z" transform="translate(-510.993 -3236.613)"/><path class="e" d="M717.436,3503.68l2.268,2.116a39.47,39.47,0,0,0,16.146,9.115l4.634,1.316a5.642,5.642,0,0,1,4.085,5.842l-.041.564h-46.66a51.561,51.561,0,0,1,1.819-20.658Z" transform="translate(-505.148 -3225.341)"/><path class="f" d="M703.409,3512.2a52.089,52.089,0,0,1,1.28-9.743l-5-.48a51.561,51.561,0,0,0-1.819,20.658h46.66l.041-.564a5.628,5.628,0,0,0-.3-2.277H710.8A7.379,7.379,0,0,1,703.409,3512.2Z" transform="translate(-505.148 -3225.341)"/><line class="l" x1="46.66" transform="translate(192.719 298.429)"/><line class="m" x1="25.911" y2="24.999" transform="translate(185.417 301.739)"/><g transform="translate(0 177.655)"><rect class="h" width="4.217" height="2.719" transform="translate(43.98 65.343)"/><rect class="h" width="4.217" height="2.719" transform="translate(105.34 65.343)"/><g transform="translate(239.423 75.002)"><g transform="translate(18.655 18.654)"><g transform="translate(52.648)"><g transform="translate(3.125)"><path class="n" d="M819.555,3560.389a.851.851,0,0,1-.826-.649l-15.057-61.36a.852.852,0,0,1,1.655-.406l15.057,61.36a.853.853,0,0,1-.625,1.031A.887.887,0,0,1,819.555,3560.389Z" transform="translate(-803.647 -3497.324)"/></g><g transform="translate(0 0)"><path class="n" d="M801.771,3560.389a.88.88,0,0,1-.2-.024.852.852,0,0,1-.625-1.031L816,3497.974a.852.852,0,0,1,1.655.406L802.6,3559.74A.851.851,0,0,1,801.771,3560.389Z" transform="translate(-800.917 -3497.325)"/></g></g><g transform="translate(25.703 5.289)"><g transform="translate(0 5.966)"><path class="n" d="M821.948,3554.473a.848.848,0,0,1-.615-.262l-43.72-45.612a.853.853,0,0,1,1.232-1.18l43.719,45.612a.853.853,0,0,1-.616,1.442Z" transform="translate(-777.377 -3507.157)"/></g><g transform="translate(10.332)"><path class="n" d="M804.9,3564.318a.853.853,0,0,1-.817-.615l-17.641-60.667a.852.852,0,0,1,1.637-.476l17.641,60.667a.853.853,0,0,1-.58,1.057A.867.867,0,0,1,804.9,3564.318Z" transform="translate(-786.404 -3501.945)"/></g></g><g transform="translate(5.288 25.703)"><g transform="translate(0 10.333)"><path class="n" d="M821.063,3548.153a.867.867,0,0,1-.239-.034l-60.666-17.641a.852.852,0,1,1,.475-1.636l60.667,17.64a.853.853,0,0,1-.237,1.671Z" transform="translate(-759.543 -3528.807)"/></g><g transform="translate(5.966)"><path class="n" d="M811.219,3565.2a.854.854,0,0,1-.591-.237l-45.611-43.719a.852.852,0,1,1,1.179-1.23l45.612,43.719a.852.852,0,0,1-.589,1.468Z" transform="translate(-764.755 -3519.78)"/></g></g><g transform="translate(0 52.648)"><path class="n" d="M755.775,3560.081a.852.852,0,0,1-.2-1.68l61.36-15.056a.852.852,0,0,1,.406,1.655l-61.36,15.055A.844.844,0,0,1,755.775,3560.081Z" transform="translate(-754.922 -3543.32)"/><g transform="translate(0 3.125)"><path class="n" d="M817.136,3562.811a.82.82,0,0,1-.2-.025l-61.36-15.055a.852.852,0,1,1,.406-1.655l61.36,15.056a.853.853,0,0,1-.2,1.68Z" transform="translate(-754.922 -3546.05)"/></g></g><g transform="translate(5.288 54.056)"><g transform="translate(5.966)"><path class="n" d="M765.607,3589.973a.852.852,0,0,1-.589-1.467l45.611-43.719a.852.852,0,0,1,1.18,1.23L766.2,3589.736A.847.847,0,0,1,765.607,3589.973Z" transform="translate(-764.755 -3544.55)"/></g><g transform="translate(0 15.745)"><path class="n" d="M760.395,3577.651a.852.852,0,0,1-.237-1.67l60.666-17.641a.852.852,0,1,1,.476,1.637l-60.667,17.641A.851.851,0,0,1,760.395,3577.651Z" transform="translate(-759.543 -3558.305)"/></g></g><g transform="translate(25.703 57.522)"><g transform="translate(10.332)"><path class="n" d="M787.257,3609.95a.853.853,0,0,1-.818-1.091l17.641-60.667a.852.852,0,1,1,1.637.476l-17.641,60.667A.854.854,0,0,1,787.257,3609.95Z" transform="translate(-786.404 -3547.577)"/></g><g transform="translate(0 9.091)"><path class="n" d="M778.23,3602.835a.853.853,0,0,1-.616-1.442l43.72-45.611a.852.852,0,1,1,1.231,1.179l-43.719,45.612A.853.853,0,0,1,778.23,3602.835Z" transform="translate(-777.377 -3555.519)"/></g></g><g transform="translate(52.648 62.117)"><path class="n" d="M816.825,3614.657a.851.851,0,0,1-.826-.648l-15.057-61.361a.852.852,0,0,1,1.655-.406l15.057,61.36a.852.852,0,0,1-.625,1.03A.837.837,0,0,1,816.825,3614.657Z" transform="translate(-800.917 -3551.592)"/><g transform="translate(3.125 0)"><path class="n" d="M804.5,3614.657a.831.831,0,0,1-.2-.025.851.851,0,0,1-.625-1.03l15.057-61.36a.852.852,0,0,1,1.655.406l-15.057,61.361A.851.851,0,0,1,804.5,3614.657Z" transform="translate(-803.647 -3551.592)"/></g></g><g transform="translate(54.056 57.521)"><g transform="translate(0 9.091)"><path class="n" d="M846.718,3602.835a.853.853,0,0,1-.616-.262l-43.719-45.612a.852.852,0,1,1,1.231-1.179l43.719,45.611a.852.852,0,0,1-.615,1.442Z" transform="translate(-802.147 -3555.519)"/></g><g transform="translate(15.744)"><path class="n" d="M834.4,3609.95a.854.854,0,0,1-.818-.615l-17.641-60.667a.852.852,0,1,1,1.637-.476l17.641,60.667a.853.853,0,0,1-.818,1.091Z" transform="translate(-815.902 -3547.577)"/></g></g><g transform="translate(57.522 54.056)"><g transform="translate(0 15.745)"><path class="n" d="M866.7,3577.651a.866.866,0,0,1-.239-.033l-60.666-17.641a.852.852,0,0,1,.476-1.637l60.666,17.641a.852.852,0,0,1-.237,1.67Z" transform="translate(-805.175 -3558.305)"/></g><g transform="translate(9.09)"><path class="n" d="M859.581,3589.973a.852.852,0,0,1-.591-.237l-45.611-43.719a.852.852,0,1,1,1.179-1.23l45.612,43.719a.852.852,0,0,1-.59,1.467Z" transform="translate(-813.117 -3544.55)"/></g></g><g transform="translate(62.118 52.649)"><g transform="translate(0 3.125)"><path class="n" d="M810.042,3562.811a.853.853,0,0,1-.2-1.68l61.36-15.056a.852.852,0,1,1,.406,1.655l-61.36,15.055A.82.82,0,0,1,810.042,3562.811Z" transform="translate(-809.19 -3546.05)"/></g><path class="n" d="M871.4,3560.081a.845.845,0,0,1-.2-.025L809.839,3545a.852.852,0,0,1,.406-1.655l61.36,15.056a.852.852,0,0,1-.2,1.68Z" transform="translate(-809.19 -3543.32)"/></g><g transform="translate(57.522 25.703)"><g transform="translate(9.09)"><path class="n" d="M813.969,3565.2a.852.852,0,0,1-.59-1.468l45.611-43.719a.852.852,0,0,1,1.18,1.23l-45.612,43.719A.849.849,0,0,1,813.969,3565.2Z" transform="translate(-813.117 -3519.78)"/></g><g transform="translate(0 10.333)"><path class="n" d="M806.027,3548.153a.853.853,0,0,1-.237-1.671l60.666-17.64a.852.852,0,1,1,.476,1.636l-60.666,17.641A.868.868,0,0,1,806.027,3548.153Z" transform="translate(-805.175 -3528.807)"/></g></g><g transform="translate(54.056 5.289)"><g transform="translate(15.744)"><path class="n" d="M816.755,3564.318a.865.865,0,0,1-.238-.034.852.852,0,0,1-.58-1.057l17.641-60.667a.852.852,0,0,1,1.637.476L817.573,3563.7A.854.854,0,0,1,816.755,3564.318Z" transform="translate(-815.902 -3501.946)"/></g><g transform="translate(0 5.966)"><path class="n" d="M803,3554.473a.853.853,0,0,1-.616-1.442l43.719-45.612a.852.852,0,0,1,1.23,1.18l-43.719,45.612A.848.848,0,0,1,803,3554.473Z" transform="translate(-802.147 -3507.157)"/></g></g></g><path class="k" d="M819.225,3485.5a76.132,76.132,0,1,0,76.132,76.133A76.13,76.13,0,0,0,819.225,3485.5Zm0,137.873a61.74,61.74,0,1,1,61.74-61.74A61.746,61.746,0,0,1,819.225,3623.368Z" transform="translate(-737.979 -3480.382)"/><path class="h" d="M818.722,3488.97a72.155,72.155,0,1,0,72.155,72.156A72.158,72.158,0,0,0,818.722,3488.97Zm0,133.9a61.741,61.741,0,1,1,61.74-61.74A61.746,61.746,0,0,1,818.722,3622.865Z" transform="translate(-737.476 -3479.879)"/><path class="e" d="M817.884,3494.762a65.525,65.525,0,1,0,65.524,65.526A65.521,65.521,0,0,0,817.884,3494.762Zm0,127.266a61.741,61.741,0,1,1,61.74-61.74A61.746,61.746,0,0,1,817.884,3622.027Z" transform="translate(-736.638 -3479.042)"/><path class="j" d="M748.3,3563.594c-.714-39.495,31.8-72.759,71.3-72.906a71.539,71.539,0,0,1,21.445,3.182,9.618,9.618,0,0,0,10.915-3.939l1.172-1.8a81.263,81.263,0,0,0-101.874,117.665h0a9.645,9.645,0,0,0,4.007-12.655A71.248,71.248,0,0,1,748.3,3563.594Z" transform="translate(-738.625 -3481.028)"/><path class="o" d="M744.982,3530.844a75.85,75.85,0,0,0-3.5,16.876" transform="translate(-738.211 -3473.822)"/><path class="o" d="M747.393,3524.068q-.819,1.793-1.548,3.633" transform="translate(-737.581 -3474.802)"/><ellipse class="h" cx="14.082" cy="14.082" rx="14.082" ry="14.082" transform="translate(67.164 67.163)"/><circle class="k" cx="9.848" cy="9.848" r="9.848" transform="translate(67.319 81.245) rotate(-45)"/></g><g transform="translate(0 75.055)"><g transform="translate(13.541 18.601)"><g transform="translate(52.649)"><g transform="translate(0 0)"><path class="p" d="M588.136,3560.389a.894.894,0,0,1-.2-.024.852.852,0,0,1-.624-1.031l15.056-61.36a.852.852,0,0,1,1.655.406l-15.056,61.36A.852.852,0,0,1,588.136,3560.389Z" transform="translate(-587.283 -3497.325)"/></g><g transform="translate(3.125)"><path class="p" d="M605.921,3560.389a.852.852,0,0,1-.828-.649l-15.056-61.36a.852.852,0,0,1,1.655-.406l15.055,61.36a.852.852,0,0,1-.625,1.031A.878.878,0,0,1,605.921,3560.389Z" transform="translate(-590.013 -3497.324)"/></g></g><g transform="translate(54.056 5.289)"><g transform="translate(0 5.966)"><path class="p" d="M589.365,3554.473a.853.853,0,0,1-.616-1.442l43.72-45.612a.852.852,0,0,1,1.231,1.18l-43.719,45.612A.853.853,0,0,1,589.365,3554.473Z" transform="translate(-588.512 -3507.157)"/></g><g transform="translate(15.745)"><path class="p" d="M603.121,3564.318a.867.867,0,0,1-.239-.034.854.854,0,0,1-.58-1.057l17.641-60.667a.852.852,0,0,1,1.637.476L603.938,3563.7A.853.853,0,0,1,603.121,3564.318Z" transform="translate(-602.268 -3501.946)"/></g></g><g transform="translate(57.522 25.703)"><g transform="translate(0 10.333)"><path class="p" d="M592.393,3548.153a.853.853,0,0,1-.238-1.671l60.668-17.64a.852.852,0,1,1,.476,1.636l-60.668,17.641A.859.859,0,0,1,592.393,3548.153Z" transform="translate(-591.54 -3528.807)"/></g><g transform="translate(9.091)"><path class="p" d="M600.335,3565.2a.852.852,0,0,1-.591-1.468l45.612-43.719a.852.852,0,1,1,1.179,1.23l-45.611,43.719A.853.853,0,0,1,600.335,3565.2Z" transform="translate(-599.482 -3519.78)"/></g></g><g transform="translate(62.118 52.649)"><path class="p" d="M657.769,3560.081a.831.831,0,0,1-.2-.025L596.205,3545a.852.852,0,1,1,.406-1.655l61.36,15.056a.852.852,0,0,1-.2,1.68Z" transform="translate(-595.555 -3543.32)"/><g transform="translate(0 3.125)"><path class="p" d="M596.408,3562.811a.852.852,0,0,1-.2-1.68l61.36-15.056a.852.852,0,0,1,.406,1.655l-61.36,15.055A.834.834,0,0,1,596.408,3562.811Z" transform="translate(-595.555 -3546.05)"/></g></g><g transform="translate(57.522 54.056)"><g transform="translate(9.091)"><path class="p" d="M645.945,3589.973a.849.849,0,0,1-.589-.237l-45.612-43.719a.852.852,0,1,1,1.18-1.23l45.611,43.719a.851.851,0,0,1-.589,1.467Z" transform="translate(-599.482 -3544.55)"/></g><g transform="translate(0 15.745)"><path class="p" d="M653.06,3577.651a.851.851,0,0,1-.238-.033l-60.668-17.641a.852.852,0,1,1,.476-1.637L653.3,3575.98a.852.852,0,0,1-.238,1.67Z" transform="translate(-591.54 -3558.305)"/></g></g><g transform="translate(54.056 57.521)"><g transform="translate(15.745)"><path class="p" d="M620.761,3609.95a.854.854,0,0,1-.818-.615L602.3,3548.668a.852.852,0,1,1,1.637-.476l17.641,60.667a.853.853,0,0,1-.818,1.091Z" transform="translate(-602.268 -3547.577)"/></g><g transform="translate(0 9.091)"><path class="p" d="M633.083,3602.835a.848.848,0,0,1-.615-.262l-43.72-45.612a.852.852,0,1,1,1.232-1.179l43.719,45.611a.853.853,0,0,1-.616,1.442Z" transform="translate(-588.512 -3555.519)"/></g></g><g transform="translate(52.649 62.117)"><g transform="translate(3.125 0)"><path class="p" d="M590.866,3614.657a.853.853,0,0,1-.828-1.055l15.056-61.36a.852.852,0,0,1,1.655.406l-15.055,61.361A.853.853,0,0,1,590.866,3614.657Z" transform="translate(-590.013 -3551.592)"/></g><path class="p" d="M603.191,3614.657a.852.852,0,0,1-.828-.648l-15.056-61.361a.852.852,0,1,1,1.655-.406l15.056,61.36a.851.851,0,0,1-.625,1.03A.828.828,0,0,1,603.191,3614.657Z" transform="translate(-587.283 -3551.592)"/></g><g transform="translate(25.703 57.522)"><g transform="translate(0 9.091)"><path class="p" d="M564.595,3602.835a.852.852,0,0,1-.615-1.442l43.719-45.611a.852.852,0,1,1,1.231,1.179l-43.719,45.612A.851.851,0,0,1,564.595,3602.835Z" transform="translate(-563.743 -3555.519)"/></g><g transform="translate(10.332)"><path class="p" d="M573.623,3609.95a.866.866,0,0,1-.239-.034.853.853,0,0,1-.58-1.057l17.641-60.667a.852.852,0,1,1,1.637.476l-17.641,60.667A.853.853,0,0,1,573.623,3609.95Z" transform="translate(-572.769 -3547.577)"/></g></g><g transform="translate(5.289 54.056)"><g transform="translate(0 15.745)"><path class="p" d="M546.76,3577.651a.852.852,0,0,1-.237-1.67l60.667-17.641a.852.852,0,0,1,.475,1.637L547,3577.617A.866.866,0,0,1,546.76,3577.651Z" transform="translate(-545.908 -3558.305)"/></g><g transform="translate(5.965)"><path class="p" d="M551.972,3589.973a.852.852,0,0,1-.59-1.467l45.612-43.719a.852.852,0,1,1,1.179,1.23l-45.611,43.719A.852.852,0,0,1,551.972,3589.973Z" transform="translate(-551.12 -3544.55)"/></g></g><g transform="translate(0 52.648)"><g transform="translate(0 3.125)"><path class="p" d="M603.5,3562.811a.827.827,0,0,1-.2-.025l-61.36-15.055a.852.852,0,1,1,.406-1.655l61.36,15.056a.853.853,0,0,1-.2,1.68Z" transform="translate(-541.287 -3546.05)"/></g><path class="p" d="M542.14,3560.081a.852.852,0,0,1-.2-1.68l61.36-15.056A.852.852,0,0,1,603.7,3545l-61.36,15.055A.838.838,0,0,1,542.14,3560.081Z" transform="translate(-541.287 -3543.32)"/></g><g transform="translate(5.289 25.703)"><g transform="translate(5.965)"><path class="p" d="M597.584,3565.2a.849.849,0,0,1-.589-.237l-45.612-43.719a.852.852,0,1,1,1.18-1.23l45.611,43.719a.852.852,0,0,1-.59,1.468Z" transform="translate(-551.12 -3519.78)"/></g><g transform="translate(0 10.333)"><path class="p" d="M607.428,3548.153a.854.854,0,0,1-.238-.034l-60.667-17.641a.852.852,0,1,1,.476-1.636l60.666,17.64a.853.853,0,0,1-.237,1.671Z" transform="translate(-545.908 -3528.807)"/></g></g><g transform="translate(25.703 5.289)"><g transform="translate(10.332)"><path class="p" d="M591.263,3564.318a.854.854,0,0,1-.818-.615L572.8,3503.035a.852.852,0,0,1,1.637-.476l17.641,60.667a.854.854,0,0,1-.818,1.091Z" transform="translate(-572.769 -3501.945)"/></g><g transform="translate(0 5.966)"><path class="p" d="M608.313,3554.473a.85.85,0,0,1-.615-.262L563.98,3508.6a.852.852,0,0,1,1.23-1.18l43.719,45.612a.852.852,0,0,1-.616,1.442Z" transform="translate(-563.743 -3507.157)"/></g></g></g><path class="k" d="M605.59,3485.5a76.132,76.132,0,1,0,76.132,76.133A76.13,76.13,0,0,0,605.59,3485.5Zm0,137.873a61.74,61.74,0,1,1,61.741-61.74A61.745,61.745,0,0,1,605.59,3623.368Z" transform="translate(-529.458 -3480.435)"/><path class="h" d="M605.174,3488.371a72.84,72.84,0,1,0,72.841,72.841A72.842,72.842,0,0,0,605.174,3488.371Zm0,134.581a61.741,61.741,0,1,1,61.741-61.74A61.745,61.745,0,0,1,605.174,3622.952Z" transform="translate(-529.042 -3480.019)"/><path class="e" d="M604.249,3494.762a65.525,65.525,0,1,0,65.524,65.526A65.522,65.522,0,0,0,604.249,3494.762Zm0,127.266a61.741,61.741,0,1,1,61.741-61.74A61.745,61.745,0,0,1,604.249,3622.027Z" transform="translate(-528.118 -3479.095)"/><g transform="translate(10.255)"><path class="j" d="M674.983,3522.218h0a9.517,9.517,0,0,1-12.969-2.274c-21.12-28.645-61.666-37.9-93.274-19.811a71.521,71.521,0,0,0-15.664,12.1,12.537,12.537,0,0,1-14.658,2.454,80.462,80.462,0,0,1,11.516-12.818,81.321,81.321,0,0,1,124.288,19.039C674.478,3521.342,674.733,3521.78,674.983,3522.218Z" transform="translate(-538.417 -3481.074)"/></g><ellipse class="k" cx="19.317" cy="19.317" rx="19.317" ry="19.317" transform="translate(56.815 61.875)"/><path class="o" d="M559.184,3495.207a76.44,76.44,0,0,0-9.179,7.1m14.654-10.382q-1.679.913-3.306,1.907" transform="translate(-526.486 -3479.505)"/></g><g transform="translate(266.641)"><path class="b" d="M800.517,3434.2a18.62,18.62,0,0,1-16.913,18.606l-9.125.876-11.408,1.085-.521-2.32a5.98,5.98,0,0,1,5.265-7.263l4.652-.445,10.266-.983a9.6,9.6,0,0,0,5.483-16.72,9.47,9.47,0,0,0-7.483-2.381l-6.971.79-1.023-9.028,6.972-.8a18.7,18.7,0,0,1,20.805,18.579Z" transform="translate(-762.403 -3415.504)"/></g><g transform="translate(266.857 11.255)"><path class="q" d="M798.939,3425.337a18.67,18.67,0,0,1-16.094,24.062l-9.124.875-11.129,1.059.452,2.016,11.408-1.085,9.125-.876a18.681,18.681,0,0,0,15.362-26.05Z" transform="translate(-762.592 -3425.337)"/></g><g transform="translate(136.988 36.936)"><path class="b" d="M654.81,3471.6a5.682,5.682,0,0,1-.535-11.337L784.55,3447.8a5.682,5.682,0,0,1,1.082,11.312l-130.274,12.463C655.174,3471.59,654.991,3471.6,654.81,3471.6Z" transform="translate(-649.135 -3447.772)"/></g><g transform="translate(231.084 41.031)"><line class="o" y1="0.559" x2="6.044" transform="translate(20.565)"/><line class="o" y1="1.675" x2="18.098" transform="translate(0 0.788)"/></g><path class="q" d="M790.623,3451.623a5.68,5.68,0,0,1-4.917,4.089l-130.274,12.463c-.183.017-.366.026-.547.026a5.68,5.68,0,0,1-5.525-4.408,5.674,5.674,0,0,0,5.451,7.249c.181,0,.364-.009.548-.026l130.274-12.463a5.649,5.649,0,0,0,4.991-6.93Z" transform="translate(-512.147 -3410.28)"/><g transform="translate(70.072 49.398)"><path class="b" d="M728.411,3572.119H596.356a5.681,5.681,0,0,1-4.751-8.8l66.917-102.1a5.681,5.681,0,1,1,9.5,6.229l-61.152,93.3H725.355l65.041-98.375a5.682,5.682,0,0,1,9.479,6.267l-66.726,100.923A5.681,5.681,0,0,1,728.411,3572.119Z" transform="translate(-590.675 -3458.66)"/></g><g transform="translate(70.093 50.623)"><path class="q" d="M666.249,3467.3l-.51.778-2.63,4.017L607.7,3556.622h-4.743l58.565-89.348,2.585-3.948a.523.523,0,0,0,.046-.075,5.647,5.647,0,0,0,.863-3.522A5.682,5.682,0,0,1,666.249,3467.3Z" transform="translate(-588.919 -3459.73)"/><path class="q" d="M799.874,3468.347l-3.3,4.989-2.256,3.416-61.172,92.516a5.674,5.674,0,0,1-4.738,2.546H596.352a5.687,5.687,0,0,1-5-2.977,5.761,5.761,0,0,1-.659-2.222,5.69,5.69,0,0,0,3.522,1.222H726.27a5.674,5.674,0,0,0,4.739-2.546l62.1-93.927,2.262-3.414,2.362-3.579a5.654,5.654,0,0,0,.921-3.614A5.681,5.681,0,0,1,799.874,3468.347Z" transform="translate(-590.693 -3459.581)"/></g><g transform="translate(130.078 12.504)"><path class="b" d="M691.847,3568.329a6.252,6.252,0,0,1-5.936-4.3l-42.5-129.4a6.25,6.25,0,1,1,11.876-3.9l42.5,129.4a6.255,6.255,0,0,1-5.94,8.2Z" transform="translate(-643.098 -3426.428)"/></g><path class="q" d="M692.233,3562.744c-.011,0-.017.006-.029.011a6.246,6.246,0,0,1-7.886-3.988l-28.612-87.115-1.585-4.823,2.585-3.948a.523.523,0,0,0,.046-.075l1.585,4.829,29.929,91.131A6.256,6.256,0,0,0,692.233,3562.744Z" transform="translate(-511.425 -3408.662)"/><g transform="translate(75.568 163.643)"><rect class="h" width="3.409" height="106.157" transform="translate(0 3.389) rotate(-83.769)"/></g><g transform="translate(75.486 129.183)"><rect class="h" width="103.632" height="3.409" transform="matrix(0.988, -0.157, 0.157, 0.988, 0, 16.293)"/></g><path class="e" d="M691.523,3528.182a25,25,0,1,0,25,25A25,25,0,0,0,691.523,3528.182Zm0,43.16a18.162,18.162,0,1,1,18.163-18.162A18.162,18.162,0,0,1,691.523,3571.342Z" transform="translate(-509.631 -3399.206)"/><ellipse class="j" cx="12.499" cy="12.499" rx="12.499" ry="12.499" transform="translate(169.393 141.475)"/><ellipse class="k" cx="7.322" cy="7.322" rx="7.322" ry="7.322" transform="translate(173.167 148.397) rotate(-12.414)"/><g transform="translate(48.198 68.888)"><rect class="h" width="4.545" height="92.835" transform="translate(0 0.864) rotate(-10.954)"/></g><g transform="translate(80.154 68.888)"><rect class="h" width="92.835" height="4.545" transform="translate(0 91.143) rotate(-79.044)"/></g><path class="k" d="M638.187,3478.624h-75.04a2.273,2.273,0,0,1-2.272-2.272h0a2.273,2.273,0,0,1,2.272-2.273h75.04a2.273,2.273,0,0,1,2.272,2.273h0A2.273,2.273,0,0,1,638.187,3478.624Z" transform="translate(-524.914 -3407.031)"/><path class="h" d="M561.172,3477.1a2.265,2.265,0,0,0,1.932,1.09h75.04a2.266,2.266,0,0,0,1.932-1.09Z" transform="translate(-524.871 -3406.595)"/><g transform="translate(62.05 142.165)"><ellipse class="p" cx="14.082" cy="14.082" rx="14.082" ry="14.082"/><ellipse class="k" cx="9.848" cy="9.848" rx="9.848" ry="9.848" transform="translate(2.247 21.424) rotate(-76.817)"/><ellipse class="p" cx="4.595" cy="4.595" rx="4.595" ry="4.595" transform="translate(8.556 17.503) rotate(-76.764)"/></g><g transform="translate(266.4 29.237)"><path class="b" d="M819.865,3572.607a5.686,5.686,0,0,1-7.954-1.147l-31.123-41.651L763.1,3451.075l-.789-3.512a4.905,4.905,0,0,1,4.319-5.956l5.866-.561,2.011,8.943,16.834,74.96,29.669,39.7A5.683,5.683,0,0,1,819.865,3572.607Z" transform="translate(-762.193 -3441.047)"/></g><path class="q" d="M818.514,3568.89a5.675,5.675,0,0,1-7.375-1.522l-31.123-41.651-11.278-50.207-1.21-5.387h0a1.744,1.744,0,0,1,3.156.583l.31,1.389,11.875,52.867,31.123,41.651A5.681,5.681,0,0,0,818.514,3568.89Z" transform="translate(-495.021 -3407.717)"/></g><path class="r" d="M812.853,3421.9h-.379" transform="translate(-488.52 -3236.924)"/><line class="s" x1="19.395" y1="15.121" transform="translate(144.512 349.81)"/><line class="m" x1="25.911" y2="24.999" transform="translate(155.981 331.629)"/><g transform="translate(94.353 160.313)"><path class="j" d="M699.656,3469.57l-32.082-69.216-55.686,5.063c0,31.542,40.938,43.914,57.736,69.236a9.862,9.862,0,0,1,1.044,8.647c-9.592,28.073-9.64,56.722-12.039,77.709l20.062,5.944L701,3485.773A23.631,23.631,0,0,0,699.656,3469.57Z" transform="translate(-611.888 -3400.354)"/><path class="e" d="M673.31,3546.478l5.214,15.528a30.206,30.206,0,0,0,4.08,7.823l8.24,11.37a4.272,4.272,0,0,1,.073,4.911l-2.206,3.245a1.832,1.832,0,0,1-2.641.415l-41.995-32.741a2.2,2.2,0,0,1-.754-2.369c1.583-5.2,4.686-9.97,8.7-14.487Z" transform="translate(-607.355 -3380.13)"/><path class="f" d="M658.254,3564.229c-7.113-7.254-3.133-16.832-.7-22.42l-5.532-1.639c-4.014,4.517-7.117,9.289-8.7,14.487a2.2,2.2,0,0,0,.754,2.369l23.264,18.137A79.709,79.709,0,0,0,658.254,3564.229Z" transform="translate(-607.355 -3380.13)"/><line class="t" x1="9.25" y2="5.545" transform="translate(59.564 174.862)"/><line class="t" x1="7.902" y2="4.737" transform="translate(63.226 181.472)"/><line class="t" x1="6.555" y2="3.929" transform="translate(67.851 188.051)"/><line class="u" x1="41.995" y1="32.742" transform="translate(35.855 177.83)"/><g class="v"><path class="h" d="M632.383,3402.113c-.1,6.629-1.231,25.308,12.4,35.225,13.315,9.683,42.8,37,39.077,45.452-15.353,34.847-19.6,70.664-15.972,77.647,2.462,4.735,11.878,3.958,14.337,6.628,1.483,1.613-3.353,5.871-3.353,5.871l-39.2-10.14-49.662-112.012,13.636-67.042Z" transform="translate(-615.052 -3402.757)"/></g></g><g transform="translate(92.274)"><path class="h" d="M1.809,0h.73A1.809,1.809,0,0,1,4.348,1.809V2.9a0,0,0,0,1,0,0H0a0,0,0,0,1,0,0V1.809A1.809,1.809,0,0,1,1.809,0Z" transform="translate(104.248 0.809) rotate(-10.723)"/><path class="w" d="M712.551,3319.347l-.346.841-1.062,2.563-3.46,8.34-25.447-5.022,10.215-23.851Z" transform="translate(-599.632 -3254.236)"/><path class="x" d="M699.425,3311.554a37.884,37.884,0,0,0,9.48,9.246l.814-1.962.136-.331A36.646,36.646,0,0,1,699.425,3311.554Z" transform="translate(-597.146 -3252.885)"/><path class="y" d="M614.236,3400.491l-4.165,17.1,16.293,2.382a83.371,83.371,0,0,0,52.33-9.5l9.827-5.422-1.939-5.266Z" transform="translate(-610.071 -3240.122)"/><g transform="translate(88.366 17.105)"><path class="w" d="M728.927,3302.886l4.286-.677a1.828,1.828,0,0,0,1.394-2.526l-5.658-13.176c.6-3.725,1.447-5.824.943-11.264l-42.449,4.247c-.106,1.244-.173,2.5-.173,3.771,0,8.883,1.153,17.157,5.1,24.052a37.685,37.685,0,0,0,33.739,19.429h0a4.986,4.986,0,0,0,4.953-4.8l.048-1.308a48.822,48.822,0,0,0-1.4-13.565l-.967-3.9A.233.233,0,0,1,728.927,3302.886Z" transform="translate(-687.27 -3275.243)"/></g><rect class="h" width="2.966" height="4.041" rx="1.296" transform="translate(123.118 32.885)"/><path class="z" d="M718.689,3290.563h0a.617.617,0,0,0,.618-.617h0a.617.617,0,0,0-.618-.617h0a.616.616,0,0,0-.617.617h0A.616.616,0,0,0,718.689,3290.563Z" transform="translate(-594.449 -3256.1)"/><path class="aa" d="M711.407,3306.994a26.669,26.669,0,0,0,12.875.826" transform="translate(-595.413 -3253.545)"/><path class="ab" d="M723.841,3299.776l-1.129.137a1.426,1.426,0,0,1-1.583-1.2h0" transform="translate(-594.007 -3254.742)"/><path class="ab" d="M698.205,3311.09a16.908,16.908,0,0,0,6.213,5.312" transform="translate(-597.323 -3252.953)"/><path class="ab" d="M719.02,3317.7a5.248,5.248,0,0,0,5.4-1.7" transform="translate(-594.312 -3252.244)"/><path class="ac" d="M690.679,3289.342c0-1.272.066-2.527.173-3.77l38.962-3.9a26.569,26.569,0,0,0,.079-6.431l-42.449,4.247c-.106,1.244-.173,2.5-.173,3.771,0,8.883,1.153,17.157,5.1,24.052C692.944,3308.317,690.679,3296.906,690.679,3289.342Z" transform="translate(-598.904 -3258.138)"/><path class="h" d="M728.6,3281.122a3.009,3.009,0,0,1-4.4-3.1,3.023,3.023,0,1,0,3.125,5.165A3.014,3.014,0,0,0,728.6,3281.122Z" transform="translate(-593.797 -3257.736)"/><path class="h" d="M688.208,3292.559a3.986,3.986,0,0,1-4.576,5.477,4.007,4.007,0,1,0,7.162-3.563A3.991,3.991,0,0,0,688.208,3292.559Z" transform="translate(-599.43 -3255.633)"/><path class="h" d="M690.515,3296.018a3.986,3.986,0,0,1-4.576,5.477,4.007,4.007,0,1,0,7.162-3.564A3.989,3.989,0,0,0,690.515,3296.018Z" transform="translate(-599.097 -3255.133)"/><path class="h" d="M725.287,3280.61a3.009,3.009,0,0,1-4.4-3.1,2.85,2.85,0,0,0-.3.161,3.03,3.03,0,1,0,4.7,2.939Z" transform="translate(-594.276 -3257.81)"/><path class="ac" d="M684.508,3325.463l8.655-20.208a2.632,2.632,0,0,0-.712-3.038h0l-10.216,23.85,25.448,5.022.4-.973Z" transform="translate(-599.633 -3254.236)"/><path class="b" d="M694.326,3313.41c5.272,3.9,11.77,8.226,20.085,10.863a2.486,2.486,0,0,1,1.31,3.73l-10.42,15.923s-7.992-8.529-7.992-9.1S694.326,3313.41,694.326,3313.41Z" transform="translate(-597.884 -3252.617)"/><path class="q" d="M710.24,3335.015c-2.611-5.389-6.755-12.439-11.918-16.111l-.5-.057c-.252,4.159-.893,14.74-.893,15.2,0,.418,4.314,5.133,6.6,7.6l2.28.13Z" transform="translate(-597.507 -3251.831)"/><path class="q" d="M648.765,3321.734c-.826-7.239,15.244-17.881,27.037-23.872a11.272,11.272,0,0,1,10.778.3,44.061,44.061,0,0,1,8.326,6.267c5.087,4.882,8.081,14.584,7.323,21.593-.3,2.779-.892,3.541-.892,3.541S649.883,3331.521,648.765,3321.734Z" transform="translate(-604.478 -3255.043)"/><path class="b" d="M692.73,3304.431a44.061,44.061,0,0,0-8.326-6.267,11.272,11.272,0,0,0-10.778-.3c-2.1,1.065-4.329,2.279-6.578,3.593-2.221,3.544-3.493,6.965-3.245,9.964.7,8.467,21.144,10.571,36.327,10.96C699.768,3315.953,696.98,3308.509,692.73,3304.431Z" transform="translate(-602.303 -3255.043)"/><path class="q" d="M703.3,3331.5c.022-.586.042-1.128.056-1.64a16.75,16.75,0,0,0-5.742-13.234,8.918,8.918,0,0,0-3.034-1.811,154.337,154.337,0,0,0-19.612-4.96,21.869,21.869,0,0,0-17.578,4.594c-.325.267-.66.552-.99.828C660.773,3324.64,684.844,3329.285,703.3,3331.5Z" transform="translate(-603.369 -3253.178)"/><path class="e" d="M691.965,3282.676a124.377,124.377,0,0,0-22.542,5.618,1.76,1.76,0,0,0-1.168,1.985h0a1.762,1.762,0,0,0,2.192,1.383c13.137-3.515,18.9-3.27,24.895-3.144l.175-6.552Z" transform="translate(-601.659 -3257.166)"/><path class="e" d="M691.965,3282.676a124.377,124.377,0,0,0-22.542,5.618,1.76,1.76,0,0,0-1.168,1.985h0a1.762,1.762,0,0,0,2.192,1.383c13.137-3.515,18.9-3.27,24.895-3.144l.175-6.552Z" transform="translate(-601.659 -3257.166)"/><path class="f" d="M668.438,3290.324a1.759,1.759,0,0,0,1.979.825c11.822-3.164,17.67-3.281,23.092-3.182l.18-2.461-3.582.547A121.511,121.511,0,0,0,668.438,3290.324Z" transform="translate(-601.628 -3256.653)"/><path class="h" d="M685.073,3282.925c0,8.6,1.036,16.653,4.445,23.533l.575.52c3.409,0,7.764-10.228,7.764-16.855s5.978-6.629,7.913-4.735,1.178,6.44,4.776,7.575,4.924.379,4.924.379l-.08-1.113a33.417,33.417,0,0,1,2.487-15.27l.434-1.04v0l-33.054,3.053C685.143,3280.273,685.073,3281.591,685.073,3282.925Z" transform="translate(-599.222 -3258.041)"/><path class="x" d="M701.114,3285.7a3.093,3.093,0,0,0-5.212.887,8.516,8.516,0,0,0,1.434,8.427,3.093,3.093,0,0,0,5.212-.887,8.516,8.516,0,0,0-1.434-8.427Z" transform="translate(-597.734 -3256.779)"/><path class="w" d="M701.585,3283.719a3.586,3.586,0,0,0-6.041,1.029,9.867,9.867,0,0,0,1.663,9.771,3.585,3.585,0,0,0,6.042-1.028,9.87,9.87,0,0,0-1.663-9.772Z" transform="translate(-597.798 -3257.091)"/><path class="ab" d="M697.828,3284.706c.584-.431,2.985-.243,3.538,3.331" transform="translate(-597.377 -3256.793)"/><path class="x" d="M700.954,3291.1a1.845,1.845,0,0,1-3.108.529,4.7,4.7,0,0,1-.965-1.813c-.109-1.488.085-1.977.794-2.22a4.652,4.652,0,0,0,.063.619,4.9,4.9,0,0,0,1.1,2.4,1.8,1.8,0,0,0,1.38.636A1.9,1.9,0,0,0,700.954,3291.1Z" transform="translate(-597.518 -3256.351)"/><path class="k" d="M684.147,3286.788l-.476-6.615a15.061,15.061,0,0,1,12.386-15.907l19.332-3.436a12.8,12.8,0,0,1,14.94,11.024l1.437,11.575Z" transform="translate(-599.431 -3260.251)"/><g transform="translate(94.202 6.377)"><line class="ad" x1="0.017" y1="0.273" transform="translate(0.322 15.247)"/><path class="ae" d="M692.581,3279.249l-.183-2.951a14.851,14.851,0,0,1,2.8-9.636" transform="translate(-692.369 -3265.756)"/><path class="ad" d="M695.3,3266.081c.058-.071.117-.141.176-.21" transform="translate(-691.944 -3265.871)"/></g><g transform="translate(108.269 4.735)"><path class="ad" d="M704.658,3264.436a2.518,2.518,0,0,1,.043.268" transform="translate(-704.658 -3264.436)"/><path class="af" d="M704.86,3266.174c.338,3.418.918,10.242,1.145,12.94" transform="translate(-704.629 -3264.185)"/><path class="ad" d="M705.924,3278.234l.023.27" transform="translate(-704.475 -3262.44)"/></g><g transform="translate(115.582 3.274)"><line class="ad" x2="0.26" y2="0.087"/><path class="ag" d="M712.622,3263.723a8.983,8.983,0,0,1,5.3,7.4l.647,7.114" transform="translate(-710.819 -3263.079)"/><line class="ad" x2="0.025" y2="0.273" transform="translate(7.825 15.974)"/></g><line class="ah" x1="47.227" y2="3.36" transform="translate(84.581 20.799)"/><path class="h" d="M724.975,3272.511l-.445.453a6.432,6.432,0,0,0-1.805,5.193l.148,1.357,2.931-.323Z" transform="translate(-593.781 -3258.533)"/><rect class="h" width="6.25" height="1.567" transform="matrix(0.995, -0.102, 0.102, 0.995, 121.141, 30.582)"/><g transform="translate(1.506 59.243)"><path class="b" d="M611.387,3420.982c7.24-43.483,31.042-79.147,49.615-98.908q1.856-1.975,3.637-3.736a21.867,21.867,0,0,1,17.071-6.218,139.672,139.672,0,0,1,18.935,2.778,23.846,23.846,0,0,1,16.87,32.695c-10.811,25.247-23.637,55.875-27.182,68.637C674.51,3428.557,648.395,3435.941,611.387,3420.982Z" transform="translate(-611.387 -3312.056)"/><g class="ai"><path class="q" d="M644.593,3334.765l28.034-23.241,5.986,5.386c10.112,11.664,4.533,18.522,9.141,25.578,10.533,16.128,12.8,12.708,14.8,26.765h0l-8.267.41a27.621,27.621,0,0,0-25.911,23.235l-.208,1.31a51.713,51.713,0,0,1-33.173,40.37l-10.879,4.012-34.1-11.078,31.572-80.958Z" transform="translate(-614.479 -3312.132)"/></g></g><g transform="translate(72.603 120.143)"><rect class="h" width="26.8" height="10.226" transform="translate(0 24.025) rotate(-63.695)"/></g><g transform="translate(2.999 116.363)"><path class="h" d="M704.192,3370.924c-32.806,17.981-62.786,29.464-91.5,35.026q1.2-5.608,2.756-11.01c26.248-5.67,53.769-16.5,83.824-32.982Z" transform="translate(-612.691 -3361.958)"/></g><line class="aj" y1="11.822" x2="5.899" transform="translate(77.845 121.743)"/><g transform="translate(72.603 75.683)"><path class="ac" d="M762.531,3412.576l17.994-1.161a1.45,1.45,0,0,1,1.525,1.217h0a3.4,3.4,0,0,1-3.112,3.935l-16.1,1.183Z" transform="translate(-660.621 -3314.125)"/><path class="w" d="M757.974,3410.146l12.843-4.519a2.95,2.95,0,0,1,3.315.982l12.318,15.991a1.919,1.919,0,0,1-.311,2.661l-9.142,7.41a2.785,2.785,0,0,1-3.519-.008h0a2.785,2.785,0,0,1-.5-3.776l4.661-6.522-5.493-3.37-3.433,10.3h0a24.426,24.426,0,0,1-18-4.656l-1.572-1.179Z" transform="translate(-662.557 -3314.985)"/><ellipse class="h" cx="9.09" cy="9.09" rx="9.09" ry="9.09" transform="translate(101.91 98.311)"/><ellipse class="z" cx="4.355" cy="4.355" rx="4.355" ry="4.355" transform="translate(106.002 103.802) rotate(-9.24)"/><g transform="translate(0)"><path class="b" d="M708.389,3326.418l12.954,50.277,47.958,45.232-8.945,13.1-54.038-37.987L673.5,3343.1Z" transform="translate(-673.499 -3326.418)"/><g class="ak"><line class="b" x2="12.954" y2="50.277" transform="translate(34.89)"/></g></g><g transform="translate(0)"><path class="b" d="M708.389,3326.418l12.954,50.277,47.958,45.232-8.945,13.1-54.038-37.987L673.5,3343.1Z" transform="translate(-673.499 -3326.418)"/><g class="ak"><line class="b" x2="12.954" y2="50.277" transform="translate(34.89)"/></g></g><line class="b" x2="12.954" y2="50.277" transform="translate(34.89)"/><path class="b" d="M721.343,3376.7l-12.954-50.277L673.5,3343.1l32.818,53.935,54.038,37.987,8.945-13.1Z" transform="translate(-673.499 -3326.418)"/><path class="q" d="M709.291,3393.877l-21.252-38.445-11.566-15.491-2.973,1.205,32.818,53.935,54.038,37.987.99-1.449Z" transform="translate(-673.499 -3324.462)"/><path class="q" d="M676.547,3339.721l-3.048,1.457,14.671,24.111,2.305-.115h0C688.532,3351.512,686.337,3354.354,676.547,3339.721Z" transform="translate(-673.499 -3324.495)"/><line class="al" x1="9.839" y1="16.856" transform="translate(10.865 34.54)"/></g><path class="am" d="M687.336,3285.3a38.1,38.1,0,0,0,1.138,8.144" transform="translate(-598.895 -3256.683)"/><path class="am" d="M691.644,3293.167c.334,2.232.789,3.969.789,3.969" transform="translate(-598.272 -3255.545)"/><path class="am" d="M708.511,3283.48a7.557,7.557,0,0,0-.468,5.113" transform="translate(-595.938 -3256.946)"/><path class="an" d="M713.015,3377.569a15.692,15.692,0,0,1,3.485-6.476" transform="translate(-595.18 -3244.273)"/><path class="an" d="M710.848,3375.664a15.683,15.683,0,0,1,5.224-5.176" transform="translate(-595.494 -3244.361)"/><line class="an" x2="7.812" y2="22.179" transform="translate(105.675 78.356)"/><path class="an" d="M687.812,3309.586a14.632,14.632,0,0,1-10.049-6.729" transform="translate(-600.279 -3254.143)"/><path class="an" d="M684.125,3305.061a5.328,5.328,0,0,1,4.153,1.465" transform="translate(-599.359 -3253.826)"/><path class="an" d="M649.779,3408.321a50.277,50.277,0,0,0,22.726-.061" transform="translate(-604.327 -3238.897)"/><path class="an" d="M646.677,3412.167c1.647.8,5.008.522,7.816.078" transform="translate(-604.776 -3238.332)"/></g><ellipse class="n" cx="4.829" cy="4.829" rx="4.829" ry="4.829" transform="translate(137.062 327.51)"/><g transform="translate(192.371 276.635)"><g class="ao"><ellipse class="ap" cx="11.381" cy="11.381" rx="11.381" ry="11.381" transform="matrix(0.387, -0.922, 0.922, 0.387, -14.554, 25.853)"/></g></g><path class="aq" d="M683.53,3469.568a29.434,29.434,0,0,0-2.452,11.03" transform="translate(-507.526 -3230.029)"/><path class="aq" d="M634.47,3429.382c6.515,3.35,10.878,4.274,14.534,4.4" transform="translate(-514.268 -3235.842)"/><path class="aq" d="M688.5,3474.965a31.416,31.416,0,0,1-5.812,9.91" transform="translate(-507.293 -3229.248)"/><path class="aq" d="M695.865,3420.779a37.671,37.671,0,0,1,11.593,9.848" transform="translate(-505.387 -3237.086)"/></g><line class="aq" x2="121.831" transform="translate(218.169 410.034)"/><line class="aq" x2="7.954" transform="translate(205.102 410.034)"/><line class="aq" x2="194.369" transform="translate(0 410.034)"/><g transform="translate(184.243 124.766)"><rect class="j" width="11.892" height="5.113" transform="matrix(0.896, 0.445, -0.445, 0.896, 2.274, 0)"/><path class="h" d="M689.546,3376.821l-8.875-4.4.551-1.1,8.875,4.4Z" transform="translate(-678.652 -3369.006)"/></g></g><g transform="translate(469.112 54.009)"><ellipse class="ar" cx="16.376" cy="16.376" rx="16.376" ry="16.376"/><ellipse class="e" cx="10.772" cy="10.772" rx="10.772" ry="10.772" transform="matrix(0.889, -0.458, 0.458, 0.889, 1.864, 11.74)"/></g><g transform="translate(542.226 260.69)"><path class="c" d="M935.741,3452.922a18.032,18.032,0,0,0,3.361-10.5v-20.16a18.115,18.115,0,0,0-18.115-18.115h0a18.115,18.115,0,0,0-18.116,18.115v20.16a18.032,18.032,0,0,0,3.361,10.5,23.327,23.327,0,1,0,29.51,0Z" transform="translate(-897.659 -3404.143)"/><line class="d" y1="106.681" transform="translate(23.327 17.36)"/></g><g transform="translate(506.97 260.69)"><path class="j" d="M904.942,3452.922a18.024,18.024,0,0,0,3.361-10.5v-20.16a18.114,18.114,0,0,0-18.115-18.115h0a18.115,18.115,0,0,0-18.116,18.115v20.16a18.025,18.025,0,0,0,3.362,10.5,23.327,23.327,0,1,0,29.509,0Z" transform="translate(-866.859 -3404.143)"/><line class="d" y1="106.681" transform="translate(23.328 17.36)"/></g><g transform="translate(34.68 260.69)"><path class="c" d="M492.334,3452.922a18.032,18.032,0,0,0,3.361-10.5v-20.16a18.115,18.115,0,0,0-18.116-18.115h0a18.115,18.115,0,0,0-18.115,18.115v20.16a18.032,18.032,0,0,0,3.361,10.5,23.327,23.327,0,1,0,29.51,0Z" transform="translate(-454.252 -3404.143)"/><line class="d" y1="106.681" transform="translate(23.327 17.36)"/></g><g transform="translate(5.866 214.771)"><path class="c" d="M443.442,3364.027H461a3.71,3.71,0,0,1,3.711,3.71v2.274H439.731v-2.274A3.71,3.71,0,0,1,443.442,3364.027Z" transform="translate(-427.538 -3364.027)"/><path class="c" d="M443.828,3373.351h15.214a4.1,4.1,0,0,0,4.1-4.1H439.731A4.1,4.1,0,0,0,443.828,3373.351Z" transform="translate(-427.538 -3363.271)"/><g transform="translate(3.266 3.165)"><path class="c" d="M431.932,3452.422h3.192v-76.7a5.742,5.742,0,0,1,5.735-5.735v-3.191a8.937,8.937,0,0,0-8.927,8.926Z" transform="translate(-431.932 -3366.792)"/></g><path class="c" d="M430.941,3441.729h6l1.862,43.931h-9.725Z" transform="translate(-429.079 -3352.787)"/></g><line class="d" x2="45.556" transform="translate(519.997 384.731)"/><line class="d" x2="28.552" transform="translate(43.731 384.731)"/><path class="y" d="M449.379,3270.756c9.886-3.6,17.3-11.758,25.99-17.683,3.543-2.413,7.469-4.515,11.74-4.894s8.94,1.3,11.117,4.994c1.346,2.284,1.728,5.218,3.75,6.933,3.485,2.958,8.761.216,12.277-2.706,5.175-4.3,10.225-9.141,16.641-11.166s14.73-.072,17.312,6.141c1.178,2.839,1.1,6.3,3.189,8.554,2.223,2.393,5.91,2.4,9.093,3.132s6.68,3.527,5.582,6.6Z" transform="translate(-420.277 -3166.405)"/><path class="y" d="M615,3205.111c17.606,2.036,30.59-19.458,48.031-22.616,4.66-.844,10.189.105,13.447,3.177a11.509,11.509,0,0,0,12.818,2.268c2.9-1.379,5.727-3.254,8.466-4.828a50.815,50.815,0,0,1,27.1-6.68,17.11,17.11,0,0,1,8,1.857c5.038,2.923,6.38,9.015,6.484,15.12a5.612,5.612,0,0,0,6.945,5.38,46.288,46.288,0,0,1,6.211-1.4c4.513-.475,10.16,4.142,7.368,7.721Z" transform="translate(-396.319 -3176.396)"/></svg>