<svg xmlns="http://www.w3.org/2000/svg" width="29.465" height="29.466" viewBox="0 0 29.465 29.466"><defs><style>.a{fill:#9ca1a6;fill-rule:evenodd;}</style></defs><path class="a" d="M4157.321,2533.157a2.21,2.21,0,1,0-2.211-2.21A2.209,2.209,0,0,0,4157.321,2533.157Zm-7.369,0a2.21,2.21,0,1,0-2.209-2.21A2.209,2.209,0,0,0,4149.953,2533.157Zm-7.366,0a2.21,2.21,0,1,0-2.208-2.21A2.208,2.208,0,0,0,4142.586,2533.157Zm-7.365-11.216a3.756,3.756,0,0,1,.95-2.536,2.9,2.9,0,0,1,2.144-.98h23.277a2.919,2.919,0,0,1,2.229,1.078,3.768,3.768,0,0,1,.865,2.439v18.032a3.739,3.739,0,0,1-.983,2.573,2.9,2.9,0,0,1-2.11.945h-19.917a1.963,1.963,0,0,0-1.186.477s-3.575,3.4-3.74,3.558a1.184,1.184,0,0,1-.947.363h0a.623.623,0,0,1-.582-.667Z" transform="translate(-4135.222 -2518.425)"/></svg>