<svg xmlns="http://www.w3.org/2000/svg" width="29.514" height="26.627" viewBox="0 0 29.514 26.627"><defs><style>.a{fill:#9ca1a6;}</style></defs><path class="a" d="M4230.287,2519.513c4.171,0,7.429,2.922,8.312,7.34,1.4,7.183-3.018,14.616-13.015,18.68-.27.107-1.51.561-1.51.561s-1.176-.454-1.445-.561c-10.015-3.974-14.439-11.419-13.036-18.646.855-4.458,4.13-7.42,8.313-7.42a8.067,8.067,0,0,1,4.572,1.215,3.872,3.872,0,0,1,1.6,1.835,5.154,5.154,0,0,1,1.662-1.835A7.9,7.9,0,0,1,4230.287,2519.513Z" transform="translate(-4209.339 -2519.467)"/></svg>