<svg xmlns="http://www.w3.org/2000/svg" width="1807.269" height="84.927" viewBox="0 0 1807.269 84.927"><defs><style>.a{fill:#ffa900;}</style></defs><g transform="translate(-4509.469 -1531.188)"><path class="a" d="M6316.738,1573.652a4.811,4.811,0,0,1-1.412,3.41l-37.641,37.641a4.823,4.823,0,0,1-6.821-6.821l34.232-34.23-34.232-34.231a4.823,4.823,0,0,1,6.821-6.821l37.641,37.641A4.813,4.813,0,0,1,6316.738,1573.652Z"/><path class="a" d="M4509.469,1573.652a4.813,4.813,0,0,1,1.412-3.411l37.641-37.641a4.823,4.823,0,0,1,6.821,6.821l-34.231,34.231,34.231,34.23a4.823,4.823,0,1,1-6.821,6.821l-37.641-37.641A4.811,4.811,0,0,1,4509.469,1573.652Z"/></g></svg>