<svg xmlns="http://www.w3.org/2000/svg" width="213.587" height="113.449" viewBox="0 0 213.587 113.449"><defs><style>.a{fill:#ffa900;}.b{fill:#080e3a;}.c{fill:#ffd485;}.d{fill:none;stroke:#ffd485;stroke-miterlimit:10;stroke-width:1.192px;}.e{fill:#f9dcea;}</style></defs><g transform="translate(-5059.287 -1145.143)"><path class="a" d="M5230.549,1171.193l10.863-18.771,5.582,3.23-8.994,15.54,9.928,17.156L5238,1205.505l9.928,17.156L5238,1239.819l8.994,15.543-5.582,3.23-10.863-18.773,9.928-17.158-9.928-17.156,9.928-17.156Z"/><path class="a" d="M5209.362,1171.193l10.863-18.771,5.582,3.23-8.994,15.54,9.928,17.156-9.928,17.156,9.928,17.156-9.928,17.158,8.994,15.543-5.582,3.23-10.863-18.773,9.928-17.158-9.928-17.156,9.928-17.156Z"/><path class="a" d="M5188.176,1171.193l10.863-18.771,5.582,3.23-8.994,15.54,9.928,17.156-9.928,17.156,9.928,17.156-9.928,17.158,8.994,15.543-5.582,3.23-10.863-18.773,9.928-17.158-9.928-17.156,9.928-17.156Z"/><path class="a" d="M5166.989,1171.193l10.863-18.771,5.582,3.23-8.994,15.54,9.928,17.156-9.928,17.156,9.928,17.156-9.928,17.158,8.994,15.543-5.582,3.23-10.863-18.773,9.928-17.158-9.928-17.156,9.928-17.156Z"/><path class="b" d="M5059.452,1216.043s-3.982-50.092,27.2-50.266,36.81,14.3,36.81,14.3,8.051-27.408,25.682-13.995,19.381,52.42,6.474,59.091-19.958,1.984-25.185-3.749c0,0-8.449,22.06-30.753,25.874S5064.04,1232.084,5059.452,1216.043Z"/><ellipse class="c" cx="10.821" cy="8.829" rx="10.821" ry="8.829" transform="translate(5113.29 1206.711) rotate(-82.96)"/><path class="b" d="M5239.545,1169.817c.268-.754-4.025-10.25-.044-12.732s10.771,2.731,10.771,2.731l5.27-4.421c3.952-3.317,8.281-6.849,10.2-2.9s9.728,26.743,6.257,28.282-8.1.792-11.739-1.975-8.341,2.38-10.249,4.724a4.249,4.249,0,0,1-7.458-1.578C5241.333,1178,5239.545,1169.817,5239.545,1169.817Z"/><path class="d" d="M5260.819,1156.572l-.761-5.168s2.26-1.3.8-4.361-5.734.034-4.278,1.7a10.207,10.207,0,0,0,2.4,2.177"/><path class="d" d="M5253.233,1159.92l-.761-5.167s2.259-1.3.8-4.362-5.734.035-4.278,1.7a10.207,10.207,0,0,0,2.4,2.177"/><path class="d" d="M5243.971,1158.425l-.761-5.167s2.26-1.3.8-4.362-5.734.035-4.278,1.7a10.207,10.207,0,0,0,2.4,2.177"/><path class="d" d="M5265.047,1177.562l1.3,5.058s2.585.32,2.428,3.712-5.3,2.187-4.6.087a10.2,10.2,0,0,1,1.369-2.936"/><path class="d" d="M5256.756,1177.412l1.3,5.058s2.585.32,2.428,3.712-5.3,2.187-4.6.087a10.2,10.2,0,0,1,1.369-2.936"/><path class="d" d="M5248.795,1182.375l1.3,5.059s2.585.32,2.428,3.711-5.3,2.188-4.6.088a10.2,10.2,0,0,1,1.369-2.936"/><rect class="b" width="13.97" height="93.798" transform="translate(5241.379 1165.826) rotate(78.612)"/><rect class="e" width="0.57" height="169.855" transform="translate(5252.083 1168.516) rotate(78.612)"/><rect class="e" width="0.57" height="169.855" transform="translate(5252.984 1172.986) rotate(78.612)"/></g></svg>