<svg xmlns="http://www.w3.org/2000/svg" width="193.923" height="305.465" viewBox="0 0 193.923 305.465"><defs><style>.a{fill:#f7c0a0;}.b{fill:#f58030;}.c{fill:#004f9b;}.d{fill:#00aaef;}.e{fill:#ffcb30;}.f{fill:#fea431;}.g{fill:#fff;}.h{fill:#bf595d;}.i{fill:#08257d;}.j{fill:#1d4f9e;}</style></defs><path class="a" d="M4970.739,3476.462l18.747-4.722,18.494,9.05v5.084h-41.694a2.4,2.4,0,0,1-1.568-4.216Z" transform="translate(-4850.338 -3239.938)"/><g transform="translate(67.367 114.974)"><path class="b" d="M4981.521,3405.737l-33.374,39.457a18.426,18.426,0,0,1-27.867.312h0a10.254,10.254,0,0,1,.69-14.3l49.948-37.039Z" transform="translate(-4917.705 -3354.912)"/><g transform="translate(53.328)"><path class="a" d="M4974.52,3399.918l5.129,5.163,6.323-4.743-8.853-7.114Z" transform="translate(-4971.033 -3354.912)"/><rect class="c" width="26.135" height="51.699" rx="2.26" transform="translate(32.406 51.699) rotate(180)"/><rect class="d" width="45.289" height="19.725" rx="0.657" transform="translate(29.201 3.205) rotate(90)"/><rect class="c" width="10.562" height="1.112" transform="translate(24.555 10.845) rotate(180)"/><rect class="c" width="14.315" height="1.112" transform="translate(26.431 15.64) rotate(180)"/><path class="a" d="M4971.1,3392.221l1.16-8.753a5.067,5.067,0,0,1,2.916-3.943l11.224-5.139a2.078,2.078,0,0,1,2.874,1.36h0a2.079,2.079,0,0,1-.679,2.125l-8.248,6.631c2.316,7.671-.153,12.2-5.828,15.416l-.932-.854A7.877,7.877,0,0,1,4971.1,3392.221Z" transform="translate(-4971.033 -3354.912)"/><g transform="translate(27.099 23.044)"><path class="a" d="M5001.027,3383.745h5.692v-.675a5.114,5.114,0,0,0-5.114-5.114h-.578a2.9,2.9,0,0,0-2.9,2.9h0A2.9,2.9,0,0,0,5001.027,3383.745Z" transform="translate(-4998.132 -3377.956)"/><path class="a" d="M5001.027,3389.535h5.692v-5.79h-5.692a2.9,2.9,0,0,0-2.9,2.895h0A2.9,2.9,0,0,0,5001.027,3389.535Z" transform="translate(-4998.132 -3377.956)"/><path class="a" d="M5001.027,3395.324h5.692v-5.789h-5.692a2.9,2.9,0,0,0-2.9,2.894h0A2.9,2.9,0,0,0,5001.027,3395.324Z" transform="translate(-4998.132 -3377.956)"/><path class="a" d="M5002.4,3399.918h-.795a5.114,5.114,0,0,0,5.114-5.114H5002.4a2.557,2.557,0,0,0-2.557,2.557h0A2.557,2.557,0,0,0,5002.4,3399.918Z" transform="translate(-4998.132 -3377.956)"/></g></g></g><g transform="translate(26.411 142.552)"><path class="c" d="M4876.749,3382.49l36.822,60.56,12.108,9.522" transform="translate(-4876.749 -3382.49)"/></g><path class="e" d="M4925.071,3340.453l2.675,3.179a59.715,59.715,0,0,1,12.118,53.6c-9.719,37.009-16.659,60.649-17.061,85.542l-72.465,16.553V3448.2c0-36.677.537-62.339,18.667-90.607,14.357-22.387,35.23-25.269,38.157-24.321Z" transform="translate(-4850.338 -3239.938)"/><g transform="translate(28.73 111.846)"><path class="f" d="M4912.7,3366.075l8.666,55.174,61.782,51.788-19.68,12.8c-24.761-18.638-54.622-29.682-69.48-51.881l-14.462-61.378a16.915,16.915,0,0,1,15.214-20.748h0A16.916,16.916,0,0,1,4912.7,3366.075Z" transform="translate(-4879.068 -3351.784)"/></g><circle class="g" cx="2.801" cy="2.801" r="2.801" transform="translate(79.787 151.067)"/><path class="g" d="M4938.527,3377.869a2.8,2.8,0,1,1-2.8-2.8A2.8,2.8,0,0,1,4938.527,3377.869Z" transform="translate(-4850.338 -3239.938)"/><g transform="translate(47.542)"><path class="c" d="M4965.413,3305.872c14.908-.73,25.913-10.152,23.625-15.072-1.765-3.8-14.477,4.768-15.226-4.248Z" transform="translate(-4897.88 -3239.938)"/><path class="a" d="M4976.817,3290.3l-3.876,6.491a77.609,77.609,0,0,0-10.441,30.68h0a3.245,3.245,0,0,1-3.848,2.8l-3.284-.645c-1.367,1.185-1.763,3.328-1.784,5.842a1.259,1.259,0,0,1-1.251,1.254c-7.525.012-11.264-2.007-15.281-7.662-.641,7.049,5.559,10.328,10.6,12.345a1.778,1.778,0,0,1,.835,2.624l-4.024,6.154a6.939,6.939,0,0,1-10.288,1.522,38.943,38.943,0,0,0-8.456-5.328l-.59,6.568a4.447,4.447,0,0,1-7.243,3.041,64.822,64.822,0,0,0-12.659-7.871,9.015,9.015,0,0,1-4.378-11.66l4.1-9.633,2.357-45.95Z" transform="translate(-4897.88 -3239.938)"/><path class="c" d="M4938.014,3282.881c4.32,7.07-1.559,20.612-9.917,22.278a12.226,12.226,0,0,1-3.9.093,15.71,15.71,0,0,1-13.212-18.792l2.183-10.758Z" transform="translate(-4897.88 -3239.938)"/><path class="c" d="M4972.345,3297.8c10.6-2.834,19.639-16.188,18.461-27.185s-12.569-26.315-20.424-29.457-11.39.393-10.6,3.535,3.142,7.855,2.357,12.175c-6.284-7.07-32.206-13.354-45.56-7.07s-15.318,20.817-15.711,28.672,4.082,48.349,4.082,48.349,8.3-8.57,8.487-17c.261-11.783,5.356-20.863,13.353-22.706,19.52-4.5,30.288,15.815,45.56,10.689" transform="translate(-4897.88 -3239.938)"/><path class="c" d="M4909.323,3284.116a28.381,28.381,0,0,0-1.194-6,3.683,3.683,0,0,1-3.811-.035,10.837,10.837,0,0,1-2.916-2.729l-.03-.035a1.972,1.972,0,0,0-3.486,1.382,12.638,12.638,0,0,0,.846,3.678,14.539,14.539,0,0,0,1.446,2.719c1.56,2.33,4.112,4.4,6.888,4.008a2.628,2.628,0,0,0,2.113-1.35A3.34,3.34,0,0,0,4909.323,3284.116Z" transform="translate(-4897.88 -3239.938)"/><g transform="translate(74.282 49.703)"><path class="c" d="M4972.53,3298.492l-.368-1.377a23.135,23.135,0,0,0,11.122-7.474l1.082.93A24.57,24.57,0,0,1,4972.53,3298.492Z" transform="translate(-4972.162 -3289.641)"/></g><g transform="translate(11.939 53.13)"><path class="g" d="M4947.994,3304.907a1.119,1.119,0,0,1-.537-.137l-17.316-9.385-19.078,1.95a1.129,1.129,0,0,1-.23-2.246l19.771-2.021,17.928,9.717a1.129,1.129,0,0,1-.538,2.122Z" transform="translate(-4909.819 -3293.068)"/></g><path class="c" d="M4965.733,3260.525c-6.348-11.675-15.431-18.357-20.443-18.326-2.814.017,3.768,14.389,0,15.487Z" transform="translate(-4897.88 -3239.938)"/><g transform="translate(46.977 59.59)"><path class="g" d="M4955.15,3320.114a10.293,10.293,0,1,1,10.294-10.293A10.3,10.3,0,0,1,4955.15,3320.114Zm0-18.329a8.036,8.036,0,1,0,8.036,8.036A8.045,8.045,0,0,0,4955.15,3301.785Z" transform="translate(-4944.857 -3299.528)"/></g><g transform="translate(53.624 67.645)"><path class="c" d="M4954.8,3307.583a3.4,3.4,0,0,1,3.23,4.476l-6.528-1.9A3.4,3.4,0,0,1,4954.8,3307.583Z" transform="translate(-4951.504 -3307.583)"/></g><path class="a" d="M4924.553,3295.327h0a8.673,8.673,0,0,0-11.8,5.9h0a8.672,8.672,0,0,0,3.158,8.984l3.549,2.707,5.562-16.542A.847.847,0,0,0,4924.553,3295.327Z" transform="translate(-4897.88 -3239.938)"/><g transform="translate(14.055 61.153)"><path class="h" d="M4916.471,3311.345l-.9-.685a9.231,9.231,0,0,1-3.364-9.569l1.1.272a8.1,8.1,0,0,0,2.952,8.4l.9.686Z" transform="translate(-4911.935 -3301.091)"/></g><g transform="translate(18.968 60.31)"><path class="h" d="M4917.724,3304.8a.562.562,0,0,1-.5-.309,3.638,3.638,0,0,1-.325-1.274,3.319,3.319,0,0,1,.161-1.781,2.046,2.046,0,0,1,3.852,1.327.564.564,0,1,1-1.1-.266.917.917,0,0,0-1.727-.594,2.351,2.351,0,0,0-.067,1.185,2.683,2.683,0,0,0,.209.891.565.565,0,0,1-.248.759A.554.554,0,0,1,4917.724,3304.8Z" transform="translate(-4916.848 -3300.247)"/></g><g transform="translate(62.704 14.975)"><path class="i" d="M4962.39,3269.246l-1.29-.609c2.2-4.667,1.388-8.641-.516-13.172l1.315-.552C4963.674,3259.138,4964.963,3263.8,4962.39,3269.246Z" transform="translate(-4960.584 -3254.913)"/></g><g transform="translate(43.624 31.198)"><path class="i" d="M4942.64,3279.235l-1.136-.861a9.156,9.156,0,0,0,1.965-6.99l1.4-.248A10.57,10.57,0,0,1,4942.64,3279.235Z" transform="translate(-4941.504 -3271.136)"/></g><g transform="translate(15.015 33.748)"><path class="i" d="M4912.975,3289.933l-.078-4.288a13.517,13.517,0,0,1,6.766-11.959l.711,1.236a12.094,12.094,0,0,0-6.052,10.7l.078,4.288Z" transform="translate(-4912.895 -3273.686)"/></g><g transform="translate(19.051 95.895)"><path class="h" d="M4925.714,3346.943a.565.565,0,0,1-.4-.167c-2.973-2.99-8.054-9.754-8.269-10.041a.564.564,0,0,1,.9-.677c.052.069,5.249,6.987,8.167,9.922a.565.565,0,0,1-.4.963Z" transform="translate(-4916.931 -3335.832)"/></g></g><path class="j" d="M4922.8,3482.773l92.607,3.484a19.4,19.4,0,0,1,18.672,19.387h0a19.4,19.4,0,0,1-15.695,19.044c-31.623,6.155-101.818,19.329-123.358,19.329h0a44.691,44.691,0,0,1-44.691-44.691h0Z" transform="translate(-4850.338 -3239.938)"/><path class="c" d="M4963.854,3532.259h0A13.143,13.143,0,0,1,4977,3519.116h13.076l39.726-5.991a12.575,12.575,0,0,1,13.844,16.286l-.555,1.723a20.57,20.57,0,0,1-19.582,14.269H4977A13.143,13.143,0,0,1,4963.854,3532.259Z" transform="translate(-4850.338 -3239.938)"/></svg>