<svg xmlns="http://www.w3.org/2000/svg" width="199.021" height="151.724" viewBox="0 0 199.021 151.724"><defs><style>.a{fill:#ffa800;}</style></defs><path class="a" d="M64.146,139.993,28.959,119.632l6.056-10.464,29.131,16.859L96.3,107.416l32.161,18.611,32.159-18.611,32.164,18.611,29.137-16.859,6.054,10.464-35.192,20.361-32.164-18.611-32.159,18.611L96.3,121.383Zm128.642,25.749-32.164-18.611-32.159,18.611L96.3,147.131,64.146,165.742,35.015,148.883l-6.056,10.464,35.187,20.361L96.3,161.1l32.161,18.611L160.624,161.1l32.164,18.611,35.192-20.361-6.054-10.464Zm0,39.715-32.164-18.611-32.159,18.611L96.3,186.847,64.146,205.458,35.015,188.6l-6.056,10.463,35.187,20.363L96.3,200.813l32.161,18.611,32.159-18.611,32.164,18.611,35.192-20.363L221.925,188.6Zm0,39.715-32.164-18.611-32.159,18.611L96.3,226.562,64.146,245.173l-29.131-16.86-6.056,10.464L64.146,259.14,96.3,240.529l32.161,18.611,32.159-18.611,32.164,18.611,35.192-20.363-6.054-10.464Z" transform="translate(-28.959 -107.416)"/></svg>