<svg xmlns="http://www.w3.org/2000/svg" width="231.146" height="220.147" viewBox="0 0 231.146 220.147"><defs><style>.a{fill:#e6061c;}.b{fill:#fffdfe;}.c{fill:#e0ac91;}.d{fill:#004f9b;}.e{fill:#f7c0a0;}.f{fill:#9895c9;}.g{opacity:0.3;mix-blend-mode:overlay;isolation:isolate;}</style></defs><g transform="translate(-6132.819 -1844.204)"><path class="a" d="M6166.358,2021.936a38.235,38.235,0,0,1,24.256-31.824l50.513-19.523,22.744-.5a129.834,129.834,0,0,1,43.964,8.7l29.293,11.321a38.233,38.233,0,0,1,24.256,31.824l2.581,25.587H6163.776Z"/><path class="b" d="M6292.81,1988.239c0-.051,0-.1,0-.152a16.656,16.656,0,0,0-14.426-16.848,128.193,128.193,0,0,0-14.518-1.148l-22.744.5-21.81,8.43a51.405,51.405,0,0,0-.128,6.144,85.524,85.524,0,0,0,31.054,62.36h5.819C6276.791,2034.842,6292.109,2012.477,6292.81,1988.239Z"/><path class="c" d="M6272.323,1925.853l5.534,51.18a26.621,26.621,0,1,1-52.934,5.723l-6.153-56.9Z"/><path class="d" d="M6209.674,1879.121a28.264,28.264,0,0,0-26.134-.87c-4.934,2.369-9.21,9.586-9.448,16.044-.559,15.147,3.912,22.647,11.279,25.744,5.945,2.5,8.426-2.034,13.4,4.69a76.792,76.792,0,0,1,6.758,10.3c2.558,4.956,7.547,7.15,12.043,5.086h0q1.247-14.843,2.5-29.685c.726-8.632,1.221-18.276-3.266-25.012A20.119,20.119,0,0,0,6209.674,1879.121Z"/><path class="e" d="M6233.4,1894.688c1.05-.193,2.087-.464,3.127-.717,16.014-3.888,31.759,8.4,33.347,26.479,1.169,13.322-.233,27.047-6.6,39.64-12.2,24.125-34.615,32.792-45.713,35.061-22.456,4.589-44.1-61.9-31.287-101.9Z"/><path class="d" d="M6165.367,1871.029c12.114-1.589,21.782-6.364,29.067-14.241,5.318-5.75,11.743-10.063,18.927-11.6a44.616,44.616,0,0,1,20.321.387c23.378,5.916,40.025,29.688,40.025,57.154v3.994l-4.455-1.908a103.167,103.167,0,0,0-60.063-6.707l-5.982,1.131c-13.711,2.591-27.754-1.237-38.984-10.627C6158.8,1884.081,6159.418,1874.589,6165.367,1871.029Z"/><path class="d" d="M6275.819,1857.5a32.322,32.322,0,0,0-32.307-1.176c-6.1,3.2-11.385,12.959-11.679,21.688-.691,20.474,4.836,30.612,13.943,34.8,7.35,3.379,10.416-2.749,16.568,6.339a105.1,105.1,0,0,1,8.353,13.919c3.163,6.7,9.331,9.665,14.888,6.874h0q1.543-20.062,3.088-40.124c.9-11.668,1.509-24.7-4.038-33.809A25.73,25.73,0,0,0,6275.819,1857.5Z"/><rect class="b" width="21.072" height="5.255" transform="matrix(0.954, -0.299, 0.299, 0.954, 6244.27, 1922.068)"/><path class="e" d="M6255.289,1925.767c-1.069,7.144,5.441,15.1,12.5,13.552,5.52-1.215,8.784-7.44,8.444-13.081a12.822,12.822,0,0,0-.933-4.245c-2.319-5.46-9.971-7.79-14.94-4.55A12.061,12.061,0,0,0,6255.289,1925.767Z"/><path class="f" d="M6178.3,1929.957a14.87,14.87,0,1,0,14.869-14.869A14.869,14.869,0,0,0,6178.3,1929.957Z"/><path class="b" d="M6175.669,1929.958a17.5,17.5,0,1,1,17.5,17.5A17.519,17.519,0,0,1,6175.669,1929.958Zm5.255,0a12.242,12.242,0,1,0,12.243-12.243A12.256,12.256,0,0,0,6180.924,1929.958Z"/><g class="g"><path class="b" d="M6189.614,1942.012a4.369,4.369,0,0,0,2.081-.548,9,9,0,0,0,2.421-2.168l5.633-6.531c1.379-1.6,2.448-2.264,3.278-2.042,1.053.29,1.4,2.132,1,3.585a19.278,19.278,0,0,1-.632,1.828,10.765,10.765,0,0,0-1,4.5l2.623-.143a8.717,8.717,0,0,1,.832-3.422,21.836,21.836,0,0,0,.715-2.079c.749-2.754-.111-6.054-2.843-6.806-2.829-.772-5.108,1.864-5.967,2.858l-5.632,6.532a6.777,6.777,0,0,1-1.686,1.576,1.389,1.389,0,0,1-1.3.1c-.629-.417-.379-1.882.149-3.148a64.784,64.784,0,0,1,7.3-13.043c.616-.855,1.9-2.632,1.134-4.477a3.615,3.615,0,0,0-4.589-1.727,7.9,7.9,0,0,0-3.159,2.517l-4.764,5.489a3.274,3.274,0,0,1-1.368,1.136.814.814,0,0,1-.727-.257,2.1,2.1,0,0,1-.657-1.648,8.267,8.267,0,0,1,1.77-4.345l-1.953-1.76a10.935,10.935,0,0,0-2.429,5.832,4.72,4.72,0,0,0,1.515,3.879,3.412,3.412,0,0,0,3.039.867,5.371,5.371,0,0,0,2.795-1.982l4.764-5.489a5.831,5.831,0,0,1,2.068-1.768c.491-.176,1.142-.042,1.268.262.2.49-.553,1.538-.837,1.932a67.385,67.385,0,0,0-7.6,13.571c-1.2,2.888-.9,5.2.823,6.349A3.464,3.464,0,0,0,6189.614,1942.012Z"/></g><path class="f" d="M6216.327,1929.957a14.869,14.869,0,1,0,14.869-14.869A14.869,14.869,0,0,0,6216.327,1929.957Z"/><path class="b" d="M6213.7,1929.958a17.5,17.5,0,1,1,17.5,17.5A17.517,17.517,0,0,1,6213.7,1929.958Zm5.255,0a12.242,12.242,0,1,0,12.243-12.243A12.256,12.256,0,0,0,6218.954,1929.958Z"/><g class="g"><path class="b" d="M6236.34,1944.41c.23-3.745,2.01-7.243,3.731-10.625a40.709,40.709,0,0,0,2.609-5.821,3.38,3.38,0,0,0-1.2-3.764,3.473,3.473,0,0,0-4.057-.15,29.154,29.154,0,0,0-6.3,6.409c-.557.7-1.106,1.384-1.657,2.032l-.177.209a7.331,7.331,0,0,1-2.049,1.906,1.518,1.518,0,0,1-1.714-.077c-.325-.392-.269-1.221.17-2.46a43.837,43.837,0,0,1,3.637-7.773c.849-1.432,2.431-4.095.632-6.374a4.119,4.119,0,0,0-4.164-1.347c-1.539.349-6.257,1.813-7.72,3.9l2.15,1.512c.67-.955,3.913-2.337,6.15-2.844a1.526,1.526,0,0,1,1.521.412c.568.717.1,1.835-.828,3.4a46.612,46.612,0,0,0-3.857,8.24c-.5,1.4-1.006,3.454.286,5.011a4.048,4.048,0,0,0,4.924.745,9.512,9.512,0,0,0,2.866-2.552l.175-.2c.567-.668,1.133-1.375,1.706-2.091a27.293,27.293,0,0,1,5.689-5.856.863.863,0,0,1,1.024.044.754.754,0,0,1,.285.87,39.093,39.093,0,0,1-2.448,5.433c-1.758,3.453-3.75,7.366-4.012,11.657Z"/></g><rect class="b" width="8.342" height="5.255" transform="translate(6208.018 1926.34)"/><path class="d" d="M6263.168,1960.28h-26.006a6.578,6.578,0,0,0-5.263,2.631l-4.535,6.043a14.911,14.911,0,0,1-11.927,5.962h-.467a14.912,14.912,0,0,1-14.383-10.979h0a6.581,6.581,0,0,0-6.348-4.846h-6.111c6.542,21.974,17.877,38.421,29.428,36.06C6228.624,1992.889,6250.946,1984.258,6263.168,1960.28Z"/><path class="d" d="M6214.078,1951.608h-16.914a11.621,11.621,0,0,0-11.621,11.621h16.915a11.621,11.621,0,0,0,11.62-11.621Z"/><path class="d" d="M6211.134,1951.608h21.324a11.62,11.62,0,0,1,11.62,11.621h-21.324a11.62,11.62,0,0,1-11.62-11.621Z"/><path class="d" d="M6256.359,1954.142l-4.738,11.344,8.677-.147c1.042-1.666,2.039-3.407,2.971-5.249a62.775,62.775,0,0,0,5.233-14.746A14.389,14.389,0,0,0,6256.359,1954.142Z"/><path class="c" d="M6157.477,2047.86h0a7.253,7.253,0,0,0,8.6,3.7l24.57-7.453a5.758,5.758,0,0,0,3.482-8.081h0a5.759,5.759,0,0,0-6.174-3.1l-25.269,4.551A7.253,7.253,0,0,0,6157.477,2047.86Z"/><path class="e" d="M6171.692,2026.687h0a6.657,6.657,0,0,0-6.564,5.544l-3.946,23.234a5.286,5.286,0,0,0,5.212,6.171h0a5.284,5.284,0,0,0,5.073-3.8l6.616-22.62A6.659,6.659,0,0,0,6171.692,2026.687Z"/><path class="e" d="M6151.56,2023.973h0a6.909,6.909,0,0,0-6.814,5.764l-4.755,28.3a5.414,5.414,0,0,0,5.34,6.312h0a5.414,5.414,0,0,0,5.218-3.968l7.668-27.656A6.908,6.908,0,0,0,6151.56,2023.973Z"/><path class="e" d="M6162.078,2023.973h0a6.908,6.908,0,0,0-6.813,5.764l-4.755,28.3a5.415,5.415,0,0,0,5.34,6.312h0a5.414,5.414,0,0,0,5.218-3.968l7.668-27.656A6.908,6.908,0,0,0,6162.078,2023.973Z"/><path class="e" d="M6142.788,2027.027h0a6.27,6.27,0,0,0-6.182,5.22l-3.715,21.881a4.977,4.977,0,0,0,4.907,5.812h0a4.98,4.98,0,0,0,4.779-3.581l6.229-21.3A6.27,6.27,0,0,0,6142.788,2027.027Z"/><path class="c" d="M6306.016,2047.86h0a7.254,7.254,0,0,1-8.6,3.7l-24.57-7.453a5.759,5.759,0,0,1-3.482-8.081h0a5.76,5.76,0,0,1,6.174-3.1l25.269,4.551A7.255,7.255,0,0,1,6306.016,2047.86Z"/><path class="e" d="M6291.8,2026.687h0a6.66,6.66,0,0,1,6.565,5.544l3.945,23.234a5.286,5.286,0,0,1-5.211,6.171h0a5.286,5.286,0,0,1-5.074-3.8l-6.615-22.62A6.657,6.657,0,0,1,6291.8,2026.687Z"/><path class="e" d="M6311.933,2023.973h0a6.908,6.908,0,0,1,6.813,5.764l4.755,28.3a5.413,5.413,0,0,1-5.34,6.312h0a5.415,5.415,0,0,1-5.218-3.968l-7.668-27.656A6.909,6.909,0,0,1,6311.933,2023.973Z"/><path class="e" d="M6301.414,2023.973h0a6.908,6.908,0,0,1,6.813,5.764l4.756,28.3a5.414,5.414,0,0,1-5.34,6.312h0a5.417,5.417,0,0,1-5.219-3.968l-7.668-27.656A6.909,6.909,0,0,1,6301.414,2023.973Z"/><path class="e" d="M6320.7,2027.027h0a6.27,6.27,0,0,1,6.182,5.22l3.716,21.881a4.978,4.978,0,0,1-4.908,5.812h0a4.979,4.979,0,0,1-4.778-3.581l-6.23-21.3A6.27,6.27,0,0,1,6320.7,2027.027Z"/></g></svg>