<svg xmlns="http://www.w3.org/2000/svg" width="77.205" height="77.205" viewBox="0 0 77.205 77.205"><defs><style>.a{fill:#009bdb;}</style></defs><path class="a" d="M4612.026,3374.25h25.182v-27.444h-9.047v-9.048h9.047v-11.309a11.321,11.321,0,0,1,11.309-11.309h11.31v9.047h-9.048a4.529,4.529,0,0,0-4.524,4.524v9.047h13.163l-1.507,9.048h-11.656v27.444h20.357a11.322,11.322,0,0,0,11.31-11.31v-54.586a11.322,11.322,0,0,0-11.31-11.309h-54.586a11.322,11.322,0,0,0-11.309,11.309v54.586A11.322,11.322,0,0,0,4612.026,3374.25Zm-6.786-65.9a6.794,6.794,0,0,1,6.786-6.786h54.586a6.794,6.794,0,0,1,6.786,6.786v54.586a6.794,6.794,0,0,1-6.786,6.786h-15.833v-18.4h10.964l3.016-18.095h-13.98v-4.524h13.571v-18.095h-15.833a15.851,15.851,0,0,0-15.833,15.833v6.786h-9.047v18.095h9.047v18.4h-20.658a6.793,6.793,0,0,1-6.786-6.786Z" transform="translate(-4600.717 -3297.045)"/></svg>