<svg xmlns="http://www.w3.org/2000/svg" xmlns:xlink="http://www.w3.org/1999/xlink" width="926.409" height="563.175" viewBox="0 0 926.409 563.175"><defs><style>.a,.aa,.ab,.ad,.ae,.af,.ag,.ah,.aj,.al,.am,.an,.ap,.aq,.ar,.d,.g,.l,.m,.o,.r,.s,.t,.u{fill:none;}.b,.x{fill:#d73548;}.c{fill:#c9ecfc;}.d{stroke:#60abc2;}.aa,.ab,.ad,.ae,.af,.ag,.ah,.aj,.al,.am,.an,.ap,.aq,.ar,.d,.l,.o,.r,.s,.t,.u{stroke-miterlimit:10;}.ar,.d,.o,.t{stroke-width:0.993px;}.e{fill:#ffcb30;}.f{fill:#ef7a34;}.g,.m,.r,.s{stroke:#1a1718;}.g,.m{stroke-linejoin:round;stroke-width:5.956px;}.h{fill:#00528e;}.i{fill:#004f9b;}.j{fill:#008fc3;}.k{fill:#111745;}.ap,.l,.o,.t,.u{stroke:#d9d9db;}.l,.u{stroke-width:3.971px;}.aa,.ad,.ae,.af,.ag,.m,.o{stroke-linecap:round;}.n{fill:#d9d9db;}.p{fill:#cecdcf;}.q{fill:#731532;}.aa,.ab,.aj,.al,.am,.an,.ap,.aq,.r{stroke-width:0.496px;}.s{stroke-width:7.445px;}.u{stroke-linecap:square;}.v{clip-path:url(#a);}.w{fill:#f27f74;}.x{opacity:0.4;mix-blend-mode:multiply;isolation:isolate;}.y{fill:#f8f6f9;}.z{fill:#e7e8e1;}.aa{stroke:#222a39;}.ab{stroke:#c85973;}.ac{fill:#c85973;}.ad,.ae,.af,.ag,.ah,.aq{stroke:#0a123c;}.ad,.ae,.af,.ag,.ah{stroke-width:0.478px;}.ae{stroke-dasharray:0.512 1.536;}.af{stroke-dasharray:0.504 1.513;}.ag{stroke-dasharray:0.478 1.433;}.ai{clip-path:url(#b);}.aj{stroke:#654b99;}.ak{clip-path:url(#c);}.al{stroke:#d73548;}.am{stroke:#382c6f;}.an{stroke:#731532;}.ao{clip-path:url(#e);}.ar{stroke:#fdae1e;}</style><clipPath id="a"><path class="a" d="M720.822,3486.262,681,3400.354l-69.115,6.284c0,39.148,50.811,54.5,71.66,85.933a12.24,12.24,0,0,1,1.3,10.732c-11.905,34.844-11.965,70.4-14.943,96.449l24.9,7.378,27.692-100.757A29.33,29.33,0,0,0,720.822,3486.262Z" transform="translate(-611.888 -3400.354)"/></clipPath><clipPath id="b"><path class="b" d="M611.387,3447.25c8.986-53.969,38.528-98.234,61.58-122.76q2.3-2.451,4.513-4.637a27.14,27.14,0,0,1,21.188-7.717,173.323,173.323,0,0,1,23.5,3.448,29.6,29.6,0,0,1,20.938,40.579c-13.418,31.335-29.337,69.349-33.737,85.19C689.732,3456.653,657.319,3465.818,611.387,3447.25Z" transform="translate(-611.387 -3312.056)"/></clipPath><clipPath id="c"><path class="b" d="M716.8,3326.418l16.078,62.4,59.523,56.14-11.1,16.256-67.07-47.148L673.5,3347.126Z" transform="translate(-673.499 -3326.418)"/></clipPath><clipPath id="e"><path class="a" d="M722.239,3504.092l2.814,2.626a48.988,48.988,0,0,0,20.04,11.313l5.751,1.633a7,7,0,0,1,5.07,7.251l-.051.7H697.951a63.989,63.989,0,0,1,2.257-25.64Z" transform="translate(-697.519 -3501.976)"/></clipPath></defs><path class="c" d="M549.928,3519.4c-42.789-4.311-87.724-23.912-109.875-47.393-16.88-17.895-19.841-39.329-11.887-59.536,4.49-11.4,23.546-27.951,36.35-36.488,21.275-14.184,51.383-13.73,68.976-29.8,14.828-13.54,11.374-31.541,14.663-47.865,5.04-25.019,28.2-48.357,61.688-62.152s76.686-17.8,115.049-10.661c25.27,4.7,48.629,13.964,74.867,15.475,69.419,4,118.056-45.339,186.126-54.813,35.484-4.939,74.627,2.3,100.258,18.544,37.642,23.858,46.966,64.526,94.432,79.916,18.227,5.908,39.387,6.953,58.7,11.285,33.541,7.525,60.068,24.916,75.793,45.055s21.485,42.869,22.313,65.31c.857,23.191-3.575,46.919-19.432,67.85s-44.318,38.821-79.8,44.953Z" transform="translate(-423.954 -3175.203)"/><g transform="translate(1.314 24.59)"><g transform="translate(54.059 125.04)"><rect class="c" width="64.354" height="177.589" transform="translate(0 19.659)"/><rect class="c" width="54.895" height="177.589" transform="translate(64.355 19.659)"/><line class="d" x1="54.895" transform="translate(64.355 77.565)"/><line class="d" x1="54.895" transform="translate(64.355 117.509)"/><g transform="translate(9.764 33.242)"><path class="d" d="M495.152,3340.189v-4.03H480.86v4.03" transform="translate(-480.86 -3336.159)"/><path class="d" d="M509.589,3340.189v-4.03H493.346v4.03" transform="translate(-479.054 -3336.159)"/><path class="d" d="M521.828,3340.189v-4.03H507.537v4.03" transform="translate(-477.002 -3336.159)"/><path class="d" d="M495.152,3348.989v-4.03H480.86v4.03" transform="translate(-480.86 -3334.886)"/><path class="d" d="M509.589,3348.989v-4.03H493.346v4.03" transform="translate(-479.054 -3334.886)"/><path class="d" d="M521.828,3348.989v-4.03H507.537v4.03" transform="translate(-477.002 -3334.886)"/><path class="d" d="M509.589,3357.79v-4.029H493.346v4.029" transform="translate(-479.054 -3333.614)"/><path class="d" d="M495.152,3357.79v-4.029H480.86v4.029" transform="translate(-480.86 -3333.614)"/><path class="d" d="M521.828,3357.79v-4.029H507.537v4.029" transform="translate(-477.002 -3333.614)"/><path class="d" d="M495.152,3366.59v-4.029H480.86v4.029" transform="translate(-480.86 -3332.341)"/><path class="d" d="M509.589,3366.59v-4.029H493.346v4.029" transform="translate(-479.054 -3332.341)"/><path class="d" d="M521.828,3366.59v-4.029H507.537v4.029" transform="translate(-477.002 -3332.341)"/><path class="d" d="M495.152,3375.39v-4.029H480.86v4.029" transform="translate(-480.86 -3331.068)"/><path class="d" d="M521.828,3375.39v-4.029H507.537v4.029" transform="translate(-477.002 -3331.068)"/><path class="d" d="M509.589,3375.39v-4.029H493.346v4.029" transform="translate(-479.054 -3331.068)"/><path class="d" d="M495.152,3384.191v-4.029H480.86v4.029" transform="translate(-480.86 -3329.795)"/><path class="d" d="M521.828,3384.191v-4.029H507.537v4.029" transform="translate(-477.002 -3329.795)"/><path class="d" d="M509.589,3384.191v-4.029H493.346v4.029" transform="translate(-479.054 -3329.795)"/><path class="d" d="M495.152,3392.991v-4.03H480.86v4.03" transform="translate(-480.86 -3328.521)"/><path class="d" d="M509.589,3392.991v-4.03H493.346v4.03" transform="translate(-479.054 -3328.521)"/><path class="d" d="M521.828,3392.991v-4.03H507.537v4.03" transform="translate(-477.002 -3328.521)"/><path class="d" d="M495.152,3401.792v-4.029H480.86v4.029" transform="translate(-480.86 -3327.248)"/><path class="d" d="M509.589,3401.792v-4.029H493.346v4.029" transform="translate(-479.054 -3327.248)"/><path class="d" d="M521.828,3401.792v-4.029H507.537v4.029" transform="translate(-477.002 -3327.248)"/><path class="d" d="M509.589,3410.592v-4.03H493.346v4.03" transform="translate(-479.054 -3325.975)"/><path class="d" d="M495.152,3410.592v-4.03H480.86v4.03" transform="translate(-480.86 -3325.975)"/><path class="d" d="M521.828,3410.592v-4.03H507.537v4.03" transform="translate(-477.002 -3325.975)"/><path class="d" d="M495.152,3419.393v-4.03H480.86v4.03" transform="translate(-480.86 -3324.702)"/><path class="d" d="M521.828,3419.393v-4.03H507.537v4.03" transform="translate(-477.002 -3324.702)"/><path class="d" d="M509.589,3419.393v-4.03H493.346v4.03" transform="translate(-479.054 -3324.702)"/><path class="d" d="M521.828,3428.193v-4.029H507.537v4.029" transform="translate(-477.002 -3323.429)"/><path class="d" d="M495.152,3428.193v-4.029H480.86v4.029" transform="translate(-480.86 -3323.429)"/><path class="d" d="M509.589,3428.193v-4.029H493.346v4.029" transform="translate(-479.054 -3323.429)"/><path class="d" d="M509.589,3436.994v-4.03H493.346v4.03" transform="translate(-479.054 -3322.156)"/><path class="d" d="M495.152,3436.994v-4.03H480.86v4.03" transform="translate(-480.86 -3322.156)"/><path class="d" d="M521.828,3436.994v-4.03H507.537v4.03" transform="translate(-477.002 -3322.156)"/><path class="d" d="M495.152,3445.794v-4.03H480.86v4.03" transform="translate(-480.86 -3320.884)"/><path class="d" d="M521.828,3445.794v-4.03H507.537v4.03" transform="translate(-477.002 -3320.884)"/><path class="d" d="M509.589,3445.794v-4.03H493.346v4.03" transform="translate(-479.054 -3320.884)"/><path class="d" d="M509.589,3454.594v-4.029H493.346v4.029" transform="translate(-479.054 -3319.611)"/><path class="d" d="M495.152,3454.594v-4.029H480.86v4.029" transform="translate(-480.86 -3319.611)"/><path class="d" d="M521.828,3454.594v-4.029H507.537v4.029" transform="translate(-477.002 -3319.611)"/><path class="d" d="M509.589,3463.4v-4.029H493.346v4.029" transform="translate(-479.054 -3318.338)"/><path class="d" d="M495.152,3463.4v-4.029H480.86v4.029" transform="translate(-480.86 -3318.338)"/><path class="d" d="M521.828,3463.4v-4.029H507.537v4.029" transform="translate(-477.002 -3318.338)"/><path class="d" d="M495.152,3472.2v-4.029H480.86v4.029" transform="translate(-480.86 -3317.065)"/><path class="d" d="M521.828,3472.2v-4.029H507.537v4.029" transform="translate(-477.002 -3317.065)"/><path class="d" d="M509.589,3472.2v-4.029H493.346v4.029" transform="translate(-479.054 -3317.065)"/></g><rect class="c" width="15.871" height="10.593" transform="translate(48.484 9.066)"/><rect class="c" width="35.569" height="10.593" transform="translate(64.355 9.066)"/><line class="d" y1="19.659" transform="translate(19.775)"/><line class="d" x2="16.621" transform="translate(11.464)"/><line class="d" x2="16.621" transform="translate(11.464 9.066)"/></g><g transform="translate(355.261 20.672)"><path class="c" d="M623.545,3517.554V3215.938h19.776l46.024,39.892v261.724Z" transform="translate(-609.221 -3215.938)"/><rect class="c" width="14.324" height="231.982"/><g transform="translate(22.117 18.672)"><line class="d" x2="10.783"/><line class="d" x2="24.132" transform="translate(0 8.588)"/><line class="d" x2="31.809" transform="translate(0 17.177)"/><line class="d" x2="41.012" transform="translate(0 25.766)"/><line class="d" x2="50.215" transform="translate(0 34.354)"/><line class="d" x2="50.215" transform="translate(0 42.943)"/><line class="d" x2="50.215" transform="translate(0 51.531)"/><line class="d" x2="50.215" transform="translate(0 60.12)"/><line class="d" x2="50.215" transform="translate(0 68.709)"/><line class="d" x2="50.215" transform="translate(0 77.297)"/><line class="d" x2="50.215" transform="translate(0 85.886)"/><line class="d" x2="50.215" transform="translate(0 94.474)"/><line class="d" x2="50.215" transform="translate(0 103.063)"/><line class="d" x2="50.215" transform="translate(0 111.652)"/><line class="d" x2="50.215" transform="translate(0 120.24)"/><line class="d" x2="50.215" transform="translate(0 128.829)"/><line class="d" x2="50.215" transform="translate(0 137.417)"/><line class="d" x2="50.215" transform="translate(0 146.006)"/><line class="d" x2="50.215" transform="translate(0 154.594)"/><line class="d" x2="50.215" transform="translate(0 163.183)"/><line class="d" x2="50.215" transform="translate(0 171.772)"/></g><path class="d" d="M623.545,3223.881h19.776l46.024,39.892" transform="translate(-609.221 -3214.79)"/><line class="d" x1="14.324" transform="translate(0 9.091)"/></g><g transform="translate(451.168 278.718)"><ellipse class="c" cx="12.706" cy="12.706" rx="12.706" ry="12.706" transform="translate(0 5.895) rotate(-13.413)"/><line class="d" y2="14.214" transform="translate(15.307 28.659)"/></g><g transform="translate(511.627 278.883)"><ellipse class="c" cx="12.706" cy="12.706" rx="12.706" ry="12.706" transform="translate(0 5.466) rotate(-12.421)"/><line class="d" y2="14.214" transform="translate(15.142 28.493)"/></g><g transform="translate(261.681 177.409)"><rect class="c" width="75.736" height="123.451" transform="translate(75.736 144.879) rotate(180)"/><rect class="c" width="39.087" height="123.451" transform="translate(114.824 144.879) rotate(180)"/><line class="d" x2="39.087" transform="translate(75.736 32.196)"/><line class="d" x2="75.736" transform="translate(0 32.196)"/><g transform="translate(13.014 42.533)"><rect class="c" width="12.814" height="12.814" transform="translate(45.494 12.814) rotate(180)"/><path class="d" d="M610.848,3390.027v2.917h-9.9v9.9h-2.917v-12.813Z" transform="translate(-565.354 -3390.027)"/><path class="d" d="M582.3,3390.027v2.917h-9.9v9.9h-2.917v-12.813Z" transform="translate(-569.484 -3390.027)"/><rect class="d" width="12.814" height="12.814" transform="translate(12.814 12.814) rotate(180)"/></g><g transform="translate(13.014 68.376)"><rect class="c" width="12.814" height="12.814" transform="translate(45.494 12.814) rotate(180)"/><path class="d" d="M610.848,3412.6v2.917h-9.9v9.9h-2.917V3412.6Z" transform="translate(-565.354 -3412.604)"/><path class="d" d="M582.3,3412.6v2.917h-9.9v9.9h-2.917V3412.6Z" transform="translate(-569.484 -3412.604)"/><rect class="d" width="12.814" height="12.814" transform="translate(12.814 12.814) rotate(180)"/></g><g transform="translate(13.014 94.218)"><rect class="c" width="12.814" height="12.814" transform="translate(45.494 12.814) rotate(180)"/><path class="d" d="M610.848,3435.181v2.916h-9.9v9.9h-2.917v-12.813Z" transform="translate(-565.354 -3435.181)"/><path class="d" d="M582.3,3435.181v2.916h-9.9v9.9h-2.917v-12.813Z" transform="translate(-569.484 -3435.181)"/><rect class="d" width="12.814" height="12.814" transform="translate(12.814 12.814) rotate(180)"/></g><g transform="translate(13.014 120.061)"><rect class="c" width="12.814" height="12.814" transform="translate(45.494 12.814) rotate(180)"/><path class="d" d="M610.848,3457.758v2.917h-9.9v9.9h-2.917v-12.814Z" transform="translate(-565.354 -3457.758)"/><path class="d" d="M582.3,3457.758v2.917h-9.9v9.9h-2.917v-12.814Z" transform="translate(-569.484 -3457.758)"/><rect class="d" width="12.814" height="12.814" transform="translate(12.814 12.814) rotate(180)"/></g><g transform="translate(83.705 17.875)"><line class="d" y1="122.861" transform="translate(10.337)"/><line class="d" y2="122.861"/><line class="d" x2="10.337" transform="translate(0 116.831)"/><line class="d" x2="10.337" transform="translate(0 110.801)"/><line class="d" x2="10.337" transform="translate(0 104.771)"/><line class="d" x2="10.337" transform="translate(0 98.741)"/><line class="d" x2="10.337" transform="translate(0 92.711)"/><line class="d" x2="10.337" transform="translate(0 86.681)"/><line class="d" x2="10.337" transform="translate(0 80.651)"/><line class="d" x2="10.337" transform="translate(0 74.621)"/><line class="d" x2="10.337" transform="translate(0 68.591)"/><line class="d" x2="10.337" transform="translate(0 62.561)"/><line class="d" x2="10.337" transform="translate(0 56.531)"/><line class="d" x2="10.337" transform="translate(0 50.501)"/><line class="d" x2="10.337" transform="translate(0 44.471)"/><line class="d" x2="10.337" transform="translate(0 38.441)"/><line class="d" x2="10.337" transform="translate(0 32.411)"/><line class="d" x2="10.337" transform="translate(0 26.381)"/><line class="d" x2="10.337" transform="translate(0 20.351)"/><line class="d" x2="10.337" transform="translate(0 14.321)"/><line class="d" x2="10.337" transform="translate(0 8.291)"/></g><g transform="translate(52.101)"><line class="d" y1="21.428" transform="translate(11.36)"/><path class="d" d="M607.077,3363.052h15.828a3.446,3.446,0,0,0,3.447-3.445h0a3.447,3.447,0,0,0-3.447-3.447H607.077a3.446,3.446,0,0,0-3.445,3.447h0A3.445,3.445,0,0,0,607.077,3363.052Z" transform="translate(-603.632 -3352.393)"/><line class="d" x1="21.536" transform="translate(0.592 14.537)"/></g></g><g transform="translate(581.711)"><g transform="translate(0 89.714)"><rect class="c" width="46.943" height="232.573"/><line class="c" x1="28.309" transform="translate(5.699 12.858)"/><line class="c" x1="28.309" transform="translate(5.699 20.435)"/><line class="c" x1="28.309" transform="translate(5.699 35.589)"/><line class="c" x1="28.309" transform="translate(5.699 43.167)"/><line class="c" x1="28.309" transform="translate(5.699 58.321)"/><line class="c" x1="28.309" transform="translate(5.699 65.897)"/><line class="c" x1="28.309" transform="translate(5.699 81.052)"/><line class="c" x1="28.309" transform="translate(5.699 88.629)"/><line class="c" x1="28.309" transform="translate(5.699 103.783)"/><line class="c" x1="28.309" transform="translate(5.699 126.514)"/><line class="c" x1="28.309" transform="translate(5.699 134.091)"/><line class="c" x1="28.309" transform="translate(5.699 149.245)"/><line class="c" x1="28.309" transform="translate(5.699 156.822)"/><line class="c" x1="28.309" transform="translate(5.699 171.976)"/><line class="c" x1="28.309" transform="translate(5.699 179.553)"/><line class="c" x1="28.309" transform="translate(5.699 194.707)"/><line class="c" x1="28.309" transform="translate(5.699 202.284)"/><line class="c" x1="28.309" transform="translate(5.699 217.438)"/><line class="c" x1="28.309" transform="translate(5.699 225.015)"/></g><rect class="c" width="31.649" height="33.874" transform="translate(15.295 55.84)"/><line class="d" x1="31.649" transform="translate(15.295 83.191)"/><rect class="c" width="19.158" height="20.091" transform="translate(27.785 35.749)"/><path class="c" d="M774.721,3208.646l-15.712-10.768v35.749h15.712Z" transform="translate(-717.871 -3197.879)"/><line class="d" x1="15.712" y1="10.768" transform="translate(41.137 7.107)"/><rect class="c" width="25.636" height="20.091" transform="translate(46.943 35.749)"/><rect class="c" width="42.003" height="33.874" transform="translate(46.943 55.84)"/><line class="d" x1="42.003" transform="translate(46.943 83.191)"/><rect class="c" width="59.112" height="232.573" transform="translate(46.943 89.714)"/><line class="d" x1="59.112" transform="translate(46.943 119.558)"/><line class="d" y2="232.573" transform="translate(39.837 89.714)"/><g transform="translate(53.619 283.472)"><rect class="d" width="28.652" height="38.816"/><rect class="d" width="35.585" height="22.191" transform="translate(25.421 3.231) rotate(90)"/><line class="d" x2="22.191" transform="translate(3.23 14.537)"/><line class="d" x2="22.191" transform="translate(3.23 26.812)"/><line class="d" y2="35.585" transform="translate(14.326 3.231)"/></g><g transform="translate(21.349 62.078)"><line class="c" x1="16.912"/><line class="c" x1="16.912" transform="translate(0 7.577)"/><line class="c" x1="16.912" transform="translate(0 15.154)"/></g><g transform="translate(31.401 41.366)"><line class="c" x1="11.926"/><line class="c" x1="11.926" transform="translate(0 7.577)"/></g><g transform="translate(52.642 41.366)"><line class="c" x2="16.2"/><line class="c" x2="16.2" transform="translate(0 7.577)"/></g><g transform="translate(53.955 97.875)"><line class="c" x1="44.304"/><line class="c" x1="44.304" transform="translate(0 7.577)"/><line class="c" x1="44.304" transform="translate(0 15.154)"/></g><g transform="translate(68.614 125.304)"><g transform="translate(17.363)"><line class="c" x1="12.282"/><line class="c" x1="12.282" transform="translate(0 7.577)"/></g><line class="c" x1="12.282"/><line class="c" x1="12.282" transform="translate(0 7.577)"/><g transform="translate(0 14.482)"><g transform="translate(17.363)"><line class="c" x1="12.282"/><line class="c" x1="12.282" transform="translate(0 7.577)"/></g><line class="c" x1="12.282"/><line class="c" x1="12.282" transform="translate(0 7.577)"/></g></g><line class="d" x1="59.112" transform="translate(46.943 185.349)"/><line class="d" x1="59.112" transform="translate(46.943 249.183)"/><line class="d" x1="59.112" transform="translate(46.943 275.935)"/><g transform="translate(53.122 62.078)"><line class="c" x1="12.282" transform="translate(17.363)"/><line class="c" x1="12.282" transform="translate(17.363 7.577)"/><line class="c" x1="12.282"/><line class="c" x1="12.282" transform="translate(17.363 15.154)"/><line class="c" x1="12.282" transform="translate(0 15.154)"/><line class="c" x1="12.282" transform="translate(0 7.577)"/></g><g transform="translate(53.955 161.358)"><line class="c" x1="44.304"/><line class="c" x1="44.304" transform="translate(0 7.577)"/><line class="c" x1="44.304" transform="translate(0 15.154)"/></g><g transform="translate(68.614 191.095)"><g transform="translate(17.363)"><line class="c" x1="12.282"/><line class="c" x1="12.282" transform="translate(0 7.577)"/></g><line class="c" x1="12.282"/><line class="c" x1="12.282" transform="translate(0 7.577)"/><g transform="translate(0 14.482)"><g transform="translate(17.363)"><line class="c" x1="12.282"/><line class="c" x1="12.282" transform="translate(0 7.577)"/></g><line class="c" x1="12.282"/><line class="c" x1="12.282" transform="translate(0 7.577)"/></g></g><g transform="translate(68.614 254.925)"><g transform="translate(17.363)"><line class="c" x1="12.282"/><line class="c" x1="12.282" transform="translate(0 7.577)"/></g><line class="c" x1="12.282"/><line class="c" x1="12.282" transform="translate(0 7.577)"/><g transform="translate(0 14.482)"><g transform="translate(17.363)"><line class="c" x1="12.282"/></g><line class="c" x1="12.282"/></g></g><g transform="translate(53.955 227.15)"><line class="c" x1="44.304"/><line class="c" x1="44.304" transform="translate(0 7.577)"/><line class="c" x1="44.304" transform="translate(0 15.154)"/></g></g><g transform="translate(767.542 106.579)"><rect class="c" width="59.112" height="174.734" transform="translate(0 40.974)"/><rect class="c" width="59.112" height="174.734" transform="translate(59.112 40.974)"/><rect class="c" width="33.06" height="20.028" transform="translate(59.112 20.946)"/><rect class="c" width="33.06" height="20.028" transform="translate(26.052 20.946)"/><line class="d" x1="33.06" transform="translate(26.052 28.744)"/><g transform="translate(7.828 52.604)"><rect class="d" width="7.753" height="153.793"/><g transform="translate(0 15.263)"><line class="d" x1="7.753"/><line class="d" x1="7.753" transform="translate(0 15.409)"/><line class="d" x1="7.753" transform="translate(0 30.817)"/><line class="d" x1="7.753" transform="translate(0 46.226)"/><line class="d" x1="7.753" transform="translate(0 61.634)"/><line class="d" x1="7.753" transform="translate(0 77.042)"/><line class="d" x1="7.753" transform="translate(0 92.451)"/><line class="d" x1="7.753" transform="translate(0 107.859)"/><line class="d" x1="7.753" transform="translate(0 123.268)"/></g><g transform="translate(17.852)"><rect class="d" width="7.753" height="153.793"/><g transform="translate(0 15.263)"><line class="d" x1="7.753"/><line class="d" x1="7.753" transform="translate(0 15.409)"/><line class="d" x1="7.753" transform="translate(0 30.817)"/><line class="d" x1="7.753" transform="translate(0 46.226)"/><line class="d" x1="7.753" transform="translate(0 61.634)"/><line class="d" x1="7.753" transform="translate(0 77.042)"/><line class="d" x1="7.753" transform="translate(0 92.451)"/><line class="d" x1="7.753" transform="translate(0 107.859)"/><line class="d" x1="7.753" transform="translate(0 123.268)"/></g></g><g transform="translate(35.704)"><rect class="d" width="7.753" height="153.793"/><g transform="translate(0 15.263)"><line class="d" x1="7.753"/><line class="d" x1="7.753" transform="translate(0 15.409)"/><line class="d" x1="7.753" transform="translate(0 30.817)"/><line class="d" x1="7.753" transform="translate(0 46.226)"/><line class="d" x1="7.753" transform="translate(0 61.634)"/><line class="d" x1="7.753" transform="translate(0 77.042)"/><line class="d" x1="7.753" transform="translate(0 92.451)"/><line class="d" x1="7.753" transform="translate(0 107.859)"/><line class="d" x1="7.753" transform="translate(0 123.268)"/></g></g></g><g transform="translate(66.94 52.604)"><rect class="d" width="7.753" height="153.793"/><g transform="translate(0 15.263)"><line class="d" x1="7.753"/><line class="d" x1="7.753" transform="translate(0 15.409)"/><line class="d" x1="7.753" transform="translate(0 30.817)"/><line class="d" x1="7.753" transform="translate(0 46.226)"/><line class="d" x1="7.753" transform="translate(0 61.634)"/><line class="d" x1="7.753" transform="translate(0 77.042)"/><line class="d" x1="7.753" transform="translate(0 92.451)"/><line class="d" x1="7.753" transform="translate(0 107.859)"/><line class="d" x1="7.753" transform="translate(0 123.268)"/></g><g transform="translate(17.852)"><rect class="d" width="7.753" height="153.793"/><g transform="translate(0 15.263)"><line class="d" x1="7.753"/><line class="d" x1="7.753" transform="translate(0 15.409)"/><line class="d" x1="7.753" transform="translate(0 30.817)"/><line class="d" x1="7.753" transform="translate(0 46.226)"/><line class="d" x1="7.753" transform="translate(0 61.634)"/><line class="d" x1="7.753" transform="translate(0 77.042)"/><line class="d" x1="7.753" transform="translate(0 92.451)"/><line class="d" x1="7.753" transform="translate(0 107.859)"/><line class="d" x1="7.753" transform="translate(0 123.268)"/></g></g><g transform="translate(35.704)"><rect class="d" width="7.753" height="153.793"/><g transform="translate(0 15.263)"><line class="d" x1="7.753"/><line class="d" x1="7.753" transform="translate(0 15.409)"/><line class="d" x1="7.753" transform="translate(0 30.817)"/><line class="d" x1="7.753" transform="translate(0 46.226)"/><line class="d" x1="7.753" transform="translate(0 61.634)"/><line class="d" x1="7.753" transform="translate(0 77.042)"/><line class="d" x1="7.753" transform="translate(0 92.451)"/><line class="d" x1="7.753" transform="translate(0 107.859)"/><line class="d" x1="7.753" transform="translate(0 123.268)"/></g></g></g><g transform="translate(49.208)"><line class="d" y1="21.428" transform="translate(11.36)"/><path class="d" d="M863.04,3301.174H847.21a3.446,3.446,0,0,1-3.445-3.445h0a3.446,3.446,0,0,1,3.445-3.447H863.04a3.446,3.446,0,0,1,3.445,3.447h0A3.446,3.446,0,0,1,863.04,3301.174Z" transform="translate(-843.765 -3290.513)"/><line class="d" x2="21.536" transform="translate(0.592 14.537)"/></g><rect class="d" width="12.491" height="12.231" transform="translate(71.929 28.744)"/></g><rect class="c" width="32.881" height="151.917" transform="translate(497.553 170.371)"/><line class="d" x2="921.967" transform="translate(0 323.054)"/></g><g transform="translate(346.247 54.009)"><g transform="translate(16.354 0)"><path class="e" d="M674.169,3433.227l-34.3,1.428a8.614,8.614,0,0,0-8.03,10.569h0a8.613,8.613,0,0,0,9.681,6.554l35.118-5.329Z" transform="translate(-486.483 -3187.55)"/><path class="f" d="M641.992,3447.814a8.6,8.6,0,0,1-9.83-9.636,8.532,8.532,0,0,0-.321,4.962h0a8.613,8.613,0,0,0,9.681,6.554l35.118-5.329-.328-1.759Z" transform="translate(-486.482 -3185.468)"/><line class="g" x2="29.618" transform="translate(246.037 373.173)"/><g transform="translate(6.941 1.545)"><path class="h" d="M725.312,3317.662l-120.283-55.928a3.71,3.71,0,0,0-4.928,1.8l-61.29,131.813,127.01,59.057,61.292-131.813A3.711,3.711,0,0,0,725.312,3317.662Z" transform="translate(-532.465 -3261.387)"/><rect class="i" width="121.518" height="149.076" transform="matrix(0.907, 0.422, -0.422, 0.907, 77.612, 2.693)"/><rect class="j" width="45.029" height="121.518" transform="matrix(0.422, -0.907, 0.907, 0.422, 58.627, 43.524)"/><rect class="h" width="45.029" height="11.242" transform="translate(82.241 54.504) rotate(-65.063)"/><rect class="h" width="45.029" height="11.242" transform="translate(135.006 79.039) rotate(-65.063)"/><path class="k" d="M0,0H140.07a0,0,0,0,1,0,0V8.312a6.739,6.739,0,0,1-6.739,6.739H6.739A6.739,6.739,0,0,1,0,8.312V0A0,0,0,0,1,0,0Z" transform="translate(6.346 133.96) rotate(24.937)"/></g><path class="j" d="M688.989,3400.4l58.54,46.3a22.88,22.88,0,0,1,8.4,21.532l-12.454,78.434-23.878-1.959c-.577-17.773-3.5-37.3-.03-74.9-13.354-5.673-42.121-19.114-53.674-31.767L646.4,3404.8Z" transform="translate(-480.261 -3201.36)"/><g transform="translate(166.141 202.86)"><path class="h" d="M669.26,3432.432l-17.207-29.343-5.65.584,19.495,33.241c11.553,12.653,40.319,26.094,53.674,31.767C706.216,3463.008,680.813,3445.084,669.26,3432.432Z" transform="translate(-646.402 -3403.089)"/><path class="h" d="M710.309,3520.37a10.015,10.015,0,0,1-9.139-8.851c-1.666-14.821-5.7-30.489-2.772-62.262-3.466,37.592-.547,57.123.03,74.9l23.877,1.959.746-4.7Z" transform="translate(-625.229 -3383.666)"/></g><path class="h" d="M677.689,3424.053q12.837,20.509,37.374,35.809l-57.949-23.586Z" transform="translate(-475.754 -3191.41)"/><path class="e" d="M722.239,3504.092l2.814,2.626a48.988,48.988,0,0,0,20.04,11.313l5.751,1.633a7,7,0,0,1,5.07,7.251l-.051.7H697.951a63.989,63.989,0,0,1,2.257-25.64Z" transform="translate(-458.756 -3158.629)"/><path class="f" d="M704.83,3514.665a64.645,64.645,0,0,1,1.588-12.093l-6.21-.6a63.989,63.989,0,0,0-2.257,25.64h57.913l.051-.7a6.983,6.983,0,0,0-.378-2.826H714.006A9.158,9.158,0,0,1,704.83,3514.665Z" transform="translate(-458.756 -3158.629)"/><line class="l" x1="57.913" transform="translate(239.195 370.398)"/><line class="m" x1="32.16" y2="31.027" transform="translate(230.132 374.506)"/><g transform="translate(0 220.498)"><rect class="h" width="5.234" height="3.374" transform="translate(54.587 81.101)"/><rect class="h" width="5.234" height="3.374" transform="translate(130.744 81.101)"/><g transform="translate(297.162 93.089)"><g transform="translate(23.153 23.152)"><g transform="translate(65.345)"><g transform="translate(3.878)"><path class="n" d="M823.392,3575.6a1.056,1.056,0,0,1-1.026-.805l-18.688-76.157a1.058,1.058,0,0,1,2.054-.5l18.688,76.157a1.058,1.058,0,0,1-.776,1.28A1.086,1.086,0,0,1,823.392,3575.6Z" transform="translate(-803.647 -3497.325)"/></g><g transform="translate(0 0)"><path class="n" d="M801.977,3575.6a1.079,1.079,0,0,1-.253-.03,1.057,1.057,0,0,1-.776-1.28l18.688-76.157a1.058,1.058,0,0,1,2.054.5L803,3574.792A1.055,1.055,0,0,1,801.977,3575.6Z" transform="translate(-800.917 -3497.325)"/></g></g><g transform="translate(31.902 6.565)"><g transform="translate(0 7.405)"><path class="n" d="M832.7,3565.884a1.052,1.052,0,0,1-.763-.325l-54.263-56.612a1.058,1.058,0,0,1,1.529-1.464l54.262,56.612a1.058,1.058,0,0,1-.764,1.79Z" transform="translate(-777.377 -3507.157)"/></g><g transform="translate(12.824)"><path class="n" d="M809.357,3579.36a1.059,1.059,0,0,1-1.014-.763l-21.9-75.3a1.058,1.058,0,0,1,2.032-.591l21.9,75.3a1.059,1.059,0,0,1-.72,1.312A1.093,1.093,0,0,1,809.357,3579.36Z" transform="translate(-786.404 -3501.946)"/></g></g><g transform="translate(6.564 31.902)"><g transform="translate(0 12.825)"><path class="n" d="M835.9,3552.818a1.091,1.091,0,0,1-.3-.042l-75.3-21.9a1.057,1.057,0,1,1,.59-2.031l75.3,21.895a1.058,1.058,0,0,1-.294,2.074Z" transform="translate(-759.543 -3528.807)"/></g><g transform="translate(7.405)"><path class="n" d="M822.424,3576.157a1.061,1.061,0,0,1-.733-.293l-56.61-54.262a1.058,1.058,0,1,1,1.463-1.527l56.612,54.262a1.058,1.058,0,0,1-.732,1.821Z" transform="translate(-764.755 -3519.78)"/></g></g><g transform="translate(0 65.345)"><path class="n" d="M755.98,3564.123a1.057,1.057,0,0,1-.251-2.085l76.158-18.687a1.058,1.058,0,0,1,.5,2.055l-76.158,18.686A1.035,1.035,0,0,1,755.98,3564.123Z" transform="translate(-754.922 -3543.32)"/><g transform="translate(0 3.879)"><path class="n" d="M832.139,3566.854a1.031,1.031,0,0,1-.253-.031l-76.158-18.687a1.058,1.058,0,1,1,.5-2.054l76.158,18.687a1.058,1.058,0,0,1-.251,2.086Z" transform="translate(-754.922 -3546.05)"/></g></g><g transform="translate(6.564 67.092)"><g transform="translate(7.405)"><path class="n" d="M765.812,3600.927a1.057,1.057,0,0,1-.732-1.821l56.61-54.262a1.058,1.058,0,0,1,1.465,1.528l-56.612,54.261A1.052,1.052,0,0,1,765.812,3600.927Z" transform="translate(-764.755 -3544.55)"/></g><g transform="translate(0 19.542)"><path class="n" d="M760.6,3582.316a1.057,1.057,0,0,1-.294-2.073l75.3-21.9a1.058,1.058,0,1,1,.591,2.031l-75.3,21.9A1.054,1.054,0,0,1,760.6,3582.316Z" transform="translate(-759.543 -3558.305)"/></g></g><g transform="translate(31.902 71.394)"><g transform="translate(12.824)"><path class="n" d="M787.462,3624.991a1.059,1.059,0,0,1-1.016-1.354l21.9-75.3a1.058,1.058,0,0,1,2.032.591l-21.9,75.3A1.06,1.06,0,0,1,787.462,3624.991Z" transform="translate(-786.404 -3547.578)"/></g><g transform="translate(0 11.283)"><path class="n" d="M778.435,3614.246a1.059,1.059,0,0,1-.764-1.79l54.263-56.61a1.058,1.058,0,0,1,1.527,1.463L779.2,3613.921A1.059,1.059,0,0,1,778.435,3614.246Z" transform="translate(-777.377 -3555.52)"/></g></g><g transform="translate(65.345 77.097)"><path class="n" d="M820.661,3629.866a1.056,1.056,0,0,1-1.026-.805L800.948,3552.9a1.058,1.058,0,1,1,2.054-.5l18.688,76.158a1.058,1.058,0,0,1-.776,1.279A1.037,1.037,0,0,1,820.661,3629.866Z" transform="translate(-800.917 -3551.592)"/><g transform="translate(3.878 0)"><path class="n" d="M804.707,3629.866a1.018,1.018,0,0,1-.253-.031,1.056,1.056,0,0,1-.776-1.279l18.688-76.158a1.058,1.058,0,0,1,2.054.5l-18.688,76.159A1.056,1.056,0,0,1,804.707,3629.866Z" transform="translate(-803.647 -3551.592)"/></g></g><g transform="translate(67.092 71.393)"><g transform="translate(0 11.283)"><path class="n" d="M857.467,3614.246a1.059,1.059,0,0,1-.764-.325l-54.262-56.612a1.058,1.058,0,0,1,1.527-1.463l54.262,56.61a1.058,1.058,0,0,1-.763,1.79Z" transform="translate(-802.147 -3555.52)"/></g><g transform="translate(19.541)"><path class="n" d="M838.856,3624.992a1.06,1.06,0,0,1-1.016-.763l-21.9-75.3a1.058,1.058,0,1,1,2.032-.591l21.9,75.3a1.058,1.058,0,0,1-.72,1.312A1.073,1.073,0,0,1,838.856,3624.992Z" transform="translate(-815.902 -3547.577)"/></g></g><g transform="translate(71.394 67.092)"><g transform="translate(0 19.542)"><path class="n" d="M881.531,3582.316a1.072,1.072,0,0,1-.3-.042l-75.3-21.9a1.058,1.058,0,1,1,.591-2.031l75.3,21.9a1.058,1.058,0,0,1-.294,2.073Z" transform="translate(-805.175 -3558.305)"/></g><g transform="translate(11.282)"><path class="n" d="M870.786,3600.927a1.058,1.058,0,0,1-.733-.294l-56.61-54.261a1.058,1.058,0,1,1,1.463-1.528l56.612,54.262a1.057,1.057,0,0,1-.732,1.821Z" transform="translate(-813.117 -3544.55)"/></g></g><g transform="translate(77.098 65.345)"><g transform="translate(0 3.878)"><path class="n" d="M810.247,3566.854a1.058,1.058,0,0,1-.251-2.086l76.158-18.687a1.058,1.058,0,1,1,.5,2.054L810.5,3566.822A1.032,1.032,0,0,1,810.247,3566.854Z" transform="translate(-809.19 -3546.05)"/></g><path class="n" d="M886.406,3564.123a1.034,1.034,0,0,1-.253-.031L810,3545.406a1.058,1.058,0,0,1,.5-2.055l76.158,18.687a1.058,1.058,0,0,1-.252,2.085Z" transform="translate(-809.19 -3543.32)"/></g><g transform="translate(71.394 31.902)"><g transform="translate(11.282)"><path class="n" d="M814.174,3576.157a1.058,1.058,0,0,1-.732-1.821l56.61-54.262a1.058,1.058,0,0,1,1.465,1.527l-56.612,54.262A1.055,1.055,0,0,1,814.174,3576.157Z" transform="translate(-813.117 -3519.78)"/></g><g transform="translate(0 12.825)"><path class="n" d="M806.232,3552.818a1.058,1.058,0,0,1-.294-2.074l75.3-21.895a1.057,1.057,0,1,1,.591,2.031l-75.3,21.9A1.092,1.092,0,0,1,806.232,3552.818Z" transform="translate(-805.175 -3528.807)"/></g></g><g transform="translate(67.092 6.565)"><g transform="translate(19.541)"><path class="n" d="M816.96,3579.359a1.089,1.089,0,0,1-.3-.042,1.058,1.058,0,0,1-.72-1.312l21.9-75.3a1.058,1.058,0,0,1,2.032.591l-21.9,75.3A1.06,1.06,0,0,1,816.96,3579.359Z" transform="translate(-815.902 -3501.945)"/></g><g transform="translate(0 7.405)"><path class="n" d="M803.205,3565.884a1.058,1.058,0,0,1-.764-1.79l54.262-56.612a1.058,1.058,0,0,1,1.527,1.464l-54.262,56.612A1.052,1.052,0,0,1,803.205,3565.884Z" transform="translate(-802.147 -3507.157)"/></g></g></g><path class="k" d="M837.585,3485.5a94.492,94.492,0,1,0,94.492,94.493A94.489,94.489,0,0,0,837.585,3485.5Zm0,171.122a76.63,76.63,0,1,1,76.629-76.628A76.636,76.636,0,0,1,837.585,3656.617Z" transform="translate(-736.746 -3479.149)"/><path class="h" d="M836.123,3488.97a89.556,89.556,0,1,0,89.556,89.556A89.559,89.559,0,0,0,836.123,3488.97Zm0,166.186a76.63,76.63,0,1,1,76.629-76.629A76.636,76.636,0,0,1,836.123,3655.156Z" transform="translate(-735.284 -3477.687)"/><path class="e" d="M833.686,3494.762a81.327,81.327,0,1,0,81.326,81.328A81.322,81.322,0,0,0,833.686,3494.762Zm0,157.957a76.63,76.63,0,1,1,76.629-76.629A76.636,76.636,0,0,1,833.686,3652.719Z" transform="translate(-732.847 -3475.251)"/><path class="j" d="M750.628,3583.505c-.886-49.02,39.468-90.3,88.5-90.488a88.8,88.8,0,0,1,26.617,3.95,11.939,11.939,0,0,0,13.548-4.889l1.455-2.238a100.538,100.538,0,0,0-42.308-8.807c-54.657.546-99.241,45.113-99.8,99.77a100.391,100.391,0,0,0,15.672,55.078v0a11.971,11.971,0,0,0,4.974-15.706A88.43,88.43,0,0,1,750.628,3583.505Z" transform="translate(-738.625 -3481.028)"/><path class="o" d="M745.825,3530.844a94.145,94.145,0,0,0-4.339,20.947" transform="translate(-737.422 -3460.071)"/><path class="o" d="M747.766,3524.068q-1.017,2.225-1.921,4.509" transform="translate(-735.588 -3462.922)"/><ellipse class="h" cx="17.478" cy="17.478" rx="17.478" ry="17.478" transform="translate(83.361 83.36)"/><circle class="k" cx="12.223" cy="12.223" r="12.223" transform="translate(83.553 100.838) rotate(-45)"/></g><g transform="translate(0 93.155)"><g transform="translate(16.806 23.086)"><g transform="translate(65.346)"><g transform="translate(0 0)"><path class="p" d="M588.341,3575.6a1.1,1.1,0,0,1-.253-.03,1.058,1.058,0,0,1-.774-1.28L606,3498.131a1.058,1.058,0,0,1,2.054.5l-18.686,76.157A1.057,1.057,0,0,1,588.341,3575.6Z" transform="translate(-587.283 -3497.325)"/></g><g transform="translate(3.879)"><path class="p" d="M609.758,3575.6a1.057,1.057,0,0,1-1.027-.805l-18.686-76.157a1.058,1.058,0,0,1,2.054-.5l18.686,76.157a1.057,1.057,0,0,1-.776,1.28A1.075,1.075,0,0,1,609.758,3575.6Z" transform="translate(-590.013 -3497.325)"/></g></g><g transform="translate(67.092 6.565)"><g transform="translate(0 7.405)"><path class="p" d="M589.57,3565.884a1.058,1.058,0,0,1-.764-1.79l54.263-56.612a1.058,1.058,0,0,1,1.527,1.464l-54.262,56.612A1.057,1.057,0,0,1,589.57,3565.884Z" transform="translate(-588.512 -3507.157)"/></g><g transform="translate(19.542)"><path class="p" d="M603.327,3579.359a1.091,1.091,0,0,1-.3-.042,1.06,1.06,0,0,1-.72-1.312l21.9-75.3a1.058,1.058,0,0,1,2.032.591l-21.9,75.3A1.058,1.058,0,0,1,603.327,3579.359Z" transform="translate(-602.268 -3501.945)"/></g></g><g transform="translate(71.394 31.902)"><g transform="translate(0 12.825)"><path class="p" d="M592.6,3552.818a1.058,1.058,0,0,1-.3-2.074l75.3-21.895a1.057,1.057,0,1,1,.591,2.031l-75.3,21.9A1.082,1.082,0,0,1,592.6,3552.818Z" transform="translate(-591.54 -3528.807)"/></g><g transform="translate(11.284)"><path class="p" d="M600.54,3576.157a1.058,1.058,0,0,1-.733-1.821l56.612-54.262a1.058,1.058,0,1,1,1.463,1.527l-56.61,54.262A1.06,1.06,0,0,1,600.54,3576.157Z" transform="translate(-599.482 -3519.78)"/></g></g><g transform="translate(77.098 65.345)"><path class="p" d="M672.772,3564.123a1.02,1.02,0,0,1-.253-.031l-76.158-18.686a1.058,1.058,0,1,1,.5-2.055l76.158,18.687a1.058,1.058,0,0,1-.251,2.085Z" transform="translate(-595.555 -3543.32)"/><g transform="translate(0 3.878)"><path class="p" d="M596.613,3566.854a1.058,1.058,0,0,1-.251-2.086l76.158-18.687a1.058,1.058,0,0,1,.5,2.054l-76.158,18.687A1.049,1.049,0,0,1,596.613,3566.854Z" transform="translate(-595.555 -3546.05)"/></g></g><g transform="translate(71.394 67.092)"><g transform="translate(11.284)"><path class="p" d="M657.151,3600.927a1.054,1.054,0,0,1-.732-.294l-56.612-54.261a1.058,1.058,0,0,1,1.465-1.528l56.61,54.262a1.057,1.057,0,0,1-.732,1.821Z" transform="translate(-599.482 -3544.55)"/></g><g transform="translate(0 19.542)"><path class="p" d="M667.9,3582.316a1.054,1.054,0,0,1-.3-.042l-75.3-21.9a1.058,1.058,0,1,1,.591-2.031l75.3,21.9a1.058,1.058,0,0,1-.3,2.073Z" transform="translate(-591.54 -3558.305)"/></g></g><g transform="translate(67.092 71.393)"><g transform="translate(19.542)"><path class="p" d="M625.221,3624.992a1.06,1.06,0,0,1-1.016-.763l-21.9-75.3a1.058,1.058,0,1,1,2.032-.591l21.9,75.3a1.059,1.059,0,0,1-1.016,1.354Z" transform="translate(-602.268 -3547.577)"/></g><g transform="translate(0 11.283)"><path class="p" d="M643.832,3614.246a1.053,1.053,0,0,1-.763-.325l-54.263-56.612a1.058,1.058,0,0,1,1.529-1.463l54.262,56.61a1.059,1.059,0,0,1-.764,1.79Z" transform="translate(-588.512 -3555.52)"/></g></g><g transform="translate(65.346 77.097)"><g transform="translate(3.879 0)"><path class="p" d="M591.071,3629.866a1.034,1.034,0,0,1-.253-.031,1.057,1.057,0,0,1-.774-1.279L608.73,3552.4a1.058,1.058,0,0,1,2.054.5L592.1,3629.061A1.059,1.059,0,0,1,591.071,3629.866Z" transform="translate(-590.013 -3551.592)"/></g><path class="p" d="M607.028,3629.866a1.058,1.058,0,0,1-1.027-.805L587.314,3552.9a1.058,1.058,0,1,1,2.054-.5l18.686,76.158a1.057,1.057,0,0,1-.776,1.279A1.026,1.026,0,0,1,607.028,3629.866Z" transform="translate(-587.283 -3551.592)"/></g><g transform="translate(31.902 71.394)"><g transform="translate(0 11.283)"><path class="p" d="M564.8,3614.246a1.058,1.058,0,0,1-.763-1.79l54.262-56.61a1.058,1.058,0,1,1,1.527,1.463l-54.262,56.612A1.056,1.056,0,0,1,564.8,3614.246Z" transform="translate(-563.743 -3555.52)"/></g><g transform="translate(12.824)"><path class="p" d="M573.829,3624.991a1.072,1.072,0,0,1-.3-.042,1.059,1.059,0,0,1-.72-1.311l21.9-75.3a1.058,1.058,0,0,1,2.032.591l-21.9,75.3A1.058,1.058,0,0,1,573.829,3624.991Z" transform="translate(-572.769 -3547.578)"/></g></g><g transform="translate(6.565 67.092)"><g transform="translate(0 19.542)"><path class="p" d="M546.965,3582.316a1.058,1.058,0,0,1-.294-2.073l75.3-21.9a1.058,1.058,0,0,1,.59,2.031l-75.3,21.9A1.073,1.073,0,0,1,546.965,3582.316Z" transform="translate(-545.908 -3558.305)"/></g><g transform="translate(7.404)"><path class="p" d="M552.177,3600.927a1.057,1.057,0,0,1-.732-1.821l56.612-54.262a1.058,1.058,0,0,1,1.463,1.528l-56.61,54.261A1.058,1.058,0,0,1,552.177,3600.927Z" transform="translate(-551.12 -3544.55)"/></g></g><g transform="translate(0 65.345)"><g transform="translate(0 3.879)"><path class="p" d="M618.5,3566.854a1.039,1.039,0,0,1-.253-.031l-76.158-18.687a1.058,1.058,0,1,1,.5-2.054l76.158,18.687a1.058,1.058,0,0,1-.251,2.086Z" transform="translate(-541.287 -3546.05)"/></g><path class="p" d="M542.345,3564.123a1.058,1.058,0,0,1-.252-2.085l76.158-18.687a1.058,1.058,0,0,1,.5,2.055L542.6,3564.092A1.027,1.027,0,0,1,542.345,3564.123Z" transform="translate(-541.287 -3543.32)"/></g><g transform="translate(6.565 31.902)"><g transform="translate(7.404)"><path class="p" d="M608.789,3576.157a1.054,1.054,0,0,1-.732-.293L551.445,3521.6a1.058,1.058,0,0,1,1.465-1.527l56.61,54.262a1.058,1.058,0,0,1-.732,1.821Z" transform="translate(-551.12 -3519.78)"/></g><g transform="translate(0 12.825)"><path class="p" d="M622.264,3552.818a1.075,1.075,0,0,1-.3-.042l-75.3-21.9a1.057,1.057,0,1,1,.591-2.031l75.3,21.895a1.058,1.058,0,0,1-.294,2.074Z" transform="translate(-545.908 -3528.807)"/></g></g><g transform="translate(31.902 6.565)"><g transform="translate(12.824)"><path class="p" d="M595.723,3579.36a1.06,1.06,0,0,1-1.016-.763l-21.9-75.3a1.058,1.058,0,0,1,2.032-.591l21.9,75.3a1.058,1.058,0,0,1-.72,1.312A1.073,1.073,0,0,1,595.723,3579.36Z" transform="translate(-572.769 -3501.946)"/></g><g transform="translate(0 7.405)"><path class="p" d="M619.062,3565.884a1.055,1.055,0,0,1-.763-.325l-54.262-56.612a1.058,1.058,0,0,1,1.527-1.464l54.262,56.612a1.057,1.057,0,0,1-.764,1.79Z" transform="translate(-563.743 -3507.157)"/></g></g></g><path class="k" d="M623.95,3485.5a94.492,94.492,0,1,0,94.492,94.493A94.489,94.489,0,0,0,623.95,3485.5Zm0,171.122a76.63,76.63,0,1,1,76.631-76.628A76.634,76.634,0,0,1,623.95,3656.617Z" transform="translate(-529.458 -3479.215)"/><path class="h" d="M622.74,3488.371a90.406,90.406,0,1,0,90.407,90.407A90.409,90.409,0,0,0,622.74,3488.371Zm0,167.036a76.63,76.63,0,1,1,76.631-76.629A76.635,76.635,0,0,1,622.74,3655.407Z" transform="translate(-528.248 -3478.005)"/><path class="e" d="M620.051,3494.762a81.327,81.327,0,1,0,81.326,81.328A81.323,81.323,0,0,0,620.051,3494.762Zm0,157.957a76.63,76.63,0,1,1,76.631-76.629A76.635,76.635,0,0,1,620.051,3652.719Z" transform="translate(-525.559 -3475.317)"/><g transform="translate(12.728)"><path class="j" d="M707.917,3532.141h0a11.812,11.812,0,0,1-16.1-2.823c-26.213-35.553-76.537-47.045-115.768-24.588a88.766,88.766,0,0,0-19.442,15.014,15.559,15.559,0,0,1-18.193,3.046,99.869,99.869,0,0,1,14.294-15.909,101.194,101.194,0,0,1,17.946-12.869c47.606-26.86,108.5-10.556,136.315,36.5C707.29,3531.053,707.607,3531.6,707.917,3532.141Z" transform="translate(-538.417 -3481.075)"/></g><ellipse class="k" cx="23.976" cy="23.976" rx="23.976" ry="23.976" transform="translate(70.516 76.797)"/><path class="o" d="M561.4,3496a94.906,94.906,0,0,0-11.392,8.811m18.188-12.885q-2.084,1.134-4.1,2.367" transform="translate(-520.814 -3476.51)"/></g><g transform="translate(330.944)"><path class="b" d="M809.709,3438.713a23.11,23.11,0,0,1-20.992,23.093l-11.326,1.087-14.159,1.347-.646-2.88a7.422,7.422,0,0,1,6.535-9.014l5.774-.552,12.742-1.221a11.914,11.914,0,0,0,6.805-20.751,11.752,11.752,0,0,0-9.287-2.956l-8.652.98-1.27-11.205,8.653-.987a23.2,23.2,0,0,1,25.823,23.059Z" transform="translate(-762.403 -3415.505)"/></g><g transform="translate(331.211 13.969)"><path class="q" d="M807.7,3425.336A23.173,23.173,0,0,1,787.73,3455.2l-11.324,1.085-13.813,1.314.561,2.5,14.159-1.347,11.326-1.087a23.186,23.186,0,0,0,19.067-32.333Z" transform="translate(-762.592 -3425.336)"/></g><g transform="translate(170.024 45.843)"><path class="b" d="M656.179,3477.344a7.052,7.052,0,0,1-.664-14.071L817.207,3447.8a7.052,7.052,0,0,1,1.343,14.04l-161.69,15.469C656.63,3477.333,656.4,3477.344,656.179,3477.344Z" transform="translate(-649.135 -3447.772)"/></g><g transform="translate(286.812 50.926)"><line class="o" y1="0.694" x2="7.501" transform="translate(25.524)"/><line class="o" y1="2.078" x2="22.462" transform="translate(0 0.977)"/></g><path class="q" d="M824.743,3451.623a7.05,7.05,0,0,1-6.1,5.075l-161.69,15.468c-.227.021-.455.033-.679.033a7.05,7.05,0,0,1-6.858-5.471,7.042,7.042,0,0,0,6.765,9c.224,0,.452-.011.68-.032l161.69-15.469a7.011,7.011,0,0,0,6.194-8.6Z" transform="translate(-479.111 -3400.309)"/><g transform="translate(86.97 61.311)"><path class="b" d="M761.627,3599.48h-163.9a7.051,7.051,0,0,1-5.9-10.917l83.055-126.717a7.051,7.051,0,0,1,11.795,7.731l-75.9,115.8H757.835l80.727-122.1a7.052,7.052,0,1,1,11.765,7.778l-82.818,125.261A7.052,7.052,0,0,1,761.627,3599.48Z" transform="translate(-590.675 -3458.66)"/></g><g transform="translate(86.996 62.831)"><path class="q" d="M681.512,3469.129l-.634.966-3.265,4.985-68.769,104.908h-5.887l72.688-110.9,3.208-4.9a.666.666,0,0,0,.057-.093,7.01,7.01,0,0,0,1.071-4.372A7.053,7.053,0,0,1,681.512,3469.129Z" transform="translate(-585.533 -3459.73)"/><path class="q" d="M850.32,3470.178l-4.1,6.191-2.8,4.239L767.5,3595.436a7.043,7.043,0,0,1-5.88,3.16h-163.9a7.058,7.058,0,0,1-6.206-3.7,7.15,7.15,0,0,1-.818-2.758,7.062,7.062,0,0,0,4.372,1.517h163.9a7.043,7.043,0,0,0,5.882-3.159l77.074-116.578,2.807-4.238,2.932-4.443a7.018,7.018,0,0,0,1.144-4.485A7.052,7.052,0,0,1,850.32,3470.178Z" transform="translate(-590.693 -3459.298)"/></g><g transform="translate(161.447 15.519)"><path class="b" d="M703.6,3602.55a7.759,7.759,0,0,1-7.368-5.338l-52.749-160.6a7.757,7.757,0,1,1,14.74-4.84l52.749,160.6a7.763,7.763,0,0,1-7.372,10.179Z" transform="translate(-643.098 -3426.428)"/></g><path class="q" d="M701.424,3586.845c-.014,0-.021.007-.035.014a7.752,7.752,0,0,1-9.787-4.949L656.09,3473.786l-1.968-5.987,3.208-4.9a.62.62,0,0,0,.057-.093l1.968,5.994L696.5,3581.909A7.765,7.765,0,0,0,701.424,3586.845Z" transform="translate(-477.013 -3395.604)"/><g transform="translate(93.792 203.107)"><g transform="translate(0)"><rect class="h" width="4.231" height="131.757" transform="translate(0 4.206) rotate(-83.769)"/></g></g><g transform="translate(93.69 160.337)"><g transform="translate(0 0)"><rect class="h" width="128.624" height="4.231" transform="matrix(0.988, -0.157, 0.157, 0.988, 0, 20.223)"/></g></g><path class="e" d="M697.551,3528.182a31.028,31.028,0,1,0,31.028,31.027A31.027,31.027,0,0,0,697.551,3528.182Zm0,53.569a22.542,22.542,0,1,1,22.544-22.542A22.542,22.542,0,0,1,697.551,3581.75Z" transform="translate(-471.795 -3368.102)"/><ellipse class="j" cx="15.514" cy="15.514" rx="15.514" ry="15.514" transform="translate(210.243 175.593)"/><ellipse class="k" cx="9.088" cy="9.088" rx="9.088" ry="9.088" transform="translate(214.927 184.184) rotate(-12.414)"/><g transform="translate(59.821 85.502)"><g transform="translate(0)"><rect class="h" width="5.642" height="115.224" transform="translate(0 1.072) rotate(-10.954)"/></g></g><g transform="translate(99.484 85.502)"><g transform="translate(0)"><rect class="h" width="115.224" height="5.642" transform="translate(0 113.123) rotate(-79.044)"/></g></g><path class="k" d="M656.831,3479.72H563.7a2.821,2.821,0,0,1-2.82-2.82h0a2.821,2.821,0,0,1,2.82-2.821h93.136a2.821,2.821,0,0,1,2.82,2.821h0A2.821,2.821,0,0,1,656.831,3479.72Z" transform="translate(-516.241 -3390.863)"/><path class="h" d="M561.172,3477.1a2.811,2.811,0,0,0,2.4,1.353h93.136a2.813,2.813,0,0,0,2.4-1.353Z" transform="translate(-516.116 -3389.592)"/><g transform="translate(77.014 176.45)"><ellipse class="p" cx="17.478" cy="17.478" rx="17.478" ry="17.478"/><ellipse class="k" cx="12.223" cy="12.223" rx="12.223" ry="12.223" transform="translate(2.789 26.591) rotate(-76.817)"/><ellipse class="p" cx="5.703" cy="5.703" rx="5.703" ry="5.703" transform="translate(10.62 21.724) rotate(-76.764)"/></g><g transform="translate(330.644 36.288)"><path class="b" d="M833.773,3604.334a7.056,7.056,0,0,1-9.872-1.423l-38.629-51.7-21.951-97.721-.979-4.359a6.088,6.088,0,0,1,5.36-7.392l7.281-.7,2.5,11.1,20.894,93.038,36.824,49.277A7.054,7.054,0,0,1,833.773,3604.334Z" transform="translate(-762.193 -3441.047)"/></g><path class="q" d="M830.81,3592.9a7.043,7.043,0,0,1-9.153-1.89l-38.629-51.7-14-62.315-1.5-6.686h0a2.165,2.165,0,0,1,3.917.723l.385,1.724,14.738,65.616,38.629,51.7A7.05,7.05,0,0,0,830.81,3592.9Z" transform="translate(-429.304 -3392.856)"/></g><path class="r" d="M812.944,3421.9h-.47" transform="translate(-410.395 -3192.315)"/><line class="s" x1="24.072" y1="18.768" transform="translate(179.362 434.17)"/><line class="m" x1="32.16" y2="31.027" transform="translate(193.597 411.605)"/><g transform="translate(117.108 198.974)"><path class="j" d="M720.822,3486.262,681,3400.354l-69.115,6.284c0,39.148,50.811,54.5,71.66,85.933a12.24,12.24,0,0,1,1.3,10.732c-11.905,34.844-11.965,70.4-14.943,96.449l24.9,7.378,27.692-100.757A29.33,29.33,0,0,0,720.822,3486.262Z" transform="translate(-611.888 -3400.354)"/><path class="e" d="M680.565,3548l6.471,19.272a37.485,37.485,0,0,0,5.063,9.709l10.227,14.111a5.3,5.3,0,0,1,.091,6.095l-2.738,4.027a2.274,2.274,0,0,1-3.278.515l-52.122-40.637a2.726,2.726,0,0,1-.936-2.941c1.965-6.451,5.816-12.374,10.8-17.981Z" transform="translate(-598.704 -3341.535)"/><path class="f" d="M661.878,3570.032c-8.828-9-3.888-20.891-.869-27.827l-6.866-2.035c-4.982,5.606-8.834,11.529-10.8,17.981a2.726,2.726,0,0,0,.936,2.941l28.874,22.511A98.9,98.9,0,0,0,661.878,3570.032Z" transform="translate(-598.704 -3341.535)"/><line class="t" x1="11.48" y2="6.882" transform="translate(73.928 217.032)"/><line class="t" x1="9.808" y2="5.879" transform="translate(78.473 225.236)"/><line class="t" x1="8.136" y2="4.877" transform="translate(84.213 233.401)"/><line class="u" x1="52.122" y1="40.638" transform="translate(44.501 220.715)"/><g class="v"><path class="h" d="M642.6,3406.543c-.118,8.228-1.527,31.412,15.4,43.72,16.525,12.018,53.127,45.917,48.5,56.413-19.056,43.25-24.331,87.706-19.824,96.373,3.056,5.876,14.742,4.913,17.794,8.226,1.841,2-4.161,7.287-4.161,7.287l-48.656-12.585-61.638-139.024,16.925-83.209Z" transform="translate(-621.091 -3407.342)"/></g></g><g transform="translate(114.526)"><path class="h" d="M1.809,0H3.588A1.809,1.809,0,0,1,5.4,1.809V3.594a0,0,0,0,1,0,0H0a0,0,0,0,1,0,0V1.809A1.809,1.809,0,0,1,1.809,0Z" transform="translate(129.388 1.004) rotate(-10.723)"/><path class="w" d="M719.862,3323.478l-.43,1.043-1.319,3.181-4.294,10.352-31.584-6.234,12.679-29.6Z" transform="translate(-579.712 -3242.665)"/><path class="x" d="M699.425,3311.554a47.014,47.014,0,0,0,11.766,11.475l1.01-2.436.169-.41A45.483,45.483,0,0,1,699.425,3311.554Z" transform="translate(-572.481 -3238.737)"/><path class="y" d="M615.241,3400.66l-5.17,21.227,20.222,2.957a103.478,103.478,0,0,0,64.95-11.787l12.2-6.729-2.407-6.535Z" transform="translate(-610.071 -3201.616)"/><g transform="translate(109.676 21.23)"><path class="w" d="M738.973,3309.553l5.319-.84a2.269,2.269,0,0,0,1.731-3.135L739,3289.224c.747-4.623,1.8-7.228,1.171-13.981l-52.686,5.271c-.132,1.544-.214,3.1-.214,4.68,0,11.025,1.431,21.295,6.328,29.853a46.774,46.774,0,0,0,41.875,24.115h0a6.188,6.188,0,0,0,6.147-5.958l.06-1.624a60.592,60.592,0,0,0-1.74-16.837l-1.2-4.835A.29.29,0,0,1,738.973,3309.553Z" transform="translate(-687.27 -3275.243)"/></g><rect class="h" width="3.681" height="5.016" rx="1.296" transform="translate(152.81 40.815)"/><path class="z" d="M718.838,3290.86h0a.766.766,0,0,0,.767-.766h0a.767.767,0,0,0-.767-.766h0a.765.765,0,0,0-.766.766h0A.765.765,0,0,0,718.838,3290.86Z" transform="translate(-564.636 -3248.087)"/><path class="aa" d="M711.407,3306.994c4.98,1.533,11.172,2.129,15.98,1.025" transform="translate(-567.44 -3240.656)"/><path class="ab" d="M724.495,3300.031l-1.4.17a1.77,1.77,0,0,1-1.965-1.486h0" transform="translate(-563.35 -3244.137)"/><path class="ab" d="M698.205,3311.09a20.986,20.986,0,0,0,7.711,6.594" transform="translate(-572.994 -3238.932)"/><path class="ab" d="M719.02,3318.106c2.51.7,4.721-.115,6.7-2.115" transform="translate(-564.237 -3236.87)"/><path class="ac" d="M691.5,3292.742c0-1.579.083-3.137.215-4.68l48.358-4.837a32.977,32.977,0,0,0,.1-7.982l-52.686,5.271c-.132,1.544-.214,3.1-.214,4.68,0,11.025,1.431,21.295,6.328,29.853C694.312,3316.294,691.5,3302.131,691.5,3292.742Z" transform="translate(-577.594 -3254.013)"/><path class="h" d="M730.048,3281.87a3.735,3.735,0,0,1-5.466-3.85,3.832,3.832,0,0,0-.368.2,3.761,3.761,0,1,0,5.833,3.648Z" transform="translate(-562.741 -3252.845)"/><path class="h" d="M689.312,3292.559a4.947,4.947,0,0,1-5.68,6.8,4.973,4.973,0,1,0,8.889-4.423A4.954,4.954,0,0,0,689.312,3292.559Z" transform="translate(-579.124 -3246.728)"/><path class="h" d="M691.619,3296.018a4.948,4.948,0,0,1-5.68,6.8,4.973,4.973,0,1,0,8.889-4.424A4.95,4.95,0,0,0,691.619,3296.018Z" transform="translate(-578.154 -3245.273)"/><path class="h" d="M726.738,3281.358a3.734,3.734,0,0,1-5.465-3.849,3.48,3.48,0,0,0-.368.2,3.761,3.761,0,1,0,5.833,3.648Z" transform="translate(-564.133 -3253.06)"/><path class="ac" d="M685.057,3331.069l10.742-25.081a3.266,3.266,0,0,0-.884-3.77h0l-12.68,29.6,31.585,6.233.5-1.207Z" transform="translate(-579.712 -3242.665)"/><path class="b" d="M694.326,3313.41c6.544,4.835,14.609,10.209,24.929,13.482a3.085,3.085,0,0,1,1.625,4.63l-12.933,19.763s-9.919-10.585-9.919-11.29S694.326,3313.41,694.326,3313.41Z" transform="translate(-574.626 -3237.957)"/><path class="q" d="M713.449,3338.914c-3.241-6.689-8.383-15.439-14.792-20l-.617-.071c-.312,5.162-1.108,18.295-1.108,18.861,0,.518,5.355,6.37,8.195,9.438l2.83.162Z" transform="translate(-573.529 -3235.669)"/><path class="q" d="M648.772,3327.787c-1.026-8.985,18.921-22.193,33.557-29.628a13.99,13.99,0,0,1,13.377.374,54.676,54.676,0,0,1,10.334,7.778c6.314,6.059,10.03,18.1,9.09,26.8-.372,3.449-1.107,4.395-1.107,4.395S650.16,3339.934,648.772,3327.787Z" transform="translate(-593.806 -3245.013)"/><path class="b" d="M699.714,3306.311a54.676,54.676,0,0,0-10.334-7.778,13.99,13.99,0,0,0-13.377-.374c-2.6,1.322-5.373,2.829-8.165,4.459-2.756,4.4-4.336,8.646-4.028,12.367.869,10.509,26.243,13.121,45.087,13.6C708.448,3320.611,704.989,3311.372,699.714,3306.311Z" transform="translate(-587.479 -3245.013)"/><path class="q" d="M714.612,3336.794c.027-.727.052-1.4.07-2.036a20.791,20.791,0,0,0-7.126-16.426,11.08,11.08,0,0,0-3.766-2.248,191.646,191.646,0,0,0-24.342-6.156,27.145,27.145,0,0,0-21.818,5.7c-.4.331-.82.685-1.229,1.028C661.828,3328.283,691.7,3334.049,714.612,3336.794Z" transform="translate(-590.58 -3239.588)"/><path class="e" d="M697.689,3282.847a154.362,154.362,0,0,0-27.978,6.973,2.184,2.184,0,0,0-1.449,2.464h0a2.188,2.188,0,0,0,2.721,1.716c16.305-4.363,23.456-4.059,30.9-3.9l.217-8.132Z" transform="translate(-585.605 -3251.185)"/><path class="e" d="M697.689,3282.847a154.362,154.362,0,0,0-27.978,6.973,2.184,2.184,0,0,0-1.449,2.464h0a2.188,2.188,0,0,0,2.721,1.716c16.305-4.363,23.456-4.059,30.9-3.9l.217-8.132Z" transform="translate(-585.605 -3251.185)"/><path class="f" d="M668.438,3291.486a2.184,2.184,0,0,0,2.456,1.024c14.673-3.927,21.931-4.073,28.661-3.95l.223-3.054-4.445.679A150.82,150.82,0,0,0,668.438,3291.486Z" transform="translate(-585.517 -3249.695)"/><path class="h" d="M685.073,3284.615c0,10.673,1.286,20.669,5.517,29.208l.713.645c4.231,0,9.637-12.694,9.637-20.92s7.42-8.227,9.821-5.877,1.462,7.993,5.927,9.4,6.112.47,6.112.47l-.1-1.381a41.475,41.475,0,0,1,3.087-18.952l.538-1.291v0L685.3,3279.7C685.16,3281.324,685.073,3282.96,685.073,3284.615Z" transform="translate(-578.518 -3253.729)"/><path class="x" d="M702.5,3285.958a3.839,3.839,0,0,0-6.468,1.1,10.57,10.57,0,0,0,1.78,10.459,3.839,3.839,0,0,0,6.468-1.1,10.57,10.57,0,0,0-1.78-10.459Z" transform="translate(-574.191 -3250.062)"/><path class="w" d="M703.194,3284.017a4.45,4.45,0,0,0-7.5,1.277,12.246,12.246,0,0,0,2.064,12.127,4.45,4.45,0,0,0,7.5-1.276,12.25,12.25,0,0,0-2.064-12.129Z" transform="translate(-574.378 -3250.967)"/><path class="ab" d="M697.828,3284.746c.724-.535,3.705-.3,4.391,4.134" transform="translate(-573.152 -3250.102)"/><path class="x" d="M701.943,3291.945a2.289,2.289,0,0,1-3.857.656,5.832,5.832,0,0,1-1.2-2.25c-.135-1.846.105-2.453.986-2.756a5.77,5.77,0,0,0,.078.769,6.076,6.076,0,0,0,1.368,2.975,2.239,2.239,0,0,0,1.713.79A2.356,2.356,0,0,0,701.943,3291.945Z" transform="translate(-573.562 -3248.816)"/><path class="k" d="M684.271,3293.1l-.591-8.21a18.693,18.693,0,0,1,15.373-19.744l23.994-4.265a15.886,15.886,0,0,1,18.543,13.683l1.783,14.366Z" transform="translate(-579.125 -3260.16)"/><g transform="translate(116.92 7.915)"><line class="ad" x1="0.021" y1="0.339" transform="translate(0.399 18.924)"/><path class="ae" d="M692.632,3282.285l-.227-3.662a18.431,18.431,0,0,1,3.469-11.959" transform="translate(-692.369 -3265.538)"/><path class="ad" d="M695.3,3266.132c.072-.088.145-.175.219-.261" transform="translate(-691.134 -3265.871)"/></g><g transform="translate(134.379 5.877)"><path class="ad" d="M704.658,3264.436a3.135,3.135,0,0,1,.054.332" transform="translate(-704.658 -3264.436)"/><path class="af" d="M704.86,3266.174c.419,4.242,1.139,12.712,1.421,16.061" transform="translate(-704.573 -3263.705)"/><path class="ad" d="M705.924,3278.234l.028.335" transform="translate(-704.125 -3258.631)"/></g><g transform="translate(143.456 4.064)"><line class="ad" x2="0.322" y2="0.107"/><path class="ag" d="M712.622,3263.723a11.15,11.15,0,0,1,6.579,9.183l.8,8.829" transform="translate(-710.384 -3262.923)"/><line class="ad" x2="0.031" y2="0.338" transform="translate(9.712 19.827)"/></g><line class="ah" x1="58.616" y2="4.17" transform="translate(104.979 25.815)"/><path class="h" d="M725.527,3272.511l-.553.563a7.982,7.982,0,0,0-2.241,6.445l.183,1.685,3.638-.4Z" transform="translate(-562.694 -3255.162)"/><rect class="h" width="7.757" height="1.945" transform="matrix(0.995, -0.102, 0.102, 0.995, 150.355, 37.957)"/><g transform="translate(1.87 73.529)"><path class="b" d="M611.387,3447.25c8.986-53.969,38.528-98.234,61.58-122.76q2.3-2.451,4.513-4.637a27.14,27.14,0,0,1,21.188-7.717,173.323,173.323,0,0,1,23.5,3.448,29.6,29.6,0,0,1,20.938,40.579c-13.418,31.335-29.337,69.349-33.737,85.19C689.732,3456.653,657.319,3465.818,611.387,3447.25Z" transform="translate(-611.387 -3312.056)"/><g class="ai"><path class="q" d="M657.756,3340.369l34.794-28.845,7.43,6.684c12.55,14.477,5.626,22.989,11.346,31.747,13.073,20.018,15.882,15.772,18.365,33.22h0l-10.26.509a34.282,34.282,0,0,0-32.16,28.838l-.259,1.625a64.183,64.183,0,0,1-41.173,50.105l-13.5,4.979-42.324-13.749L629.2,3355Z" transform="translate(-620.379 -3312.28)"/></g></g><g transform="translate(90.112 149.116)"><g transform="translate(0)"><rect class="h" width="33.263" height="12.693" transform="translate(0 29.819) rotate(-63.695)"/></g></g><g transform="translate(3.722 144.425)"><path class="h" d="M726.258,3373.086c-40.717,22.318-77.928,36.57-113.567,43.474q1.492-6.96,3.421-13.666c32.578-7.038,66.736-20.485,104.039-40.936Z" transform="translate(-612.691 -3361.958)"/></g><line class="aj" y1="14.673" x2="7.322" transform="translate(96.618 151.102)"/><g transform="translate(90.112 93.935)"><path class="ac" d="M762.531,3412.856l22.333-1.44a1.8,1.8,0,0,1,1.892,1.51h0a4.226,4.226,0,0,1-3.863,4.885l-19.981,1.469Z" transform="translate(-636.044 -3290.663)"/><path class="w" d="M760.1,3411.277l15.94-5.609a3.662,3.662,0,0,1,4.114,1.219l15.288,19.847a2.383,2.383,0,0,1-.386,3.3l-11.347,9.2a3.457,3.457,0,0,1-4.367-.01h0a3.457,3.457,0,0,1-.624-4.687l5.785-8.1-6.818-4.182-4.261,12.782h0a30.317,30.317,0,0,1-22.336-5.779l-1.951-1.463Z" transform="translate(-641.677 -3293.167)"/><ellipse class="h" cx="11.283" cy="11.283" rx="11.283" ry="11.283" transform="translate(126.486 122.02)"/><ellipse class="z" cx="5.405" cy="5.405" rx="5.405" ry="5.405" transform="translate(131.566 128.835) rotate(-9.24)"/><g transform="translate(0.001)"><path class="b" d="M716.8,3326.418l16.078,62.4,59.523,56.14-11.1,16.256-67.07-47.148L673.5,3347.126Z" transform="translate(-673.499 -3326.418)"/><g class="ak"><line class="b" x2="16.078" y2="62.401" transform="translate(43.304)"/></g></g><g transform="translate(0.001)"><path class="b" d="M716.8,3326.418l16.078,62.4,59.523,56.14-11.1,16.256-67.07-47.148L673.5,3347.126Z" transform="translate(-673.499 -3326.418)"/><g class="ak"><line class="b" x2="16.078" y2="62.401" transform="translate(43.304)"/></g></g><line class="b" x2="16.078" y2="62.401" transform="translate(43.304)"/><path class="b" d="M732.881,3388.82l-16.078-62.4-43.3,20.708,40.732,66.942,67.07,47.148,11.1-16.256Z" transform="translate(-673.499 -3326.418)"/><path class="q" d="M717.922,3406.884l-26.377-47.716-14.355-19.227-3.69,1.5,40.732,66.942,67.07,47.148,1.228-1.8Z" transform="translate(-673.499 -3320.73)"/><path class="q" d="M677.282,3339.721l-3.783,1.809,18.209,29.926,2.861-.142h0C692.157,3354.356,689.433,3357.883,677.282,3339.721Z" transform="translate(-673.499 -3320.823)"/><line class="al" x1="12.212" y1="20.921" transform="translate(13.486 42.869)"/></g><path class="am" d="M687.336,3285.3a47.287,47.287,0,0,0,1.412,10.108" transform="translate(-577.566 -3249.782)"/><path class="am" d="M691.644,3293.167c.415,2.77.979,4.925.979,4.925" transform="translate(-575.754 -3246.473)"/><path class="am" d="M708.688,3283.48a9.381,9.381,0,0,0-.581,6.346" transform="translate(-568.968 -3250.548)"/><path class="an" d="M713.015,3379.131a19.474,19.474,0,0,1,4.326-8.038" transform="translate(-566.763 -3213.69)"/><path class="an" d="M710.848,3376.912a19.465,19.465,0,0,1,6.484-6.425" transform="translate(-567.675 -3213.944)"/><line class="an" x2="9.696" y2="27.528" transform="translate(131.16 97.252)"/><path class="an" d="M690.235,3311.209c-5.372-1.127-9.661-3.729-12.472-8.351" transform="translate(-581.594 -3242.396)"/><path class="an" d="M684.125,3305.063a6.612,6.612,0,0,1,5.154,1.818" transform="translate(-578.917 -3241.472)"/><path class="an" d="M649.779,3408.335a62.4,62.4,0,0,0,28.206-.075" transform="translate(-593.366 -3198.054)"/><path class="an" d="M646.677,3412.167c2.044,1,6.215.648,9.7.1" transform="translate(-594.671 -3196.41)"/></g><ellipse class="n" cx="5.994" cy="5.994" rx="5.994" ry="5.994" transform="translate(170.116 406.492)"/><g transform="translate(238.763 343.348)"><g class="ao"><ellipse class="ap" cx="14.126" cy="14.126" rx="14.126" ry="14.126" transform="matrix(0.387, -0.922, 0.922, 0.387, -18.064, 32.088)"/></g></g><path class="aq" d="M684.121,3469.568a36.534,36.534,0,0,0-3.043,13.69" transform="translate(-465.673 -3172.262)"/><path class="aq" d="M634.47,3429.382c8.087,4.158,13.5,5.3,18.038,5.462" transform="translate(-485.28 -3189.168)"/><path class="aq" d="M689.9,3474.965a38.984,38.984,0,0,1-7.214,12.3" transform="translate(-464.995 -3169.991)"/><path class="aq" d="M695.865,3420.779A46.751,46.751,0,0,1,710.254,3433" transform="translate(-459.452 -3192.787)"/></g><line class="aq" x2="151.212" transform="translate(270.782 508.917)"/><line class="aq" x2="9.872" transform="translate(254.564 508.917)"/><line class="aq" x2="241.243" transform="translate(0 508.917)"/><g transform="translate(228.675 154.854)"><rect class="j" width="14.76" height="6.346" transform="matrix(0.896, 0.445, -0.445, 0.896, 2.823, 0)"/><path class="h" d="M691.686,3378.148l-11.015-5.458.683-1.37,11.015,5.458Z" transform="translate(-678.165 -3368.449)"/></g></g><g transform="translate(806.64 54.009)"><ellipse class="ar" cx="16.376" cy="16.376" rx="16.376" ry="16.376"/><ellipse class="e" cx="10.772" cy="10.772" rx="10.772" ry="10.772" transform="matrix(0.889, -0.458, 0.458, 0.889, 1.864, 11.74)"/></g><g transform="translate(879.754 299.485)"><path class="c" d="M935.741,3452.922a18.032,18.032,0,0,0,3.361-10.5v-20.16a18.115,18.115,0,0,0-18.115-18.115h0a18.115,18.115,0,0,0-18.116,18.115v20.16a18.032,18.032,0,0,0,3.361,10.5,23.327,23.327,0,1,0,29.51,0Z" transform="translate(-897.659 -3404.143)"/><line class="d" y1="106.681" transform="translate(23.327 17.36)"/></g><g transform="translate(844.499 299.485)"><path class="j" d="M904.942,3452.922a18.024,18.024,0,0,0,3.361-10.5v-20.16a18.114,18.114,0,0,0-18.115-18.115h0a18.115,18.115,0,0,0-18.116,18.115v20.16a18.025,18.025,0,0,0,3.362,10.5,23.327,23.327,0,1,0,29.509,0Z" transform="translate(-866.859 -3404.143)"/><line class="d" y1="106.681" transform="translate(23.328 17.36)"/></g><g transform="translate(34.68 299.485)"><path class="c" d="M492.334,3452.922a18.032,18.032,0,0,0,3.361-10.5v-20.16a18.115,18.115,0,0,0-18.116-18.115h0a18.115,18.115,0,0,0-18.115,18.115v20.16a18.032,18.032,0,0,0,3.361,10.5,23.327,23.327,0,1,0,29.51,0Z" transform="translate(-454.252 -3404.143)"/><line class="d" y1="106.681" transform="translate(23.327 17.36)"/></g><g transform="translate(5.866 247.489)"><path class="c" d="M443.442,3364.027H461a3.71,3.71,0,0,1,3.711,3.71v2.274H439.731v-2.274A3.71,3.71,0,0,1,443.442,3364.027Z" transform="translate(-427.538 -3364.027)"/><path class="c" d="M443.828,3373.351h15.214a4.1,4.1,0,0,0,4.1-4.1H439.731A4.1,4.1,0,0,0,443.828,3373.351Z" transform="translate(-427.538 -3363.271)"/><g transform="translate(3.266 3.165)"><path class="c" d="M431.932,3452.422h3.192v-76.7a5.742,5.742,0,0,1,5.735-5.735v-3.191a8.937,8.937,0,0,0-8.927,8.926Z" transform="translate(-431.932 -3366.792)"/></g><path class="c" d="M430.941,3441.729h6l1.862,43.931h-9.725Z" transform="translate(-429.079 -3352.787)"/></g><line class="d" x2="45.556" transform="translate(857.525 427.952)"/><line class="d" x2="28.552" transform="translate(43.731 427.952)"/><path class="y" d="M449.379,3270.756c9.886-3.6,17.3-11.758,25.99-17.683,3.543-2.413,7.469-4.515,11.74-4.894s8.94,1.3,11.117,4.994c1.346,2.284,1.728,5.218,3.75,6.933,3.485,2.958,8.761.216,12.277-2.706,5.175-4.3,10.225-9.141,16.641-11.166s14.73-.072,17.312,6.141c1.178,2.839,1.1,6.3,3.189,8.554,2.223,2.393,5.91,2.4,9.093,3.132s6.68,3.527,5.582,6.6Z" transform="translate(-420.277 -3134.519)"/><path class="y" d="M615,3205.111c17.606,2.036,30.59-19.458,48.031-22.616,4.66-.844,10.189.105,13.447,3.177a11.509,11.509,0,0,0,12.818,2.268c2.9-1.379,5.727-3.254,8.466-4.828a50.815,50.815,0,0,1,27.1-6.68,17.11,17.11,0,0,1,8,1.857c5.038,2.923,6.38,9.015,6.484,15.12a5.612,5.612,0,0,0,6.945,5.38,46.288,46.288,0,0,1,6.211-1.4c4.513-.475,10.16,4.142,7.368,7.721Z" transform="translate(-229.803 -3176.396)"/></svg>