<svg xmlns="http://www.w3.org/2000/svg" width="77.205" height="77.205" viewBox="0 0 77.205 77.205"><defs><style>.a{fill:#009bdb;}</style></defs><path class="a" d="M4715.659,3374.325h54.587a11.322,11.322,0,0,0,11.309-11.309v-54.587a11.322,11.322,0,0,0-11.309-11.309h-54.587a11.321,11.321,0,0,0-11.309,11.309v54.587A11.321,11.321,0,0,0,4715.659,3374.325Zm-6.785-65.9a6.793,6.793,0,0,1,6.785-6.785h54.587a6.793,6.793,0,0,1,6.785,6.785v54.587a6.793,6.793,0,0,1-6.785,6.785h-54.587a6.793,6.793,0,0,1-6.785-6.785Z" transform="translate(-4704.35 -3297.12)"/><path class="a" d="M4742.953,3356.079a20.357,20.357,0,1,0-20.357-20.356A20.38,20.38,0,0,0,4742.953,3356.079Zm0-36.189a15.833,15.833,0,1,1-15.833,15.833A15.851,15.851,0,0,1,4742.953,3319.89Z" transform="translate(-4704.35 -3297.12)"/><path class="a" d="M4765.571,3319.89a6.786,6.786,0,1,0-6.785-6.786A6.793,6.793,0,0,0,4765.571,3319.89Zm0-9.048a2.262,2.262,0,1,1-2.262,2.262A2.265,2.265,0,0,1,4765.571,3310.842Z" transform="translate(-4704.35 -3297.12)"/></svg>