<?xml version="1.0" encoding="utf-8"?>
<svg viewBox="0 0 1519.724 1370.277"
 xmlns="http://www.w3.org/2000/svg">
  <path class="a" d="M -36.921 907.673 C -308.512 878.75 -231.468 887.732 -418.115 907.767 C -604.762 927.802 -650.14 833.937 -705.239 700.958 C -740.037 616.975 -698.772 536.974 -545.792 498.791 C -475.739 481.306 -373.592 426.475 -303.921 345.686 C -252.047 285.534 -233.803 208.741 -128.04 92.774 C -22.277 -23.193 123.821 27.449 176.98 86.457 C 266.342 185.651 204.756 296.962 250.857 341.3 C 311.637 399.757 392.299 418.801 498.782 440.265 C 660.08 472.778 830.704 373.809 896.178 524.802 C 942.667 632.012 894.449 798.843 800.212 874.586 C 580.808 1050.93 242.984 937.481 -36.921 907.673 Z" 
  style="fill: rgb(201, 236, 252);" 
  transform="matrix(-1, 0, 0, -1, 545.347717, 919.603195)"/>
</svg>