<svg xmlns="http://www.w3.org/2000/svg" width="1519.724" height="1370.277" viewBox="0 0 1519.724 1370.277"><defs><style>.a{fill:#c9ecfc;}</style></defs><path class="a" d="M4551.34,8574.959c-218.829-196.065-332.617-293.861-396.886-422.666s-70.9-292.772,10.251-411.658c25.25-36.989,57.994-68.706,80.48-107.439,36.252-62.442,42.725-137.129,62.832-206.48,22.119-76.289,64.258-150.293,131.895-191.914s163.644-42.481,221.069,12.384c35.986,34.38,53.878,85.859,94.26,114.947,68.425,49.289,162.039,13.053,245.646,2.11,163.151-21.353,334.714,75.929,400.188,226.922,46.489,107.21,46.086,238.9,223.687,443.268Z" transform="translate(-4105.037 -7204.682)"/></svg>