<svg xmlns="http://www.w3.org/2000/svg" width="1521.3" height="1368.787" viewBox="0 0 1521.3 1368.787"><defs><style>.a{fill:#8fd5e7;}</style></defs><path class="a" d="M7928.938,4350.646c-244.153-164.726-370.525-246.236-452.216-365.689s-111.246-282.145-47.558-412.258c19.815-40.483,47.789-76.764,64.625-118.6,27.141-67.438,23.079-142.886,33.266-214.936,11.205-79.259,42.554-159.067,103.689-210.165s156.071-65.525,220.621-18.892c40.45,29.223,65.381,78.066,109.442,101.386,74.658,39.514,162.266-9.881,243.515-32.621,158.547-44.371,342.051,28.457,428.045,169.883,61.06,100.418,79.12,231.888,283.616,410.734Z" transform="translate(-7394.683 -2981.859)"/></svg>