<svg xmlns="http://www.w3.org/2000/svg" xmlns:xlink="http://www.w3.org/1999/xlink" width="542.328" height="382.346" viewBox="0 0 542.328 382.346"><defs><style>.a{fill:#182262;}.b{fill:#8fd4f6;}.c{fill:#ffcb30;}.aa,.ab,.ac,.ae,.ai,.ak,.d,.f,.h,.i,.k,.m,.o,.q,.u,.v,.w,.y{fill:none;stroke-miterlimit:10;}.d{stroke:#f78630;}.ak,.d,.k{stroke-width:2.007px;}.e{fill:#ffb131;}.f{stroke:#fff;}.aa,.ab,.ac,.f,.h,.o,.q,.w{stroke-width:1.003px;}.g{fill:#008fc3;}.h{stroke:#00528e;}.i{stroke:#1a1718;}.ai,.i,.y{stroke-width:0.502px;}.j{fill:#fbefe6;}.k,.m{stroke:#e4b797;}.l{fill:#fff;}.m{stroke-width:1.505px;}.n{fill:#111745;}.o{stroke:#008fc3;}.p{fill:#00528e;}.q,.y{stroke:#8ed3f5;}.r{fill:#f27f74;}.s{fill:#ef6254;}.t{fill:#e6061c;}.ac,.u,.w{stroke:#182262;}.ae,.u{stroke-width:1.026px;}.v{stroke:#e61f4c;stroke-width:1.163px;}.x{fill:#e20c71;}.z{fill:#e3f3fc;}.aa{stroke:#a11333;}.ab{stroke:#ef6253;}.ab,.ac{stroke-linecap:round;}.ad{clip-path:url(#a);}.ae{stroke:#111745;}.af{clip-path:url(#b);}.ag{fill:#fffdfa;}.ah{fill:#ee9eaf;}.ai,.ak{stroke:#fbefe6;}.aj{fill:#8ed3f5;}</style><clipPath id="a"><path class="a" d="M4608.207,7464.315l7-12.592c26.47,12.834,51.5,33.576,66.775,58.61,15.925-7.165,41.492-14.433,61.561-17.3l4.278-2.822a32.688,32.688,0,0,1,35.874-.082l6.178,4.035v36.022h-115.12a5.871,5.871,0,0,1-4.212-1.779Z" transform="translate(-4608.207 -7451.723)"/></clipPath><clipPath id="b"><rect class="b" width="123.323" height="60.703"/></clipPath></defs><g transform="translate(444.875 109.69)"><path class="c" d="M5070.425,7446.707h-81.012l10.281-88.266h60.451Z" transform="translate(-4989.414 -7358.441)"/><line class="d" x2="77.842" transform="translate(2.156 74.731)"/><path class="c" d="M5043.808,7433.168h-26.573l5.025-74.728h16.523Z" transform="translate(-4989.414 -7358.441)"/><path class="e" d="M5054.958,7446.707l22.8,183.173h-4.762l-26.2-183.173Z" transform="translate(-4989.414 -7358.441)"/><path class="e" d="M5033.91,7446.707h-4.762l3.062,183.173h3.4l3.062-183.173Z" transform="translate(-4989.414 -7358.441)"/></g><g transform="translate(22.623 91.385)"><path class="c" d="M4675.517,7472.517a24.073,24.073,0,0,1-2.834-21.567,59.167,59.167,0,0,0,3.27-19.508,57.547,57.547,0,0,0-11.036-34.264,30.369,30.369,0,0,1-5.9-18.794c.008-.337.011-.675.011-1.014,0-20.564-14.245-37.234-31.817-37.234s-31.818,16.67-31.818,37.234q0,.508.011,1.014a30.363,30.363,0,0,1-5.9,18.794,57.547,57.547,0,0,0-11.036,34.264,59.167,59.167,0,0,0,3.27,19.508,24.072,24.072,0,0,1-2.833,21.567,67.6,67.6,0,0,0-11.74,38.374c0,35.68,26.884,64.6,60.048,64.6s60.047-28.924,60.047-64.6A67.6,67.6,0,0,0,4675.517,7472.517Z" transform="translate(-4567.161 -7340.136)"/><g transform="translate(25.785 39.438)"><path class="e" d="M4627.208,7379.574l-3.532,194.517,3.532,2.809,3.532-2.809Z" transform="translate(-4592.946 -7379.574)"/><path class="e" d="M4627.208,7478.237l31.084-40.026-30.377,43.889Z" transform="translate(-4592.946 -7379.574)"/><path class="e" d="M4627.208,7522.478l-34.263-36.516,33.556,40.027Z" transform="translate(-4592.946 -7379.574)"/></g><g transform="translate(23.312 223.246)"><rect class="c" width="73.47" height="11.236"/><path class="c" d="M4649.815,7630.094H4604.6l-9.187-55.476H4659Z" transform="translate(-4590.473 -7563.382)"/><line class="f" x2="3.175" y2="25.084" transform="translate(12.903 15.697)"/><line class="f" x2="0.502" y2="5.017" transform="translate(16.58 44.794)"/></g></g><g transform="translate(88.384 130.984)"><path class="g" d="M5033.584,7531.087l-23.229-110.465a51.481,51.481,0,0,0-50.38-40.887H4849.041a15.787,15.787,0,0,0-15.787,15.787v135.565Z" transform="translate(-4632.923 -7379.735)"/><path class="g" d="M4632.923,7531.087l23.23-110.465a51.482,51.482,0,0,1,50.379-40.887h110.935a15.787,15.787,0,0,1,15.787,15.787v135.565Z" transform="translate(-4632.923 -7379.735)"/><g transform="translate(78.425 26.962)"><circle class="h" cx="4.931" cy="4.931" r="4.931" transform="translate(0 6.974) rotate(-45)"/><circle class="h" cx="4.931" cy="4.931" r="4.931" transform="matrix(0.973, -0.23, 0.23, 0.973, 41.385, 3.307)"/><circle class="h" cx="4.931" cy="4.931" r="4.931" transform="translate(1.042 40.429) rotate(-13.283)"/><circle class="h" cx="4.931" cy="4.931" r="4.931" transform="translate(40.343 44.096) rotate(-45)"/><circle class="h" cx="4.931" cy="4.931" r="4.931" transform="translate(82.003 2.896) rotate(-9.217)"/></g><g transform="translate(227.603 26.962)"><circle class="h" cx="4.931" cy="4.931" r="4.931" transform="translate(81.728 10.64) rotate(-76.718)"/><circle class="h" cx="4.931" cy="4.931" r="4.931" transform="translate(41.66 11.051) rotate(-80.783)"/><circle class="h" cx="4.931" cy="4.931" r="4.931" transform="translate(80.687 44.096) rotate(-45)"/><circle class="h" cx="4.931" cy="4.931" r="4.931" transform="translate(40.875 41.427) rotate(-22.5)"/><circle class="h" cx="4.931" cy="4.931" r="4.931" transform="translate(0 6.974) rotate(-45)"/></g></g><rect class="i" width="43.244" height="11.73" transform="translate(399.931 322.94)"/><g transform="translate(101.205)"><g transform="translate(84.826)"><path class="e" d="M4749.6,7274.568l-7.979,17.325-.616,1.337a1.645,1.645,0,0,1-2.989-1.376l.883-1.915,7.716-16.747Z" transform="translate(-4730.569 -7248.751)"/><path class="e" d="M4761.5,7294.036a1.643,1.643,0,0,1-2.179-.806l-.617-1.337-7.982-17.325,2.989-1.376,7.712,16.744.884,1.918A1.647,1.647,0,0,1,4761.5,7294.036Z" transform="translate(-4730.569 -7248.751)"/><g transform="translate(21.291 3.558)"><path class="c" d="M4761.4,7253.286h0a.765.765,0,0,1,.375,1.014l-4,8.675-1.388-.64,4-8.674A.765.765,0,0,1,4761.4,7253.286Z" transform="translate(-4751.861 -7252.309)"/><path class="j" d="M0,0H13.457a0,0,0,0,1,0,0V.459a5.7,5.7,0,0,1-5.7,5.7H5.7A5.7,5.7,0,0,1,0,.459V0A0,0,0,0,1,0,0Z" transform="translate(12.223 11.226) rotate(-155.266)"/></g><g transform="translate(3.096 3.557)"><path class="c" d="M4738.93,7253.286h0a.764.764,0,0,0-.374,1.014l4,8.675,1.388-.64-4-8.674A.764.764,0,0,0,4738.93,7253.286Z" transform="translate(-4733.665 -7252.309)"/><path class="j" d="M5.7,0H7.755a5.7,5.7,0,0,1,5.7,5.7v.459a0,0,0,0,1,0,0H0a0,0,0,0,1,0,0V5.7A5.7,5.7,0,0,1,5.7,0Z" transform="translate(0 5.631) rotate(-24.735)"/></g><circle class="c" cx="16.288" cy="16.288" r="16.288" transform="translate(0 14.736) rotate(-13.282)"/><circle class="j" cx="12.461" cy="12.461" r="12.461" transform="translate(4.603 17.581) rotate(-13.283)"/><g transform="translate(7.357)"><path class="e" d="M4738.4,7255.7a.471.471,0,0,1-.2-.9l2.2-1.016.942-3.032a2.923,2.923,0,0,1,2.774-2h6.042a.471.471,0,0,1,0,.942h-6.042a1.981,1.981,0,0,0-1.878,1.348l-1.063,3.422-2.586,1.191A.469.469,0,0,1,4738.4,7255.7Z" transform="translate(-4737.927 -7248.751)"/></g><g transform="translate(19.123)"><path class="e" d="M4761.928,7255.7a.473.473,0,0,1-.2-.044l-2.584-1.191-1.067-3.433a1.977,1.977,0,0,0-1.875-1.337h-6.042a.471.471,0,1,1,0-.942h6.042a2.921,2.921,0,0,1,2.771,1.989l.946,3.043,2.2,1.016a.472.472,0,0,1-.2.9Z" transform="translate(-4749.692 -7248.751)"/></g><g transform="translate(9.079 20.418)"><path class="e" d="M4750.163,7269.169l-.616,2.093.37,3.509h.492l.37-3.509Z" transform="translate(-4739.648 -7269.169)"/><path class="e" d="M4739.648,7275.6l5.349.642,4.845-.385v-.514l-4.845-.385Z" transform="translate(-4739.648 -7269.169)"/><circle class="e" cx="1.09" cy="1.09" r="1.09" transform="translate(9.425 5.337)"/></g></g><rect class="c" width="9.567" height="40.051" transform="translate(12.89 5.385)"/><line class="k" x1="9.567" transform="translate(12.89 12.486)"/><rect class="c" width="9.567" height="40.051" transform="translate(22.457 5.385)"/><line class="c" x1="9.567" transform="translate(22.457 12.486)"/><rect class="c" width="9.567" height="31.491" transform="translate(32.024 13.945)"/><line class="c" x1="9.567" transform="translate(32.024 32.805)"/><line class="c" x1="9.567" transform="translate(32.024 24.777)"/><rect class="c" width="9.567" height="34.222" transform="translate(75.813 35.869) rotate(90)"/><line class="c" x1="29.098" transform="translate(46.715 38.25)"/><line class="c" x1="15.786" transform="translate(56.516 39.998)"/><line class="c" x1="29.098" transform="translate(42.201 41.745)"/><line class="c" x1="29.098" transform="translate(44.207 43.492)"/><rect class="e" width="150.203" height="7.219" transform="translate(0 45.436)"/><rect class="e" width="62.22" height="7.219" transform="translate(68.299 100.789)"/><g transform="translate(84.86 78.708)"><path class="e" d="M4736.512,7327.459h17.5l5.686,22.08h-17.5Z" transform="translate(-4730.604 -7327.459)"/><path class="e" d="M4753.792,7327.459h-17.5l-5.686,22.08h17.5Z" transform="translate(-4730.604 -7327.459)"/><g transform="translate(3.236 2.508)"><path class="e" d="M4735.134,7346.028l3.877-15.056h10.25l-3.877,15.056Z" transform="translate(-4733.84 -7329.968)"/><path class="e" d="M4747.967,7331.975l-3.36,13.05h-8.178l3.36-13.05h8.178m2.589-2.007h-12.322l-4.394,17.063h12.322l4.394-17.063Z" transform="translate(-4733.84 -7329.968)"/></g></g><path class="e" d="M4670.8,7266.988a2.181,2.181,0,1,0,2.181-2.182A2.18,2.18,0,0,0,4670.8,7266.988Z" transform="translate(-4645.744 -7248.751)"/><path class="e" d="M4661.236,7266.988a2.182,2.182,0,1,0,2.181-2.182A2.181,2.181,0,0,0,4661.236,7266.988Z" transform="translate(-4645.744 -7248.751)"/></g><g transform="translate(148.69 360.676)"><path class="l" d="M0,0H30.936A3.324,3.324,0,0,1,34.26,3.324v0a3.324,3.324,0,0,1-3.324,3.324H0a0,0,0,0,1,0,0V0A0,0,0,0,1,0,0Z" transform="translate(24.033 13.806)"/><path class="l" d="M4716.264,7609.427h-5.905a17.13,17.13,0,0,0-17.13,17.13h0a3.323,3.323,0,0,0,3.323,3.323H4730.1v-6.623A13.831,13.831,0,0,0,4716.264,7609.427Z" transform="translate(-4693.229 -7609.427)"/><path class="m" d="M4723.22,7629.88v-6.623a13.835,13.835,0,0,0-8.447-12.744" transform="translate(-4693.229 -7609.427)"/><g transform="translate(46.734)"><path class="l" d="M0,0H30.936A3.324,3.324,0,0,1,34.26,3.324v0a3.324,3.324,0,0,1-3.324,3.324H0a0,0,0,0,1,0,0V0A0,0,0,0,1,0,0Z" transform="translate(24.033 13.806)"/><path class="l" d="M4763,7609.427h-5.905a17.13,17.13,0,0,0-17.13,17.13h0a3.324,3.324,0,0,0,3.324,3.323h33.542v-6.623A13.831,13.831,0,0,0,4763,7609.427Z" transform="translate(-4739.963 -7609.427)"/><path class="m" d="M4757.093,7609.427a17.13,17.13,0,0,0-17.13,17.13" transform="translate(-4739.963 -7609.427)"/><path class="m" d="M4769.955,7629.88v-6.623a13.833,13.833,0,0,0-8.448-12.744" transform="translate(-4739.963 -7609.427)"/></g></g><path class="n" d="M5020.842,7566.4l12.9,64.513h-13.485s-7.679-44.173-39.865-64.513Z" transform="translate(-4544.539 -7248.751)"/><path class="n" d="M4645.665,7566.4l-12.894,64.513h13.485s7.679-44.173,39.865-64.513Z" transform="translate(-4544.539 -7248.751)"/><path class="b" d="M5020.206,7480.628a4.766,4.766,0,0,0-4.577-6.089H4950.32a4.766,4.766,0,0,0-4.577,6.089,79.3,79.3,0,0,1-.054,44.4,4.763,4.763,0,0,0,4.588,6.055h65.4a4.762,4.762,0,0,0,4.587-6.055A79.308,79.308,0,0,1,5020.206,7480.628Z" transform="translate(-4544.539 -7248.751)"/><path class="o" d="M5008.857,7480.628c.609-3.049-.976-6.089-3.182-6.089h-45.4c-2.206,0-3.791,3.04-3.182,6.089a112.915,112.915,0,0,1-.037,44.4c-.6,3.038.994,6.055,3.189,6.055h45.461c2.195,0,3.788-3.017,3.189-6.055A112.915,112.915,0,0,1,5008.857,7480.628Z" transform="translate(-4544.539 -7248.751)"/><path class="o" d="M4991.591,7480.628c.2-3.049-.325-6.089-1.059-6.089h-15.115c-.734,0-1.262,3.04-1.059,6.089a336.278,336.278,0,0,1-.012,44.4c-.2,3.038.33,6.055,1.061,6.055h15.135c.73,0,1.261-3.017,1.061-6.055A336.2,336.2,0,0,1,4991.591,7480.628Z" transform="translate(-4544.539 -7248.751)"/><path class="p" d="M0,0H423.132a0,0,0,0,1,0,0V22.479A14.532,14.532,0,0,1,408.6,37.011H14.532A14.532,14.532,0,0,1,0,22.479V0A0,0,0,0,1,0,0Z" transform="translate(77.149 281.417)"/><path class="g" d="M0,0H365.781a0,0,0,0,1,0,0V0a33.935,33.935,0,0,1-33.935,33.935H33.935A33.935,33.935,0,0,1,0,0V0A0,0,0,0,1,0,0Z" transform="translate(105.825 318.428)"/><g transform="translate(450.162 240.438)"><rect class="p" width="63.468" height="78.538" rx="31.734"/><path class="q" d="M4994.7,7535.993a31.734,31.734,0,0,0,31.734,31.734" transform="translate(-4994.7 -7489.188)"/><path class="g" d="M5026.434,7509.247h0a15.523,15.523,0,0,0-15.524,15.524v7.373a15.523,15.523,0,0,0,15.524,15.524h0a15.525,15.525,0,0,0,15.525-15.524v-7.373A15.524,15.524,0,0,0,5026.434,7509.247Z" transform="translate(-4994.7 -7489.188)"/><path class="q" d="M5026.434,7516.267h0a9.851,9.851,0,0,0-9.851,9.851v4.679a9.851,9.851,0,0,0,9.851,9.851h0a9.851,9.851,0,0,0,9.851-9.851v-4.679A9.851,9.851,0,0,0,5026.434,7516.267Z" transform="translate(-4994.7 -7489.188)"/></g><g transform="translate(0 121.163)"><rect class="r" width="13.836" height="15.641" transform="translate(138.045 47.72)"/><path class="r" d="M4609.191,7447.512l8.422,7.139-7.419,11.708-6.818-7.016Z" transform="translate(-4544.539 -7369.914)"/><path class="s" d="M4886.161,7479.071l15.224,20.3,33.287-17.292.451-10a2.408,2.408,0,0,1,1.361-2.061l13.541-6.515-1.935,5.935-5.677,19.611-44.9,30.448-17.8-22.761Z" transform="translate(-4544.539 -7369.914)"/><path class="t" d="M4782.64,7487.9c-3.949-11.055,2.1-32.377,18.689-36.062s27.112-1.843,38.431,4.738c2.105-13.174,18.851-27,38.643-20.868s24.531,28.765,24.531,28.765l-85.285,43.169-34.22-11.319Z" transform="translate(-4544.539 -7369.914)"/><path class="n" d="M4682.183,7512.533V7427.08h14.727c9.07,23.454,9.619,64.164,10.306,102.628l-18.967-8.023A9.937,9.937,0,0,1,4682.183,7512.533Z" transform="translate(-4544.539 -7369.914)"/><line class="u" x2="14.728" transform="translate(137.644 60.955)"/><g transform="translate(116.521)"><path class="l" d="M4682.2,7424.111h0a49.732,49.732,0,0,0-6.313-16.266l-12.94-21.271a12.983,12.983,0,0,1-.673-12.239l1.118-2.4,44.636,33.622s-3.478,13.333-11.014,18.55Z" transform="translate(-4661.06 -7369.914)"/><line class="v" y1="3.729" x2="5.417" transform="translate(7.685 22.454)"/><line class="v" y1="3.729" x2="5.417" transform="translate(11.921 29.71)"/><line class="v" y1="3.729" x2="5.417" transform="translate(16.158 36.966)"/><path class="a" d="M4663.4,7371.939l2.363-2.025,43.548,31.821-1.275,3.826Z" transform="translate(-4661.06 -7369.914)"/></g><g transform="translate(0 59.074)"><path class="l" d="M4606.5,7463.111h0a54.624,54.624,0,0,0-18.9,3.183l-25.756,9.2a14.262,14.262,0,0,1-13.316-1.992l-2.33-1.734,46.077-40.562s13.572,6.7,17.513,15.966Z" transform="translate(-4544.539 -7428.987)"/><line class="v" x1="1.582" y1="6.373" transform="translate(31.867 34.366)"/><line class="v" x1="1.313" y1="6.296" transform="translate(39.086 31.96)"/><line class="v" x1="1.182" y1="6.242" transform="translate(45.703 29.854)"/><path class="a" d="M4546.193,7471.77l-1.655-2.992,43.9-39.791,3.833,2.221Z" transform="translate(-4544.539 -7428.987)"/><circle class="w" cx="5.731" cy="5.731" r="5.731" transform="matrix(0.493, -0.87, 0.87, 0.493, 38.182, 20.684)"/></g><circle class="x" cx="11.693" cy="11.693" r="11.693" transform="translate(334.446 97.936) rotate(-67.5)"/><circle class="t" cx="13.731" cy="13.731" r="13.731" transform="translate(331.6 97.476)"/><path class="s" d="M4872.844,7454.4c3.588,1.026,12.388-3.412,21.019-7.671l9.049,16.543-8.361,6.7-6.617,9.247Z" transform="translate(-4544.539 -7369.914)"/><path class="r" d="M4957.113,7486.124l11.463-18.091a2.383,2.383,0,0,0-.466-3.088l-2.306-1.97-14.135,19.949Z" transform="translate(-4544.539 -7369.914)"/><path class="l" d="M4937.944,7477.94l28-35.954a1.935,1.935,0,0,1,2.335-.57l11.143,5.111a1.936,1.936,0,0,1,.726,2.943l-28.7,37.194a1.937,1.937,0,0,1-2.54.471l-10.441-6.351A1.937,1.937,0,0,1,4937.944,7477.94Z" transform="translate(-4544.539 -7369.914)"/><path class="y" d="M4946.455,7472.921l3.312,2.175-1.161,1.566-3.314-2.332Z" transform="translate(-4544.539 -7369.914)"/><path class="a" d="M4946.643,7469.364l19.667-24.734a1.518,1.518,0,0,1,1.821-.435l5.722,2.624a1.519,1.519,0,0,1,.559,2.32l-20.015,25.379a1.516,1.516,0,0,1-1.98.357l-5.374-3.269A1.519,1.519,0,0,1,4946.643,7469.364Z" transform="translate(-4544.539 -7369.914)"/><path class="a" d="M4979.421,7446.527l-.777-.357a1.965,1.965,0,0,1-.318.639l-29.734,38.533a2,2,0,0,1-1.382.762l1.7,1.031a1.937,1.937,0,0,0,2.54-.471l28.7-37.194A1.936,1.936,0,0,0,4979.421,7446.527Z" transform="translate(-4544.539 -7369.914)"/><path class="t" d="M4924.584,7424.61l.247-.865a12.609,12.609,0,0,0-5.476-14.175l-3.667-2.275a36.586,36.586,0,0,0-47.716,8.058h0a16.846,16.846,0,0,0,2.482,23.691l9.654,7.824,38.159-15.259A10.705,10.705,0,0,0,4924.584,7424.61Z" transform="translate(-4544.539 -7369.914)"/><g transform="translate(244.726 83.63)"><path class="r" d="M4789.264,7495.067h0v35.139c1.8,0,3.554-.015,5.281-.037l1.81-35.317C4794.6,7494.992,4791.032,7495.067,4789.264,7495.067Z" transform="translate(-4789.264 -7453.544)"/><path class="l" d="M4883.862,7457.906a11.091,11.091,0,0,0-11.966-3.9c-14.026,4.2-28.205,14.882-38.695,24.3a65.655,65.655,0,0,1-38.656,16.546,119.5,119.5,0,0,1-2.64,35.317c33.677-.444,56.344-5.115,75.383-10.385a21.511,21.511,0,0,0,25.945,1.2h0a8.781,8.781,0,0,0,3.788-7.913c-.473-6.146-4.007-19.732-3.749-26.655.094-2.5,1-6.818.205-9.24C4891.158,7470.147,4888.035,7463.345,4883.862,7457.906Z" transform="translate(-4789.264 -7453.544)"/><path class="z" d="M4867.288,7519.784c.25.208.5.408.76.6-6.39-5.273-8.737-6.361-13.413-6.276-8.386.152-13.54,5.552-20.61,7.274-8.237,2.007-14.866.154-18.294-.028-7.573-.4-12.77.78-22.162.012-.372,2.184-1.175,6.671-1.664,8.8C4825.582,7529.725,4848.249,7525.054,4867.288,7519.784Z" transform="translate(-4789.264 -7453.544)"/><line class="q" x1="4.041" y1="3.793" transform="translate(73.983 62.447)"/></g><path class="x" d="M4920.755,7426.956c4.1,5.575.01,15.764,0,19.912s1.511,10.1,4.125,10.352c-5.491,2.6-12.643-10.076-12.643-10.076l.88-21.948Z" transform="translate(-4544.539 -7369.914)"/><path class="r" d="M4919.632,7437.754q-.288.849-.647,1.673l4.069,11.32a1.019,1.019,0,0,1-.512,1.121l-3.153,1.689-2.992,9.525c-1.311,4-5.36,6.793-9.148,4.953h0a35.345,35.345,0,0,1-18.062-20.532l-2.478-7.371c6-11.174,14.636-14.7,24.411-14.445A9.207,9.207,0,0,1,4919.632,7437.754Z" transform="translate(-4544.539 -7369.914)"/><path class="l" d="M4912.873,7460.277h0a4.921,4.921,0,0,1-4.922-4.921v-.805h9.843v.805A4.921,4.921,0,0,1,4912.873,7460.277Z" transform="translate(-4544.539 -7369.914)"/><path class="t" d="M4879.081,7450.073c14.964,0,18.191-9.326,18.191-19.889s-26.818,8.86-26.818,8.86l1,8.1Z" transform="translate(-4544.539 -7369.914)"/><path class="aa" d="M4879.081,7450.073c14.964,0,18.191-9.326,18.191-19.889" transform="translate(-4544.539 -7369.914)"/><path class="r" d="M4947.566,7480.325c-.311-2.225-1.667-4.9-4.254-8.1a.975.975,0,0,1,.262-1.45l5.394-3.183a4.395,4.395,0,0,0,2.144-3.4,1.058,1.058,0,0,0-1.494-1.056l-9.911,5.18a2.929,2.929,0,0,0-1.712,2.611l.63,13.678c-14.134,7.924-28.506,17.326-38.614,25.96a1.341,1.341,0,0,1-2.087-.458l-14.353-30.769-17.658,15.9c9.065,11.525,17.38,24.342,28.723,34.869a4.036,4.036,0,0,0,5.3.134c13.84-9.537,26.645-19.027,36.289-28.376a103.13,103.13,0,0,1,17.492-13.637l3.394-2.1Z" transform="translate(-4544.539 -7369.914)"/><path class="r" d="M4946.313,7478.393l9.586-1.4a8.742,8.742,0,0,0,2.206-1.4l10.413-10.674-13.55,21.608-9.261.9Z" transform="translate(-4544.539 -7369.914)"/><path class="t" d="M4880.29,7439.393c7.433-6.651,12.128-5.477,21.322-1.956q.345.132.687.245c8.264,2.716,16.722-3.715,16.722-12.414v-5.045H4880.29Z" transform="translate(-4544.539 -7369.914)"/><path class="aa" d="M4918.327,7429.48c1.265-3.477,1.884-6.71.694-9.257" transform="translate(-4544.539 -7369.914)"/><circle class="r" cx="6.244" cy="6.244" r="6.244" transform="translate(344.084 65.264)"/><path class="ab" d="M4893.323,7443.69a2.3,2.3,0,0,1,1.138-3.935,1.727,1.727,0,0,1,2.042,1.183" transform="translate(-4544.539 -7369.914)"/><path class="ac" d="M4911.018,7441.9c.935-1.4,3.742-1.17,5.379,0" transform="translate(-4544.539 -7369.914)"/><g transform="translate(63.668 81.81)"><path class="a" d="M4608.207,7464.315l7-12.592c26.47,12.834,51.5,33.576,66.775,58.61,15.925-7.165,41.492-14.433,61.561-17.3l4.278-2.822a32.688,32.688,0,0,1,35.874-.082l6.178,4.035v36.022h-115.12a5.871,5.871,0,0,1-4.212-1.779Z" transform="translate(-4608.207 -7451.723)"/><g class="ad"><path class="n" d="M4608.207,7460.947c17.265,14.275,58.212,61.19,58.212,61.19s3.188,6.32,13.044,6.32,26.541-4.563,43.79-5.065,57.8,2.007,66.62,3.512.8,28.293.8,28.293l-110.749-20.768-107.489-34.616Z" transform="translate(-4608.207 -7451.723)"/></g><line class="ae" y1="12.592" x2="7.001" transform="translate(3.5 2.928)"/><path class="ae" d="M4615.882,7460.947c10.956,5.214,58.106,57.974,64.128,61.361,7.105,4,36.975-19.4,105.027-9.052" transform="translate(-4608.207 -7451.723)"/><line class="ae" y1="38.324" transform="translate(176.795 40.137)"/><path class="ae" d="M4681.982,7510.333a211,211,0,0,1,25.923-9.31" transform="translate(-4608.207 -7451.723)"/></g><path class="aa" d="M4839.76,7456.58c2.105-13.174,18.851-27,38.643-20.868" transform="translate(-4544.539 -7369.914)"/><path class="aa" d="M4873.528,7421.966h0a14.8,14.8,0,0,1,14.523-7.879l2.722.259" transform="translate(-4544.539 -7369.914)"/><path class="aa" d="M4791.313,7489.142c-1.6-7.018-.2-14.237,4.412-17.245" transform="translate(-4544.539 -7369.914)"/><path class="aa" d="M4812.623,7475.306h0a14.881,14.881,0,0,0,14.187-3.122l7.215-6.414" transform="translate(-4544.539 -7369.914)"/></g><g transform="translate(53.947 240.438)"><rect class="p" width="63.468" height="78.538" rx="31.734"/><path class="q" d="M4630.219,7567.727a31.734,31.734,0,0,0,31.734-31.734" transform="translate(-4598.485 -7489.188)"/><rect class="g" width="31.049" height="38.422" rx="15.524" transform="translate(16.209 20.058)"/><rect class="q" width="19.702" height="24.381" rx="9.851" transform="translate(21.883 27.079)"/></g><g transform="translate(171.528 340.332)"><rect class="l" width="2.211" height="7.219"/><rect class="l" width="2.211" height="7.219" transform="translate(7.569)"/><rect class="l" width="2.211" height="7.219" transform="translate(15.139)"/><rect class="l" width="2.211" height="7.219" transform="translate(22.708)"/><rect class="l" width="2.211" height="7.219" transform="translate(30.278)"/><rect class="l" width="2.211" height="7.219" transform="translate(37.848)"/><rect class="l" width="2.211" height="7.219" transform="translate(45.417)"/><rect class="l" width="2.211" height="7.219" transform="translate(52.987)"/><rect class="l" width="2.211" height="7.219" transform="translate(60.556)"/><rect class="l" width="2.211" height="7.219" transform="translate(68.125)"/><rect class="l" width="2.211" height="7.219" transform="translate(75.695)"/><rect class="l" width="2.211" height="7.219" transform="translate(83.265)"/><rect class="l" width="2.211" height="7.219" transform="translate(90.834)"/><rect class="l" width="2.211" height="7.219" transform="translate(98.404)"/><rect class="l" width="2.211" height="7.219" transform="translate(105.973)"/><rect class="l" width="2.211" height="7.219" transform="translate(113.542)"/><rect class="l" width="2.211" height="7.219" transform="translate(121.112)"/></g><g transform="translate(171.528 281.433)"><rect class="b" width="123.323" height="60.703"/><g class="af"><g transform="translate(-28.301 -0.971)"><line class="h" y1="56.153" x2="41.055"/><line class="h" y1="56.153" x2="41.055" transform="translate(19.839)"/><line class="h" y1="56.153" x2="41.055" transform="translate(39.677)"/><line class="h" y1="56.153" x2="41.055" transform="translate(59.516)"/><line class="h" y1="56.153" x2="41.055" transform="translate(79.354)"/><line class="h" y1="56.153" x2="41.055" transform="translate(99.193)"/><line class="h" y1="56.153" x2="41.055" transform="translate(119.032)"/><line class="h" y1="56.153" x2="41.055" transform="translate(138.87)"/></g></g></g><line class="h" x1="123.323" transform="translate(171.528 336.522)"/><g transform="translate(348.324 290.591)"><g transform="translate(0 11.735)"><rect class="b" width="87.525" height="8.279" transform="translate(0 18.154)"/><path class="ag" d="M4976.722,7554.671h-80.054l-3.806,14.56h87.525Z" transform="translate(-4892.862 -7551.077)"/><g transform="translate(6.869 26.433)"><rect class="ag" width="4.913" height="52.585"/><rect class="g" width="4.913" height="52.585" transform="translate(4.913)"/></g><g transform="translate(38.331 26.433)"><rect class="ag" width="4.913" height="52.585"/><rect class="g" width="4.913" height="52.585" transform="translate(4.913)"/></g><g transform="translate(69.793 26.433)"><rect class="ag" width="4.913" height="52.585"/><rect class="g" width="4.913" height="52.585" transform="translate(4.913)"/></g><path class="p" d="M4963.6,7552.229h-54.942a6.813,6.813,0,0,0-6.813,6.813h0a6.813,6.813,0,0,0,6.813,6.813H4963.6a6.813,6.813,0,0,0,6.813-6.813h0A6.813,6.813,0,0,0,4963.6,7552.229Z" transform="translate(-4892.862 -7551.077)"/><path class="b" d="M5.626,0H62.943a5.626,5.626,0,0,1,5.626,5.626V6.813a6.813,6.813,0,0,1-6.813,6.813H6.813A6.813,6.813,0,0,1,0,6.813V5.626A5.626,5.626,0,0,1,5.626,0Z" transform="translate(8.979)"/></g><g transform="translate(14.91)"><g transform="translate(0 8.316)"><ellipse class="j" cx="11.357" cy="4.986" rx="11.357" ry="4.986" transform="translate(0.125 5.622) rotate(-4.841)"/><path class="ah" d="M4930.9,7555.43c.155,2.751-4.788,5.378-11.041,5.868s-11.446-1.342-11.6-4.092,4.788-5.377,11.041-5.868S4930.744,7552.68,4930.9,7555.43Z" transform="translate(-4907.772 -7547.658)"/><ellipse class="j" cx="11.357" cy="4.986" rx="11.357" ry="4.986" transform="translate(0 3.436) rotate(-4.84)"/><path class="ah" d="M4930.725,7552.384c.157,2.75-4.784,5.381-11.036,5.877s-11.448-1.331-11.6-4.081,4.482-5.961,10.734-6.457S4930.569,7549.634,4930.725,7552.384Z" transform="translate(-4907.772 -7547.658)"/></g><g transform="translate(32.873 8.316)"><ellipse class="j" cx="11.357" cy="4.986" rx="11.357" ry="4.986" transform="translate(0 5.622) rotate(-4.841)"/><path class="ah" d="M4963.647,7555.43c.155,2.751-4.788,5.378-11.04,5.868s-11.447-1.342-11.6-4.092,4.789-5.377,11.041-5.868S4963.493,7552.68,4963.647,7555.43Z" transform="translate(-4940.645 -7547.658)"/><path class="j" d="M4963.578,7554.206c.156,2.75-4.785,5.381-11.037,5.877s-11.447-1.331-11.6-4.081,4.785-5.382,11.037-5.878S4963.421,7551.456,4963.578,7554.206Z" transform="translate(-4940.645 -7547.658)"/><path class="ah" d="M4963.474,7552.384c.156,2.75-4.785,5.381-11.037,5.877s-11.447-1.331-11.6-4.081,4.482-5.961,10.734-6.457S4963.317,7549.634,4963.474,7552.384Z" transform="translate(-4940.645 -7547.658)"/></g><g transform="translate(16.63 8.174)"><path class="j" d="M4947.427,7559.562c-.6,2.688-6.073,3.87-12.223,2.639s-10.648-4.407-10.047-7.1,6.072-3.869,12.222-2.639S4948.027,7556.874,4947.427,7559.562Z" transform="translate(-4924.402 -7547.516)"/><ellipse class="ah" cx="4.986" cy="11.356" rx="4.986" ry="11.356" transform="matrix(0.192, -0.981, 0.981, 0.192, 0, 11.582)"/><ellipse class="j" cx="4.986" cy="11.357" rx="4.986" ry="11.357" transform="translate(0.268 10.406) rotate(-78.988)"/><path class="ah" d="M4948.3,7555.644c-.6,2.689-6.073,3.87-12.222,2.64s-10.649-4.408-10.048-7.1,5.94-4.511,12.09-3.28S4948.9,7552.956,4948.3,7555.644Z" transform="translate(-4924.402 -7547.516)"/></g><g transform="translate(7.754)"><path class="j" d="M4938.337,7550.164c-.342,2.733-5.677,4.43-11.916,3.791s-11.02-3.373-10.678-6.107,5.676-4.43,11.916-3.791S4938.678,7547.43,4938.337,7550.164Z" transform="translate(-4915.526 -7539.342)"/><path class="ah" d="M4938.456,7549.208c-.344,2.733-5.679,4.426-11.918,3.781s-11.017-3.384-10.673-6.117,5.679-4.425,11.918-3.78S4938.8,7546.475,4938.456,7549.208Z" transform="translate(-4915.526 -7539.342)"/><ellipse class="j" cx="4.986" cy="11.357" rx="4.986" ry="11.357" transform="translate(0 11.357) rotate(-84.454)"/><path class="ah" d="M4938.835,7546.18c-.342,2.733-5.677,4.431-11.916,3.792s-11.02-3.374-10.678-6.107,5.484-5.056,11.723-4.416S4939.176,7543.447,4938.835,7546.18Z" transform="translate(-4915.526 -7539.342)"/></g><g transform="translate(24.103)"><ellipse class="j" cx="4.986" cy="11.357" rx="4.986" ry="11.357" transform="translate(0 13.529) rotate(-84.454)"/><ellipse class="ah" cx="4.986" cy="11.356" rx="4.986" ry="11.356" transform="translate(0.117 12.552) rotate(-84.398)"/><ellipse class="j" cx="4.986" cy="11.357" rx="4.986" ry="11.357" transform="translate(0.271 11.356) rotate(-84.454)"/><path class="ah" d="M4955.454,7546.18c-.341,2.733-5.676,4.431-11.915,3.792s-11.02-3.374-10.678-6.107,5.483-5.056,11.722-4.416S4955.8,7543.447,4955.454,7546.18Z" transform="translate(-4931.875 -7539.342)"/></g></g></g><path class="ai" d="M4919.182,7547.612a12.121,12.121,0,0,1,6.441-8.252" transform="translate(-4544.539 -7248.751)"/><path class="ai" d="M4923.985,7549.375a12.607,12.607,0,0,1,6.006-9.288" transform="translate(-4544.539 -7248.751)"/><path class="ai" d="M4928.938,7550.015c.91-3.043,1.91-6.237,4.229-8.409" transform="translate(-4544.539 -7248.751)"/><path class="ai" d="M4935.852,7540.767a7.439,7.439,0,0,1,4.11,2.706,22.166,22.166,0,0,1,2.551,4.307l1.026,2.076" transform="translate(-4544.539 -7248.751)"/><path class="ai" d="M4942.292,7539.5a12.769,12.769,0,0,1,6.429,10.485" transform="translate(-4544.539 -7248.751)"/><path class="ai" d="M4948.891,7540.315a5.383,5.383,0,0,1,2.421,2.585,14.746,14.746,0,0,1,1.655,5.683" transform="translate(-4544.539 -7248.751)"/><path class="l" d="M4871.628,7504.712l18.792-13.209-6.768-15.482-24.206,19.066Z" transform="translate(-4544.539 -7248.751)"/><g transform="translate(324.642 240.531)"><rect class="aj" width="26.815" height="6.522" transform="matrix(0.818, -0.575, 0.575, 0.818, 0, 15.42)"/></g><path class="q" d="M4871.628,7504.712l-5.907-8.643a6.268,6.268,0,0,0-7.077-2.436h0" transform="translate(-4544.539 -7248.751)"/><line class="q" x1="6.768" y1="15.482" transform="translate(339.114 227.27)"/><g transform="translate(384.399 139.267)"><path class="ag" d="M4963.047,7388.018h-18.558a15.548,15.548,0,0,0-15.551,15.551v6.262a15.553,15.553,0,0,0,15.551,15.557h10.271l8.422,10.9v-10.9h.984v-.048a15.552,15.552,0,0,0,14.432-15.509v-6.262A15.553,15.553,0,0,0,4963.047,7388.018Z" transform="translate(-4928.938 -7388.018)"/><path class="a" d="M4940.149,7405.927a2.667,2.667,0,1,0,2.666-2.666A2.666,2.666,0,0,0,4940.149,7405.927Z" transform="translate(-4928.938 -7388.018)"/><path class="a" d="M4951.481,7405.927a2.667,2.667,0,1,0,2.667-2.666A2.667,2.667,0,0,0,4951.481,7405.927Z" transform="translate(-4928.938 -7388.018)"/><path class="a" d="M4962.814,7405.927a2.667,2.667,0,1,0,2.667-2.666A2.667,2.667,0,0,0,4962.814,7405.927Z" transform="translate(-4928.938 -7388.018)"/></g><g transform="translate(37.574 381.343)"><line class="k" x2="466.837" transform="translate(18.086)"/><line class="k" x1="12.554"/><line class="k" x1="12.554" transform="translate(492.2)"/></g><g transform="translate(316.411)"><path class="k" d="M4880.591,7276.541l31.629-25.937,31.629,25.938" transform="translate(-4860.949 -7248.751)"/><circle class="j" cx="4.168" cy="4.168" r="4.168" transform="translate(47.103)"/><rect class="j" width="101.128" height="87.046" transform="translate(0 26.86)"/><rect class="c" width="77.784" height="91.866" transform="translate(96.497 31.491) rotate(90)"/><g transform="translate(15.409 42.574)"><path class="e" d="M4876.358,7347.707c1.435-7.735,11-41.135,20.561-41.135s11,13.36,16.257,13.36,8.129-22.371,16.736-22.371,18.17,50.146,18.17,50.146Z" transform="translate(-4876.358 -7291.325)"/><g transform="translate(39.682 30.12)"><circle class="c" cx="7.383" cy="7.383" r="7.383" transform="translate(0 10.441) rotate(-45)"/><line class="ak" y1="16.876" transform="translate(10.441 9.387)"/></g><path class="e" d="M4884.876,7296.467a3.021,3.021,0,0,1,1.027-3.026,3.831,3.831,0,0,1,3.492-.987,12.537,12.537,0,0,0,2.806.807,6.378,6.378,0,0,0,2.7-1.062,7,7,0,0,1,5.794-.431,4.849,4.849,0,0,1,3.048,4.7Z" transform="translate(-4876.358 -7291.325)"/></g></g></svg>