<svg xmlns="http://www.w3.org/2000/svg" width="301.183" height="26.538" viewBox="0 0 301.183 26.538"><defs><style>.a{fill:#ffa900;}.b{fill:#e6061c;}.c{fill:#6fbd8c;}.d{fill:#00387e;}.e{fill:#ffe755;}.f{fill:#634b99;}</style></defs><path class="a" d="M5086.3,3324.5a2.7,2.7,0,0,1-1.914-.793l-21.124-21.124a2.707,2.707,0,0,1,3.828-3.828l19.21,19.211,19.211-19.211a2.707,2.707,0,0,1,3.828,3.828l-21.125,21.124A2.7,2.7,0,0,1,5086.3,3324.5Z" transform="translate(-5062.473 -3297.96)"/><g transform="translate(49.886)"><path class="b" d="M5136.19,3324.5a2.7,2.7,0,0,1-1.914-.793l-21.125-21.124a2.707,2.707,0,0,1,3.828-3.828l19.211,19.211,19.211-19.211a2.707,2.707,0,0,1,3.828,3.828l-21.124,21.124A2.7,2.7,0,0,1,5136.19,3324.5Z" transform="translate(-5112.359 -3297.96)"/></g><g transform="translate(99.772)"><path class="c" d="M5186.076,3324.5a2.7,2.7,0,0,1-1.914-.793l-21.125-21.124a2.707,2.707,0,0,1,3.828-3.828l19.211,19.211,19.21-19.211a2.707,2.707,0,0,1,3.829,3.828l-21.125,21.124A2.7,2.7,0,0,1,5186.076,3324.5Z" transform="translate(-5162.245 -3297.96)"/></g><g transform="translate(149.657)"><path class="d" d="M5235.961,3324.5a2.7,2.7,0,0,1-1.914-.793l-21.125-21.124a2.707,2.707,0,0,1,3.829-3.828l19.21,19.211,19.212-19.211a2.707,2.707,0,0,1,3.828,3.828l-21.126,21.124A2.7,2.7,0,0,1,5235.961,3324.5Z" transform="translate(-5212.13 -3297.96)"/></g><g transform="translate(201.588)"><path class="e" d="M5287.893,3324.5a2.7,2.7,0,0,1-1.914-.793l-21.125-21.124a2.707,2.707,0,0,1,3.828-3.828l19.211,19.211,19.211-19.211a2.707,2.707,0,0,1,3.828,3.828l-21.124,21.124A2.7,2.7,0,0,1,5287.893,3324.5Z" transform="translate(-5264.061 -3297.96)"/></g><g transform="translate(253.52)"><path class="f" d="M5339.825,3324.5a2.7,2.7,0,0,1-1.914-.793l-21.126-21.124a2.707,2.707,0,0,1,3.829-3.828l19.211,19.211,19.211-19.211a2.707,2.707,0,0,1,3.828,3.828l-21.125,21.124A2.7,2.7,0,0,1,5339.825,3324.5Z" transform="translate(-5315.993 -3297.96)"/></g></svg>